<svg width="46.12" height="63.34" xmlns="http://www.w3.org/2000/svg" viewBox="0 0 23.06 31.67"><defs><style>.cls-1{isolation:isolate;}.cls-2{fill:#0984e3;}.cls-3{fill:#bababa;mix-blend-mode:multiply;}.cls-4{fill:#303866;}.cls-5{fill:#130f40;}.cls-6{fill:#3d4a7f;}.cls-7{fill:#2c355b;}.cls-8{fill:#e6e7e8;}</style></defs><title>1Asset 2</title><g class="cls-1"><g id="Layer_2" data-name="Layer 2"><g id="turret"><circle class="cls-2" cx="11.53" cy="20.14" r="11.53"/><path class="cls-3" d="M15.72,13.1V8.36h-.66V6.24a15,15,0,0,0-3.65-.44H9.71V8.36H9.44V13.1h-.2v8.07h7.61V13.1Z"/><rect class="cls-4" x="7.73" y="12.39" width="7.6" height="8.78"/><rect class="cls-5" x="9.24" width="4.57" height="10.01"/><rect class="cls-4" x="8.49" y="6.76" width="6.07" height="7.82"/><rect class="cls-6" x="9.13" y="7.21" width="0.92" height="4.1" rx="0.46" ry="0.46"/><rect class="cls-6" x="9.8" y="0.48" width="0.92" height="5.37" rx="0.46" ry="0.46"/><rect class="cls-4" x="5.11" y="21.17" width="13.63" height="5.94"/><rect class="cls-4" x="4.33" y="21.17" width="13.63" height="5.94"/><rect class="cls-7" x="17.95" y="21.17" width="0.78" height="5.94"/><rect class="cls-6" x="4.33" y="21.17" width="0.78" height="5.94"/><rect class="cls-6" x="6.53" y="22.27" width="10.16" height="3.59"/><rect class="cls-7" x="13.6" y="6.76" width="0.96" height="5.64"/><rect class="cls-7" x="14.37" y="12.39" width="0.96" height="8.78"/><rect class="cls-8" x="7.03" y="15.47" width="9" height="1.1"/><rect class="cls-8" x="7.03" y="17.94" width="9" height="2.01"/></g></g></g></svg>
