<svg width="95.54" height="140.94" xmlns="http://www.w3.org/2000/svg" viewBox="0 0 47.77 70.47"><defs><style>.cls-1{fill:#262626;}.cls-2{fill:#757575;}.cls-3{fill:#666;}.cls-4{fill:#969696;}.cls-5{fill:#828282;}</style></defs><title>asteroid-part-Asset 2</title><g id="Layer_2" data-name="Layer 2"><g id="shield"><path class="cls-1" d="M47.72,40.84c0-.56,0-1.12-.1-1.68,0-.4-.08-.81-.12-1.22s-.11-1-.19-1.57-.13-.84-.2-1.26-.17-1-.27-1.52-.18-.85-.28-1.28-.22-1-.35-1.46S46,30,45.85,29.56s-.27-.94-.42-1.4-.29-.87-.44-1.3-.32-.91-.49-1.36L44,24.21l-.57-1.31c-.19-.42-.38-.85-.59-1.28s-.41-.83-.62-1.25-.44-.85-.67-1.27-.45-.8-.68-1.2-.49-.84-.74-1.25-.49-.76-.74-1.14-.54-.83-.82-1.23-.52-.72-.78-1.07-.59-.82-.9-1.22-.53-.64-.79-1c-.83-1-1.69-2-2.59-2.95l-.27-.29C32.52,7.06,31.8,6.34,31,5.65c-1.19-1.09-3.6-3.16-5.93-5.12,0-.1-.09-.2-.14-.31a2.94,2.94,0,0,1-1,.14c-1.33,0-2.68-.26-4-.3-.87,0-1.77-.28-2.24.63s.11,2-.89,2.54c-.58.3-1.39-.1-2,.15-.42.18-.15.19-.41.44-1.05,1.05-1.39,2.6-2.52,3.45-.28.21-.57.39-.84.63s-.33.71-.46.85c-.51.56-1.28.58-1.93,1-.48.28-1.2,1.18-1.9,1.69a1.21,1.21,0,0,1-1.2.31L5,15.17a1.21,1.21,0,0,1-1.2.31,6,6,0,0,0,.59.55A4.58,4.58,0,0,0,3,16.78L1.14,18.26c-2.69,2.12-.14,5.56,2.68,5.43A7.58,7.58,0,0,0,5.38,26.6,4.29,4.29,0,0,0,8,27.84,12.49,12.49,0,0,1,9.08,32a50.34,50.34,0,0,0,.63,5.19,2.68,2.68,0,0,0,2.91,2.37,0,0,0,0,0,0,0,1.18,1.18,0,0,1-.11.19A7.61,7.61,0,0,1,11.89,41c-.35.45-1.06.68-1.35,1.15a1.93,1.93,0,0,0,.05,1.54,4.44,4.44,0,0,1-.51,1.08c-.35.45-1.06.67-1.35,1.15-.47.76.38,2,.37,3a24.2,24.2,0,0,0,0,3.07,4.13,4.13,0,0,0,1.75,2.74,15.69,15.69,0,0,1,1.72,1.32,12.11,12.11,0,0,1,1,1.77c.41.61.85.83,1.05,1.53s0,1.27.41,1.84c1,1.5,3,.23,4.4.78.15.06.27.15.41.22,1.93,1.09,2.55,3.69,5,4.24a13,13,0,0,0,4.36-.14c1.08-.19,2.31-1.05,3.45-.94s1.44.9,1.6,1.92c.21,1.29.34,1.12,1.42.77.24.93-.18.84.77,1.19l.68.25c.89.37,2,.72,2.82,1,.67-1.23,1.27-2.52,1.84-3.82a48.48,48.48,0,0,0,4.38-11.28h0c.26-1,.48-2,.68-3.09.07-.34.14-.69.2-1l.18-1.1c.12-.83.24-1.65.32-2.5s.17-1.88.21-2.83c0-.31,0-.63,0-.95,0-.62,0-1.25,0-1.87C47.76,41.6,47.73,41.22,47.72,40.84Z"/><path class="cls-2" d="M19.9.05C19,0,18.14-.23,17.66.68s.11,2-.89,2.54c-.58.3-1.39-.1-2,.15-.41.18-.15.19-.41.44C13.33,4.86,13,6.41,11.86,7.26c-.28.21-.57.39-.84.63s-.33.71-.46.85c-.51.56-1.28.58-1.93,1-.48.28-1.2,1.18-1.9,1.69L8.87,11c8-1.6,16.12-3.23,24.28-3.19-.71-.73-1.43-1.45-2.18-2.14C29.78,4.55,27.37,2.48,25,.52c0-.1-.09-.2-.14-.31a2.94,2.94,0,0,1-1,.14C22.58.31,21.23.09,19.9.05Z"/><path class="cls-2" d="M36.32,57.8a87.35,87.35,0,0,1-14.73.62c1.93,1.08,2.55,3.68,5,4.23a13.31,13.31,0,0,0,4.36-.13c1.08-.2,2.3-1.06,3.44-1s1.44.9,1.6,1.92c.21,1.3.34,1.12,1.43.77.23.93-.19.84.76,1.2.24.08.46.15.68.24.89.37,2,.72,2.82,1a48.32,48.32,0,0,0,4.41-11.33A35.24,35.24,0,0,1,36.32,57.8Z"/><path class="cls-3" d="M6.73,11.39a1.21,1.21,0,0,1-1.2.31c1.2,1.29,2.65,1.67,4,2.59a5.14,5.14,0,0,1,1.27.9c.24.3.32.71.54,1a3.09,3.09,0,0,0,1.41.8A10.16,10.16,0,0,1,14,18.61a7.52,7.52,0,0,1,1.29,2.45c.19,1.27.5,2.62.62,3.9a20.56,20.56,0,0,1-.51,3.59c-.18,2.07-.73,3.95-.87,6S13.37,38,12.43,39.74A8.51,8.51,0,0,1,11.81,41c-.35.45-1.06.68-1.35,1.15-.47.77.39,2,.37,3a24.38,24.38,0,0,0,0,3.08A4.14,4.14,0,0,0,12.63,51a16.59,16.59,0,0,1,1.71,1.32,12.64,12.64,0,0,1,1,1.77c.41.61.85.84,1.05,1.53s0,1.27.41,1.84c1,1.5,3,.23,4.4.78a2.71,2.71,0,0,1,.41.23,87.35,87.35,0,0,0,14.73-.62,35.24,35.24,0,0,0,9.75-2.44h0c.26-1,.48-2,.68-3.09.07-.34.14-.69.2-1l.18-1.1c.12-.83.24-1.65.33-2.5s.16-1.88.2-2.83c0-.31,0-.63,0-.95,0-.62,0-1.25,0-1.87,0-.38,0-.76,0-1.14,0-.56,0-1.12-.1-1.68,0-.4-.08-.81-.12-1.22s-.11-1-.18-1.57-.14-.84-.21-1.26-.17-1-.27-1.52-.18-.85-.28-1.28-.22-1-.35-1.46-.23-.86-.35-1.29-.28-.94-.43-1.4-.28-.87-.43-1.3-.33-.91-.5-1.36l-.51-1.29c-.18-.44-.38-.87-.57-1.31S43,22,42.75,21.61s-.41-.83-.62-1.25-.44-.85-.67-1.27-.45-.8-.68-1.2-.49-.84-.74-1.25-.49-.76-.74-1.14-.54-.83-.82-1.23-.52-.72-.78-1.07-.59-.82-.9-1.22-.53-.64-.79-1c-.83-1-1.69-2-2.59-2.95l-.27-.29C25,7.74,16.89,9.37,8.87,11Z"/><path class="cls-4" d="M17.53,3.22c1-.52.47-1.72.9-2.54A1.14,1.14,0,0,1,19.38,0C18.69,0,18,0,17.66.68s.11,2-.89,2.54a1.06,1.06,0,0,1-.35.09A2.05,2.05,0,0,0,17.53,3.22Z"/><path class="cls-5" d="M17.54,57.41c-.38-.57-.23-1.22-.4-1.84s-.65-.92-1.05-1.53a13.76,13.76,0,0,0-1-1.77A15.69,15.69,0,0,0,13.39,51a4.18,4.18,0,0,1-1.76-2.74,28.59,28.59,0,0,1,0-3.07c0-1-.84-2.19-.37-3,.3-.47,1-.7,1.36-1.15a8.46,8.46,0,0,0,.61-1.29c1-1.7,2-3.13,2.12-5.16s.69-4,.87-6A20.56,20.56,0,0,0,16.69,25c-.12-1.28-.42-2.63-.62-3.9a7.33,7.33,0,0,0-1.29-2.45A10.1,10.1,0,0,0,13.5,17a3.12,3.12,0,0,1-1.42-.8c-.21-.28-.3-.69-.54-1a5.08,5.08,0,0,0-1.26-.9C9,13.37,7.49,13,6.3,11.7c.36.17.77,0,1.19-.31C8.2,10.88,8.91,10,9.39,9.7c.65-.38,1.43-.4,1.93-1,.13-.14.17-.57.47-.85s.55-.42.83-.63c1.13-.85,1.48-2.4,2.53-3.45.26-.25,0-.26.41-.44a.92.92,0,0,1,.28-.05,2.05,2.05,0,0,0-1.05.05c-.41.18-.15.19-.41.44C13.33,4.86,13,6.41,11.86,7.26c-.28.21-.57.39-.84.63s-.33.71-.46.85c-.51.56-1.28.58-1.93,1-.48.28-1.2,1.18-1.9,1.69a1.21,1.21,0,0,1-1.2.31c1.2,1.29,2.65,1.67,4,2.59a5.14,5.14,0,0,1,1.27.9c.24.3.32.71.54,1a3.09,3.09,0,0,0,1.41.8A10.16,10.16,0,0,1,14,18.61a7.52,7.52,0,0,1,1.29,2.45c.19,1.27.5,2.62.62,3.9a20.56,20.56,0,0,1-.51,3.59c-.18,2.07-.73,3.95-.87,6S13.37,38,12.43,39.74A8.51,8.51,0,0,1,11.81,41c-.35.45-1.06.68-1.35,1.15-.47.77.39,2,.37,3a24.2,24.2,0,0,0,0,3.07A4.14,4.14,0,0,0,12.63,51a16.59,16.59,0,0,1,1.71,1.32,12.64,12.64,0,0,1,1,1.77c.41.61.85.84,1.05,1.53s0,1.27.41,1.84a2.07,2.07,0,0,0,2.12.74A1.69,1.69,0,0,1,17.54,57.41Z"/><path class="cls-5" d="M39.61,65.7l-.68-.24c-1-.36-.53-.27-.77-1.2-.31.1-.54.18-.72.22.12.69-.14.65.72,1,.24.08.46.15.68.24.89.37,2,.72,2.82,1,0-.06.07-.14.11-.21C41.06,66.25,40.28,66,39.61,65.7Z"/><path class="cls-5" d="M36.74,63.49c-.17-1-.44-1.82-1.6-1.92a2.42,2.42,0,0,0-.6,0c1,.17,1.28.93,1.43,1.89s.31,1.14,1,.91A2.14,2.14,0,0,1,36.74,63.49Z"/><path class="cls-5" d="M27.33,62.65c-2.42-.55-3-3.15-5-4.23a3.3,3.3,0,0,0-.41-.23,3,3,0,0,0-1.3-.13,2,2,0,0,1,.53.13,2.71,2.71,0,0,1,.41.23c1.93,1.08,2.55,3.68,5,4.23a7.75,7.75,0,0,0,1.74.12A5.59,5.59,0,0,1,27.33,62.65Z"/></g></g></svg>
