<svg width="138.92" height="67.16" xmlns="http://www.w3.org/2000/svg" viewBox="0 0 69.46 33.58"><defs><style>.cls-1{fill:#262626;}.cls-2{fill:#757575;}.cls-3{fill:#666;}.cls-4{fill:#565656;}</style></defs><title>asteroid-part-Asset 1</title><g id="Layer_2" data-name="Layer 2"><g id="shield"><path class="cls-1" d="M54.2,31.54c2.3-.85,4.88-.92,7.22-1.81C63.3,29,65,27.84,66.87,27.05c.34-.14.67-.3,1-.45a1.26,1.26,0,0,1-.13-.17c-.78-1.3.79-2.9.82-4.26,0-.73-.16-.69.32-1.27s.58-.2.58-1.06a9.49,9.49,0,0,0-.28-2.74,5.92,5.92,0,0,0-1.38-1.62h0c-.05-.15-.1-.3-.16-.45-.85-.61-2.12-.39-3.1-.6a10.44,10.44,0,0,0-3.67-.57,18.06,18.06,0,0,0-6,1.68c-2.3,1.2-2.63,4.17-3.41,6.42A90.53,90.53,0,0,0,48.3,33c0,.2-.07.38-.11.57a18,18,0,0,0,3.53-.87C52.6,32.36,53.38,31.84,54.2,31.54Z"/><path class="cls-2" d="M55,29.23c.5-.57,1.22-.84,1.52-1.53.08-.18,0-.6.17-.95s.39-.58.59-.87c.8-1.16.63-2.75,1.29-4.07.16-.33-.09-.25.25-.56s1.37-.3,1.82-.77c.78-.81-.11-1.77,0-2.69s1.08-1.06,1.92-1.31c1.27-.39,2.62-.62,3.89-1A3.55,3.55,0,0,0,67.4,15C55.88,2.39,38-4.22,21,3A47.46,47.46,0,0,0,3.61,15.84C2.46,17.18,1.25,18.47,0,19.73a6,6,0,0,0,2.31,1.53c1.28.42,2.64.74,4,1.1A10.44,10.44,0,0,1,9.5,23.69c.7.56,1.27,1.91,2,2.63a6,6,0,0,0,2.92,1.45,2.41,2.41,0,0,1,1.38.87A11.11,11.11,0,0,0,17.72,31c1.12.85,3.7-.08,5-.52,1.49-.5,1.22-1.67,2.58-2.39,1.69-.89,2.18.31,4,.57a13.81,13.81,0,0,1,4,.8,58.61,58.61,0,0,0,12,3.88,10.79,10.79,0,0,0,6.25-.62c.75-.43,1.51-.85,2.26-1.29C54.27,30.72,54.66,29.65,55,29.23Z"/><path class="cls-3" d="M56.72,6.23c-5.59,2.21-15,6.43-29.63,14.4A87.08,87.08,0,0,1,12.47,27a7.78,7.78,0,0,0,2,.75,2.41,2.41,0,0,1,1.38.87A11.11,11.11,0,0,0,17.72,31c1.12.85,3.7-.08,5-.52,1.49-.5,1.22-1.67,2.58-2.39,1.69-.89,2.18.31,4,.57a13.81,13.81,0,0,1,4,.8l.56.26c16.27-8,22.88-13.48,33.8-14.44A49.19,49.19,0,0,0,56.72,6.23Z"/><path class="cls-4" d="M28,14.6c-5.37.47-4.65,8.82.73,8.35S33.39,14.13,28,14.6Z"/><path class="cls-4" d="M60.56,19.31c-.45.47-1.35.35-1.83.77-.33.31-.08.23-.24.56C57.83,22,58,23.55,57.2,24.71c-.2.29-.41.55-.59.87s-.09.77-.17,1c-.3.69-1,1-1.52,1.53-.37.41-.76,1.49-1.26,2.2l-2.27,1.29a10.75,10.75,0,0,1-6.24.62,58.61,58.61,0,0,1-12-3.88,13.81,13.81,0,0,0-4-.8c-1.78-.27-2.28-1.46-4-.57-1.36.72-1.09,1.89-2.59,2.39-1.27.44-3.85,1.37-5,.52a10.82,10.82,0,0,1-1.91-2.36,2.4,2.4,0,0,0-1.39-.87,6,6,0,0,1-2.91-1.45c-.74-.72-1.31-2.07-2-2.63a10.44,10.44,0,0,0-3.24-1.33c-1.31-.36-2.67-.68-3.95-1.1a4.91,4.91,0,0,1-1.65-.95c-.19.2-.37.4-.56.59a6,6,0,0,0,2.31,1.53c1.28.42,2.64.74,4,1.1A10.44,10.44,0,0,1,9.5,23.69c.7.56,1.27,1.91,2,2.63a6,6,0,0,0,2.92,1.45,2.41,2.41,0,0,1,1.38.87A11.11,11.11,0,0,0,17.72,31c1.12.85,3.7-.08,5-.52,1.49-.5,1.22-1.67,2.58-2.39,1.69-.89,2.18.31,4,.57a13.81,13.81,0,0,1,4,.8,58.61,58.61,0,0,0,12,3.88,10.79,10.79,0,0,0,6.25-.62c.75-.43,1.51-.85,2.26-1.29.51-.71.9-1.78,1.26-2.2.5-.57,1.22-.84,1.52-1.53.08-.18,0-.6.17-.95s.39-.58.59-.87c.8-1.16.63-2.75,1.29-4.07.16-.33-.09-.25.25-.56s1.37-.3,1.82-.77.33-1.07.17-1.65A1.11,1.11,0,0,1,60.56,19.31Z"/><path class="cls-4" d="M66.41,14.31c-1.28.38-2.62.61-3.89,1-.84.25-1.77.3-1.93,1.31a2.54,2.54,0,0,0,.14,1.05c.21-.89,1.09-1,1.89-1.19,1.27-.39,2.62-.62,3.89-1A3.55,3.55,0,0,0,67.4,15l-.77-.81A1.45,1.45,0,0,1,66.41,14.31Z"/></g></g></svg>
