<svg width="187.3" height="226.84" xmlns="http://www.w3.org/2000/svg" viewBox="0 0 93.65 113.42"><defs><style>.cls-1{fill:#262626;}.cls-2{fill:#666;}.cls-3{fill:#757575;}.cls-4{fill:#353535;}.cls-5{fill:#565656;}.cls-6,.cls-9{fill:none;}.cls-6{stroke:#828282;stroke-miterlimit:10;stroke-width:2px;}.cls-7{fill:#828282;}.cls-8{fill:#969696;}.cls-10{fill:#5b5b5b;}</style></defs><title>asteroid-part-Asset 3</title><g id="Layer_2" data-name="Layer 2"><g id="shield"><path class="cls-1" d="M79.09,20.89c3.23.8.33,4.15,2.34,6.52,1,1.15,2.18,3.63,3.23,4.73.6.63,1,1.4,1.69,2,1.59,1.47,5.17,2,6.41,3.7,2.62,3.6-1.47,9.28-.65,13.06.92,4.21-.22,7.72-.25,12.18,0,2,1,4.42.74,6.63-.11.86-.89,1.65-1,2.65-.13,1.37.7,2.22.74,3.46.07,2-1.28,3.07-1.77,4.76-.44,1.51-.83,4-1.36,5.84-1.8,6.32,4.5,12.75-.38,18.35-2.79,3.21-5,5.28-9.56,6.86a22.16,22.16,0,0,1-5.81,1.19c-1.27.11-3.08-.24-4.12-.23a9.66,9.66,0,0,1-5.86-1.77c-8.64-6.65-9.34-20-10.86-29.91C51.28,72.05,52.2,63.1,52,54.15c-.19-6.53,2.86-13,7-18.13,2.66-3.26,3.85-7.11,6.53-10.25C67,24,68.07,23.86,70,22.79,71.74,21.82,76.39,20.27,79.09,20.89Z"/><path class="cls-2" d="M73.43,52.69c.64-1,.4-2.61,1.23-3.35-.07-.09-.16,0-.25-.15.75-1.38.31-2.9.39-4.5.14-2.88.15-5.2,1.53-7.74,1.6-3,.71-6.33,1-9.59a23.13,23.13,0,0,1,1.92-6.87A14.45,14.45,0,0,1,80,19,85.64,85.64,0,0,1,61.1,25c-7.87,1.36-15.92.88-23.9.67s-16.12-.16-23.74,2.22a34.25,34.25,0,0,0-8.2,3.78h0A50.71,50.71,0,0,0,3.64,44.78v.11q0,1.22.06,2.43a2.71,2.71,0,0,0,0,.29c0,.77.09,1.54.16,2.32,0,.13,0,.27,0,.41.09.9.18,1.8.3,2.71h0l-.06.46,0,.18c3.08-1.73,6.24-4.39,8.69-5.23,7.51-2.59,15.84-2.46,23.55-.89C48,49.94,58.94,55.21,70.5,58.15c1.19.3,2.38.57,3.57.82a26.4,26.4,0,0,1-1.64-3.28C71.94,54.37,72.7,53.82,73.43,52.69Z"/><path class="cls-3" d="M75.43,108.46c.13-1.61,1.17-3.22,1.72-4.73,1.4-3.87-1.21-8-2.26-11.63a28.47,28.47,0,0,0-1.08-3.93c-.45-1-1-2.08-1.29-3.07a19.66,19.66,0,0,1-.47-5.16c0-2.2,1.81-2.29,2.85-3.88.57-.86,0-1.4.31-2.24s1.13-.92,1.66-1.5c1-1.1.63-3.35.31-4.63a49.68,49.68,0,0,0-1.65-5.75,24,24,0,0,0-1.46-3c-1.19-.25-2.38-.52-3.57-.82C58.94,55.21,48,49.94,36.34,47.57c-7.71-1.57-16-1.7-23.55.89-2.45.84-5.61,3.5-8.69,5.23l0-.18-.06.43A50.46,50.46,0,0,0,5.82,70.87a49.48,49.48,0,0,0,33.71,33.41c.17,0,.35.08.52.12,1.33,1,2.7,2,4.12,2.92a44,44,0,0,0,31.91,5.06A15.09,15.09,0,0,1,75.43,108.46Z"/><path class="cls-2" d="M75.43,108.46c.13-1.61,1.17-3.22,1.72-4.73,1.4-3.87-1.21-8-2.26-11.63a28.47,28.47,0,0,0-1.08-3.93l-.15-.33c-11.49-5.61-21.86-14-34.15-17.65C32.35,68,24.82,67.57,17.38,67.47c-3.6,0-8.37-.46-12.26.6.21.94.43,1.88.7,2.8a46.52,46.52,0,0,0,2,5.45c10.27,3.39,19,7.42,25.32,16.9,2.34,3.53,4.21,7.51,6.49,11.07l.45.11c1.33,1,2.7,2,4.12,2.92a44,44,0,0,0,31.91,5.06A15.09,15.09,0,0,1,75.43,108.46Z"/><path class="cls-3" d="M78.56,18.5a8.33,8.33,0,0,1-3.13-.43,58.29,58.29,0,0,1-11.6-4.91A13.69,13.69,0,0,0,59.89,12c-1.75-.42-2.14-1.66-3.9-.91-1.41.6-1.25,1.78-2.78,2.15-1.31.32-4,1-5,.09a11.62,11.62,0,0,1-1.7-2.52,2.47,2.47,0,0,0-1.3-1,6,6,0,0,1-2.78-1.69c-.67-.79-1.12-2.18-1.77-2.79a10.35,10.35,0,0,0-3.11-1.62c-1.27-.47-2.6-.9-3.84-1.43A6.26,6.26,0,0,1,31.54.56c-3.33,2.81-6.89,5.36-10.48,7.85a34.93,34.93,0,0,0-5.81,5.06,42.64,42.64,0,0,0-10,18.17,34.25,34.25,0,0,1,8.2-3.78c7.62-2.38,15.76-2.44,23.74-2.22s16,.69,23.9-.67a78.54,78.54,0,0,0,17.71-5.7A5,5,0,0,1,78.56,18.5Z"/><path class="cls-2" d="M59.89,12c-1.75-.42-2.14-1.66-3.9-.91-1.41.6-1.25,1.78-2.78,2.15-1.31.32-4,1-5,.09a11.62,11.62,0,0,1-1.7-2.52,2.47,2.47,0,0,0-1.3-1,8,8,0,0,1-1.89-.91c-10.84,2.54-19,1.92-24,.88a34.31,34.31,0,0,0-4,3.68s28,7.94,46.67.93l2.45-.94-.54-.3A13.69,13.69,0,0,0,59.89,12Z"/><path class="cls-3" d="M4.29,53.07S.25,50.42,0,48.69s.43-20,7.69-32.25c1.66-2.72,9.52-1.93,9.52-1.93"/><path class="cls-4" d="M9.6,18.32s-7.28,9.59-7.22,27c2,15.78,10.89-28.21,9-27.86A2.69,2.69,0,0,0,9.6,18.32Z"/><path class="cls-5" d="M5.89,45.28c0-12,3.4-20.24,5.55-24.23.26-2.26.28-3.7-.07-3.63a2.69,2.69,0,0,0-1.77.9s-7.28,9.59-7.22,27c.66,5.1,2,3.93,3.52.06A.11.11,0,0,0,5.89,45.28Z"/><path class="cls-3" d="M.82,50.13a37.74,37.74,0,0,1,6.65,8.36C10.19,63.31,24.6,20.33,18.32,14.4S7,17.71,7,17.71l3.56-1.49L15.25,16l.61,1.28-.61,4.12-1,2.77-2.66,2.2L9.79,35.86,8.27,40.72,7,44.22,5.79,47.64,4.24,49.52l-2.46.11Z"/><path class="cls-4" d="M27.49,93.06a12,12,0,0,0,6.59,1.76,6.06,6.06,0,0,0,5.35-3.74c1-3-1.12-6.08-3.62-7.92s-5.52-3-7.68-5.25a24,24,0,0,1-3.72-6,15.54,15.54,0,0,0-4.19-5.62c-3-2.22-7.69-1.7-8.5,2.47-.54,2.79,1.7,4.43,2.85,6.73,1.67,3.32,2.32,6.81,4.5,9.94A24.88,24.88,0,0,0,27.49,93.06Z"/><path class="cls-6" d="M37.27,81.07c-2.5-1.84-5.51-3-7.67-5.25a24.24,24.24,0,0,1-3.73-6,15.32,15.32,0,0,0-4.19-5.62c-3-2.22-7.69-1.7-8.5,2.46a5.24,5.24,0,0,1,.24-.7,4.45,4.45,0,0,0-1.7,2.8c-.54,2.79,1.7,4.43,2.85,6.73,1.67,3.32,2.32,6.81,4.5,9.94a24.88,24.88,0,0,0,8.42,7.61,12,12,0,0,0,6.59,1.76,6.07,6.07,0,0,0,5.31-3.67h0A4.84,4.84,0,0,0,40.89,89C41.88,86,39.78,82.91,37.27,81.07Z"/><path class="cls-5" d="M58.29,50.25C54,50.25,54,57,58.29,57S62.61,50.25,58.29,50.25Z"/><path class="cls-5" d="M62.2,69.52a1.68,1.68,0,0,0,0,3.35A1.68,1.68,0,0,0,62.2,69.52Z"/><path class="cls-5" d="M70.15,63.45a1.68,1.68,0,0,0,0,3.35A1.68,1.68,0,0,0,70.15,63.45Z"/><path class="cls-5" d="M69.52,95.7c-4.31,0-4.31,6.7,0,6.7S73.84,95.7,69.52,95.7Z"/><path class="cls-5" d="M44.81,26.8c-4.31,0-4.32,6.7,0,6.7S49.13,26.8,44.81,26.8Z"/><path class="cls-5" d="M33.71,48.16c-5.39,0-5.4,8.38,0,8.38S39.11,48.16,33.71,48.16Z"/><path class="cls-7" d="M32.18,0A7.4,7.4,0,0,0,35.5,2.59c1.41.61,3,.91,4.67,1.62a4,4,0,0,1,1.88,2.16,6.54,6.54,0,0,0,1.13,1.92c.41.46,1.29.56,2.08,1A4.42,4.42,0,0,1,47,11.21a8.89,8.89,0,0,0,1.22,2,2.69,2.69,0,0,0,2.18.42c1.57-.13,3.35-.79,4-1.92.1-.16.13-.24.32-.52a2.49,2.49,0,0,1,.63-.58,2.25,2.25,0,0,1,1.69-.36,2.14,2.14,0,0,1,.79.31l.5.36a4.91,4.91,0,0,0,1,.58,6.29,6.29,0,0,0,2.36.24,5.07,5.07,0,0,1,3,.65l-1.6,1.47c0-.43-.79-.87-1.52-1s-1.65-.34-2.45-.58c-.42-.09-.83-.19-1.26-.26l-.63-.13a1.23,1.23,0,0,0-.38,0,2.61,2.61,0,0,0-.66.19,2.83,2.83,0,0,0-.73.65,4.6,4.6,0,0,1-2.55,1L50.47,14A3.11,3.11,0,0,1,48,13.53a9,9,0,0,1-1.42-2.06A3.83,3.83,0,0,0,44.91,10a6,6,0,0,0-1.11-.35,3.4,3.4,0,0,1-1.28-.58A7.32,7.32,0,0,1,40.92,7a2.52,2.52,0,0,0-1.37-1.35c-1.36-.42-3.08-.6-4.74-1.1A10.18,10.18,0,0,1,30.1,1.74Z"/><path class="cls-3" d="M3.89,50.34c.09.9.18,1.8.3,2.71h0C4.07,52.14,4,51.24,3.89,50.34Z"/><path class="cls-2" d="M3.89,50.34c0-.14,0-.28,0-.41C3.88,50.06,3.88,50.2,3.89,50.34Z"/><path class="cls-2" d="M3.71,47.61a2.71,2.71,0,0,1,0-.29A2.71,2.71,0,0,0,3.71,47.61Z"/><polygon class="cls-2" points="5.26 31.64 5.26 31.64 5.26 31.64 5.26 31.64"/><path class="cls-2" d="M4.19,53.05l-.06.46.06-.46Z"/><path class="cls-2" d="M3.64,44.89v0Z"/><path class="cls-8" d="M72.49,86.68c0,.29-.06.43-.15.5a1.18,1.18,0,0,1-.31.08,3.34,3.34,0,0,1-.62.06,5,5,0,0,1-1.13-.14,9.52,9.52,0,0,1-1.85-.66,8.73,8.73,0,0,0-3-1,1.73,1.73,0,0,0-.62.11,3,3,0,0,0-.64.29c-.17,0-.44.85-.88,1.35a2.74,2.74,0,0,1-1.91.94c-.65.07-1.24,0-1.81.09a8.69,8.69,0,0,0-1.69.36,2.41,2.41,0,0,1-1,0,4.83,4.83,0,0,1-.93-.28,9.21,9.21,0,0,0-1.62-.53,2,2,0,0,0-1.38.32c-.92.47-1.58,1.63-3.31,2.07a9.2,9.2,0,0,1-2.18.14,12.14,12.14,0,0,1-2.68-.49L47,86.83a4.16,4.16,0,0,0,2.43,1.32c.71.19,1.78-.6,3-1.1a3.54,3.54,0,0,1,2.09-.15,15.15,15.15,0,0,1,1.72.72,2.13,2.13,0,0,0,1.49.23,16.33,16.33,0,0,1,1.79-.41c1.2-.11,2.5-.12,2.9-.88a3.37,3.37,0,0,0,.32-.69c0-.13.09-.27.18-.47a1.8,1.8,0,0,1,.41-.55,4.49,4.49,0,0,1,.89-.6,3.33,3.33,0,0,1,1.09-.36,8.65,8.65,0,0,1,3.86.78,10.19,10.19,0,0,0,1.54.44,2.43,2.43,0,0,0,.64,0l.26,0c.1,0,.1-.16.4.33Z"/><path class="cls-4" d="M72.49,86.19c0,.29-.06.43-.15.5s-.21,0-.31.08a4.44,4.44,0,0,1-.62,0,5,5,0,0,1-1.13-.13A8.91,8.91,0,0,1,68.43,86a9,9,0,0,0-3-1,1.73,1.73,0,0,0-.62.11,3.56,3.56,0,0,0-.64.3c-.17,0-.44.84-.88,1.34a2.71,2.71,0,0,1-1.91,1c-.65.06-1.24,0-1.81.08a10.47,10.47,0,0,0-1.69.36,2.26,2.26,0,0,1-1,.06,5.66,5.66,0,0,1-.93-.28,10.23,10.23,0,0,0-1.62-.54,2,2,0,0,0-1.38.33c-.92.46-1.58,1.62-3.31,2.07a9.73,9.73,0,0,1-2.18.13,8.45,8.45,0,0,1-2.28-.35L47,86.34a4.15,4.15,0,0,0,2.43,1.31c.71.19,1.78-.6,3-1.09a3.39,3.39,0,0,1,2.09-.15,12.21,12.21,0,0,1,1.72.72,2.24,2.24,0,0,0,1.49.23A16.33,16.33,0,0,1,59.52,87c1.2-.11,2.5-.12,2.9-.88a3.46,3.46,0,0,0,.32-.7c0-.13.09-.27.18-.46a1.84,1.84,0,0,1,.41-.56,4.49,4.49,0,0,1,.89-.6,3.1,3.1,0,0,1,1.09-.35,8.65,8.65,0,0,1,3.86.77,10.31,10.31,0,0,0,1.54.45,2.39,2.39,0,0,0,.64,0,1.09,1.09,0,0,0,.26,0c.1,0,.1-.16.4.34Z"/><path class="cls-7" d="M47.69,87.13A3.86,3.86,0,0,0,48.58,85,4.69,4.69,0,0,0,47,81.6c-3.64-3.93-9-5.89-12.61-9.86-3.22-3.57-4.79-8.56-8.58-11.51a23.43,23.43,0,0,0-6.29-3.08l-5.6-2.06a2.62,2.62,0,0,0-2.06-.15c-.74.39-.9,1.37-1,2.21-.12,1.36.18,3.72.06,5.08-.24,2.73-1.71,4.91-1,7.57s2.94,4.4,4.38,6.59a43.05,43.05,0,0,0,5.73,7.47,43,43,0,0,0,8.21,5.77l6.16,3.63c1.84,1.09,2.9,1.83,4.87,1,1.76-.71,2.84-2.36,4.35-3.52A25.87,25.87,0,0,0,47.69,87.13Z"/><path class="cls-4" d="M29,91a12.12,12.12,0,0,0,6.59,1.76A6.06,6.06,0,0,0,40.89,89c1-2.94-1.11-6.07-3.62-7.91s-5.51-3-7.67-5.25a24.24,24.24,0,0,1-3.73-6,15.32,15.32,0,0,0-4.19-5.62c-3-2.22-7.69-1.7-8.5,2.46-.54,2.8,1.71,4.44,2.86,6.73,1.66,3.33,2.32,6.81,4.5,10A24.85,24.85,0,0,0,29,91Z"/><path class="cls-5" d="M35.54,92.73A12.12,12.12,0,0,1,29,91a24.85,24.85,0,0,1-8.41-7.61c-2.18-3.14-2.84-6.62-4.5-10-1.15-2.29-3.4-3.93-2.86-6.73a5.24,5.24,0,0,1,.24-.7,4.45,4.45,0,0,0-1.7,2.8c-.54,2.79,1.7,4.43,2.85,6.73,1.67,3.32,2.32,6.81,4.5,9.94a24.88,24.88,0,0,0,8.42,7.61,12,12,0,0,0,6.59,1.76,6.07,6.07,0,0,0,5.31-3.67A6.78,6.78,0,0,1,35.54,92.73Z"/><path class="cls-9" d="M73.83,14.74A5.75,5.75,0,0,0,70,12.49a2.55,2.55,0,0,0-.39,0,4.8,4.8,0,0,0-3.16,1.28A8.27,8.27,0,0,0,64,21.14l0,.13,0,.13a10.22,10.22,0,0,0,.19,3.7c.81,3.36,3.06,6.21,4.93,8.32A30.32,30.32,0,0,0,75.47,39,11.15,11.15,0,0,1,76.33,37c1.6-3,.71-6.33,1-9.59a23.13,23.13,0,0,1,1.92-6.87c.15-.33.32-.69.51-1A17.54,17.54,0,0,1,73.83,14.74Z"/><polygon class="cls-1" points="74.85 39.8 75.53 40.25 77.56 36.66 78.81 28.04 78.96 21.85 79.09 20.89 78.04 21.04 74.93 31.1 74.85 39.8"/><path class="cls-4" d="M75.74,88.17a32.85,32.85,0,0,1-1.28-3.07A19.24,19.24,0,0,1,74,79.94c0-2.2,1.8-2.29,2.84-3.88.57-.86,0-1.4.31-2.24s1.13-.92,1.66-1.5c1-1.1.63-3.35.32-4.63a51.82,51.82,0,0,0-1.66-5.75A23.93,23.93,0,0,0,76,59a25.08,25.08,0,0,1-1.64-3.28c-.5-1.32.26-1.87,1-3s.4-2.61,1.24-3.35c-.08-.09-.17,0-.25-.15.74-1.38.3-2.9.38-4.5.14-2.88.15-5.2,1.53-7.74,1.61-3,.71-6.33,1-9.59a21.25,21.25,0,0,1,1.36-5.48,2.37,2.37,0,0,0-1.54-1,22.29,22.29,0,0,0-1.76,6.47c-.29,3.26.6,6.64-1,9.59-1.38,2.54-1.39,4.86-1.53,7.74-.08,1.6.36,3.12-.39,4.5.09.12.18.06.25.15-.83.74-.59,2.35-1.23,3.35s-1.49,1.68-1,3A26.4,26.4,0,0,0,74.07,59a24,24,0,0,1,1.46,3,49.68,49.68,0,0,1,1.65,5.75c.32,1.28.69,3.53-.31,4.63-.53.58-1.39.61-1.66,1.5s.26,1.38-.31,2.24c-1,1.59-2.87,1.68-2.85,3.88a19.66,19.66,0,0,0,.47,5.16c.33,1,.84,2.06,1.29,3.07a28.47,28.47,0,0,1,1.08,3.93c1,3.66,3.66,7.76,2.26,11.63-.55,1.51-1.59,3.12-1.72,4.73a15.09,15.09,0,0,0,.65,3.92,45.11,45.11,0,0,1-8.66,1,44.87,44.87,0,0,0,10.59-1,15.09,15.09,0,0,1-.65-3.92c.14-1.61,1.18-3.22,1.72-4.73,1.41-3.87-1.21-8-2.25-11.63A28.49,28.49,0,0,0,75.74,88.17Z"/><path class="cls-9" d="M74.72,39.57A34,34,0,0,1,76,42.9c.21.91.33,1.84.6,2.69.73,2.31.64,4.81,1.58,7.14.4,1,.79,3.34,1.92,3.86,2.59,1.19,3-2.81,4-4.11.59-.82,1-.74,1.21-1.86s.35-2.34.68-3.46c.48-1.64,1.33-2.8,1.15-4.61-.08-.74-.41-1.43-.49-2.15,0-.41.07-.85,0-1.26-.21-1.08-1.33-1.79-1.77-2.8-1.19-2.68-.89-6-1.57-8.8-.32-1.36-.48-2.75-.83-4.09-.28-1.07-.92-3.42-2-4-2.09-1.09-3.45,1.56-4.16,2.94-1.18,2.3-2.7,4.71-3.22,7.28-.33,1.67.37,3.27.39,4.95,0,1.39-.38,2.72.57,3.86C74.37,39,74.69,39.12,74.72,39.57Z"/><path class="cls-10" d="M77.17,39.93l-2,.1a30.56,30.56,0,0,0-.42,4.66c0,.88.06,1.73,0,2.55h1.93c0-.82-.09-1.67,0-2.55A30.46,30.46,0,0,1,77.17,39.93Z"/><path class="cls-7" d="M74.8,44.69c.14-2.88.15-5.2,1.53-7.74,1.6-3,.71-6.33,1-9.59a21.68,21.68,0,0,1,1.25-5.19L66,11.59s-9.35.69-3.76,21.46c2.19,8.15,7.08,12.34,12.65,14.19C74.86,46.42,74.76,45.57,74.8,44.69Z"/><path class="cls-7" d="M69.15,33.42c-1.87-2.11-4.12-5-4.93-8.32A10.22,10.22,0,0,1,64,21.4l0-.13,0-.13a8.27,8.27,0,0,1,2.39-7.39,4.8,4.8,0,0,1,3.16-1.28,2.55,2.55,0,0,1,.39,0,5.75,5.75,0,0,1,3.86,2.25,17.54,17.54,0,0,0,5.93,4.71,7.68,7.68,0,0,1,1.12-1.66,15.83,15.83,0,0,1-5.5-4.31,7.78,7.78,0,0,0-5.23-3,6.73,6.73,0,0,0-5,1.73,10.09,10.09,0,0,0-3.09,9,12.42,12.42,0,0,0,.24,4.3c.92,3.79,3.36,6.89,5.38,9.17a31,31,0,0,0,7.4,6.36A13.57,13.57,0,0,1,75.47,39,30.32,30.32,0,0,1,69.15,33.42Z"/><path class="cls-5" d="M77.33,27.36a23.13,23.13,0,0,1,1.92-6.87,15.17,15.17,0,0,1,1-1.9,16.77,16.77,0,0,1-5.66-4.48c-2.21-2.71-5.76-3.75-8.83-1.12-2.6,2.22-3.33,6.09-2.52,9.41s2.88,6.19,5.15,8.75A29.3,29.3,0,0,0,76,37.57a5.86,5.86,0,0,1,.3-.62C77.93,34,77,30.62,77.33,27.36Z"/><path class="cls-4" d="M77.56,27.41a22.54,22.54,0,0,1,1.53-6.52A16.44,16.44,0,0,1,74.6,17c-2.21-2.71-5.76-3.74-8.83-1.12-2.6,2.22-3.33,6.09-2.52,9.41s2.88,6.19,5.15,8.75a30.91,30.91,0,0,0,6.82,6,10.47,10.47,0,0,1,1.24-2.93C78.07,34.14,77.26,30.66,77.56,27.41Z"/></g></g></svg>
