<svg xmlns="http://www.w3.org/2000/svg" viewBox="0 0 132.7 129.56"><defs><style>.cls-1{fill:#757575;}.cls-2{fill:#666;}.cls-3{fill:#828282;}.cls-4{fill:#353535;}.cls-5{fill:#565656;}.cls-6{fill:none;stroke:#828282;stroke-miterlimit:10;stroke-width:2px;}.cls-7{fill:#969696;}</style></defs><title>1Asset 7</title><g id="Layer_2" data-name="Layer 2"><g id="shield"><path class="cls-1" d="M132.2,58.66c-2.09-15.52-12.2-29.31-25.93-36.91-1.41-.78-4.24-2.22-7-3.57C89,4.41,71.57-3.88,53.93,1.83a47.44,47.44,0,0,0-18.45,11.3A108.15,108.15,0,0,1,21.06,24.55a34.93,34.93,0,0,0-5.81,5.06C4.73,41.07,2.37,55,4.19,69.19c0,.3-.08.57-.12.89A50.49,50.49,0,0,0,5.82,87a49.5,49.5,0,0,0,33.71,33.41c.17,0,.35.08.52.12,1.33,1,2.7,2,4.12,2.92,17,10,37,7.19,52.13-4.48a249.19,249.19,0,0,0,21.37-18.1C129.47,89.41,134.37,74.79,132.2,58.66Z"/><path class="cls-2" d="M96.3,119c4.65-3.59,9.35-7.37,13.88-11.29a48.42,48.42,0,0,1-26.87.11C67.65,103.26,55.13,91,39.51,86.33c-7.16-2.16-14.69-2.62-22.13-2.72-3.6,0-8.37-.46-12.26.6.21.94.43,1.87.7,2.8a46.52,46.52,0,0,0,2,5.45c10.27,3.39,19,7.42,25.32,16.89,2.34,3.54,4.21,7.51,6.49,11.08l.45.11c1.33,1,2.7,2,4.12,2.92C61.2,133.43,81.2,130.65,96.3,119Z"/><path class="cls-3" d="M47.69,103.27a3.86,3.86,0,0,0,.89-2.14A4.73,4.73,0,0,0,47,97.73c-3.64-3.92-9-5.88-12.61-9.85-3.22-3.57-4.79-8.56-8.58-11.51a23.14,23.14,0,0,0-6.29-3.08l-5.6-2.06a2.62,2.62,0,0,0-2.06-.15c-.74.39-.9,1.37-1,2.21-.12,1.36.18,3.72.06,5.07-.24,2.74-1.71,4.92-1,7.58s2.94,4.4,4.38,6.59A42.6,42.6,0,0,0,20.05,100a42.13,42.13,0,0,0,8.21,5.77l6.16,3.64c1.84,1.09,2.9,1.83,4.87,1,1.76-.71,2.84-2.36,4.35-3.52A26.4,26.4,0,0,0,47.69,103.27Z"/><path class="cls-2" d="M108.9,23.31C101,25.2,93.48,28.69,86.06,32.14c-8,3.73-16.22,7.45-25,9-7.87,1.36-15.92.88-23.9.66S21.08,41.62,13.46,44a34.25,34.25,0,0,0-8.2,3.78A55.63,55.63,0,0,0,4.19,69.19l-.09.64c3.08-1.74,6.24-4.39,8.69-5.24,7.51-2.58,15.84-2.45,23.55-.88C48,66.08,58.94,71.35,70.5,74.29a88.85,88.85,0,0,0,53.28-3.11,35.69,35.69,0,0,0,8.9-4.68,55.08,55.08,0,0,0-.48-7.84C130.25,44.15,121.28,31.15,108.9,23.31Z"/><path class="cls-1" d="M4.29,69.21S.25,66.56,0,64.82.46,44.87,7.72,32.58c1.66-2.73,9.52-1.93,9.52-1.93"/><path class="cls-4" d="M9.6,34.46S2.32,44,2.38,61.42c2,15.77,10.89-28.21,9-27.86A2.69,2.69,0,0,0,9.6,34.46Z"/><path class="cls-5" d="M5.89,61.42c0-12,3.4-20.24,5.55-24.23.26-2.27.28-3.7-.07-3.63a2.69,2.69,0,0,0-1.77.9S2.32,44,2.38,61.42c.66,5.1,2,3.93,3.52,0A.09.09,0,0,0,5.89,61.42Z"/><path class="cls-2" d="M61.92,30.54c18.7-7,25.9-12.36,37.38-12.36a48.59,48.59,0,0,0-10.08-10C83.46,9.91,73.73,13.3,58.45,20c-18.57,8.1-32,7.44-39.16,6a34.31,34.31,0,0,0-4,3.68S43.21,37.55,61.92,30.54Z"/><path class="cls-1" d="M.82,66.27a37.74,37.74,0,0,1,6.65,8.36c2.72,4.82,17.13-38.16,10.85-44.09S7,33.85,7,33.85l3.56-1.49,4.68-.21.61,1.28-.61,4.11-1,2.78-2.66,2.2L9.79,52,8.27,56.86,7,60.35,5.79,63.77,4.24,65.66l-2.46.1Z"/><path class="cls-4" d="M27.49,109.2A12.09,12.09,0,0,0,34.08,111a6.06,6.06,0,0,0,5.35-3.74c1-3-1.12-6.08-3.62-7.92s-5.52-3-7.68-5.25a24.2,24.2,0,0,1-3.72-6,15.54,15.54,0,0,0-4.19-5.62c-3-2.22-7.69-1.7-8.5,2.47-.54,2.79,1.7,4.43,2.85,6.72,1.67,3.33,2.32,6.82,4.5,10A24.88,24.88,0,0,0,27.49,109.2Z"/><path class="cls-6" d="M37.27,97.21c-2.5-1.85-5.51-3-7.67-5.25a24.24,24.24,0,0,1-3.73-6,15.32,15.32,0,0,0-4.19-5.62c-3-2.22-7.69-1.71-8.5,2.46a5.24,5.24,0,0,1,.24-.7,4.45,4.45,0,0,0-1.7,2.8c-.54,2.79,1.7,4.43,2.85,6.72,1.67,3.33,2.32,6.82,4.5,10a24.88,24.88,0,0,0,8.42,7.61A12.09,12.09,0,0,0,34.08,111a6.07,6.07,0,0,0,5.31-3.67h0a4.84,4.84,0,0,0,1.5-2.17C41.88,102.18,39.78,99.05,37.27,97.21Z"/><path class="cls-4" d="M29,107.11a12.2,12.2,0,0,0,6.59,1.76,6.06,6.06,0,0,0,5.35-3.75c1-2.94-1.11-6.07-3.62-7.91s-5.51-3-7.67-5.25a24.24,24.24,0,0,1-3.73-6,15.32,15.32,0,0,0-4.19-5.62c-3-2.22-7.69-1.71-8.5,2.46-.54,2.8,1.71,4.44,2.86,6.73,1.66,3.32,2.32,6.81,4.5,9.94A24.87,24.87,0,0,0,29,107.11Z"/><path class="cls-5" d="M35.54,108.87A12.2,12.2,0,0,1,29,107.11a24.87,24.87,0,0,1-8.41-7.62c-2.18-3.13-2.84-6.62-4.5-9.94-1.15-2.29-3.4-3.93-2.86-6.73a5.24,5.24,0,0,1,.24-.7,4.45,4.45,0,0,0-1.7,2.8c-.54,2.79,1.7,4.43,2.85,6.72,1.67,3.33,2.32,6.82,4.5,10a24.88,24.88,0,0,0,8.42,7.61A12.09,12.09,0,0,0,34.08,111a6.07,6.07,0,0,0,5.31-3.67A6.78,6.78,0,0,1,35.54,108.87Z"/><path class="cls-5" d="M93,87.72a5.77,5.77,0,0,0-4.85-.11,9.91,9.91,0,0,0-4.35,3.86,7,7,0,0,0-.33,7,6.32,6.32,0,0,0,7,3,9.94,9.94,0,0,0,4.43-2.8c1.54-1.46,2.92-3.12,2.9-5.38A5.77,5.77,0,0,0,93,87.72Z"/><path class="cls-6" d="M95.4,88.74a5.62,5.62,0,0,0-3.65-2.27,5.73,5.73,0,0,0-4.85-.12,9.85,9.85,0,0,0-4.34,3.87,7,7,0,0,0-.33,7,6.13,6.13,0,0,0,1.7,1.91,6.3,6.3,0,0,0,6.54,2.36,9.94,9.94,0,0,0,4.43-2.8c1.54-1.46,2.92-3.12,2.9-5.38A5.82,5.82,0,0,0,95.4,88.74Zm1.14,3.35a6,6,0,0,0-.09-1A6,6,0,0,1,96.54,92.09Zm-.65-2.56,0,0Zm.4,1c0-.09-.05-.19-.08-.28C96.24,90.36,96.26,90.46,96.29,90.55Zm-9.77,9.77-.13,0Zm1.11.11h0Z"/><path class="cls-5" d="M91.75,86.47a5.73,5.73,0,0,0-4.85-.12,9.85,9.85,0,0,0-4.34,3.87,7,7,0,0,0-.33,7,6.32,6.32,0,0,0,7,3,10.11,10.11,0,0,0,4.44-2.8c1.54-1.46,2.91-3.13,2.89-5.39A5.76,5.76,0,0,0,91.75,86.47Z"/><path class="cls-4" d="M95.4,88.74a5.73,5.73,0,0,1,1.14,3.35c0,2.26-1.35,3.93-2.89,5.39a10.11,10.11,0,0,1-4.44,2.8,6.35,6.35,0,0,1-5.28-1.11,6.3,6.3,0,0,0,6.54,2.36,9.94,9.94,0,0,0,4.43-2.8c1.54-1.46,2.92-3.12,2.9-5.38A5.82,5.82,0,0,0,95.4,88.74Z"/><path class="cls-6" d="M107.21,82.2h0a3,3,0,0,0-2.64-1.36c-3.59,0-4.19,4.62-1.81,6.18h0a3,3,0,0,0,2.65,1.36C109,88.38,109.59,83.76,107.21,82.2Zm.57,1.68v0ZM106.49,87l-.13.07Zm-.75.38-.23.07Zm-2.25,0,.14,0Zm3.57-1,.09-.14Zm.43-.73a.61.61,0,0,0,.05-.12A.61.61,0,0,1,107.49,85.68Z"/><path class="cls-5" d="M104.57,80.84c-4.31,0-4.32,6.7,0,6.7S108.89,80.84,104.57,80.84Z"/><path class="cls-4" d="M107.21,82.2c1.3,2,.43,5.34-2.64,5.34a3.2,3.2,0,0,1-1.81-.52,3,3,0,0,0,2.65,1.36C109,88.38,109.59,83.76,107.21,82.2Z"/><path class="cls-5" d="M58.29,66.39c-4.32,0-4.32,6.7,0,6.7S62.61,66.39,58.29,66.39Z"/><path class="cls-5" d="M62.2,85.66a1.68,1.68,0,0,0,0,3.35A1.68,1.68,0,0,0,62.2,85.66Z"/><path class="cls-5" d="M70.15,79.59a1.68,1.68,0,0,0,0,3.35A1.68,1.68,0,0,0,70.15,79.59Z"/><path class="cls-5" d="M69.52,111.84c-4.31,0-4.31,6.7,0,6.7S73.84,111.84,69.52,111.84Z"/><path class="cls-5" d="M112.25,63.88a1.68,1.68,0,0,0,0,3.35A1.68,1.68,0,0,0,112.25,63.88Z"/><path class="cls-5" d="M44.81,42.94c-4.31,0-4.32,6.7,0,6.7S49.13,42.94,44.81,42.94Z"/><path class="cls-5" d="M33.71,64.3c-5.39,0-5.4,8.37,0,8.37S39.11,64.3,33.71,64.3Z"/><path class="cls-5" d="M102.82,35c-3.23,0-3.24,5,0,5S106.06,35,102.82,35Z"/><path class="cls-5" d="M59.89,14c-5.39,0-5.4,8.37,0,8.37S65.29,14,59.89,14Z"/><path class="cls-1" d="M129.84,79.14a47.64,47.64,0,0,1,1.57,5c0,.63-6.81,14.09-9.84,16.37a12.91,12.91,0,0,1-8.07-.46l10.37-17.48Z"/><path class="cls-7" d="M32.18,16.45A7.4,7.4,0,0,0,35.5,19c1.41.61,3,.91,4.67,1.62a4,4,0,0,1,1.88,2.16,6.54,6.54,0,0,0,1.13,1.92c.41.46,1.29.56,2.08,1A4.47,4.47,0,0,1,47,27.66a8.89,8.89,0,0,0,1.22,2.05,2.73,2.73,0,0,0,2.18.43c1.57-.14,3.35-.8,4-1.93.1-.15.13-.24.32-.52a2.49,2.49,0,0,1,.63-.58,2.25,2.25,0,0,1,1.69-.36,2,2,0,0,1,.79.32l.5.35a4.91,4.91,0,0,0,1,.58,6.29,6.29,0,0,0,2.36.24,5,5,0,0,1,3,.66l-1.6,1.46c0-.43-.79-.87-1.52-1S60,29,59.17,28.74c-.42-.09-.83-.19-1.26-.26l-.63-.13a1.65,1.65,0,0,0-.38,0,2.61,2.61,0,0,0-.66.19,2.83,2.83,0,0,0-.73.65,4.52,4.52,0,0,1-2.55,1l-2.49.28A3.07,3.07,0,0,1,48,30a9,9,0,0,1-1.42-2.06,3.89,3.89,0,0,0-1.68-1.47,6.88,6.88,0,0,0-1.11-.35,3.4,3.4,0,0,1-1.28-.58,7.32,7.32,0,0,1-1.6-2.11,2.52,2.52,0,0,0-1.37-1.35c-1.36-.42-3.08-.6-4.74-1.1A10.94,10.94,0,0,1,29.94,18Z"/><path class="cls-4" d="M32.18,16.05a7.31,7.31,0,0,0,3.32,2.58c1.41.62,3,.91,4.67,1.63a4,4,0,0,1,1.88,2.16,6.67,6.67,0,0,0,1.13,1.92c.41.45,1.29.56,2.08,1A4.5,4.5,0,0,1,47,27.26a8.62,8.62,0,0,0,1.22,2,2.69,2.69,0,0,0,2.18.43c1.57-.13,3.35-.8,4-1.92.1-.16.13-.24.32-.52a2.49,2.49,0,0,1,.63-.58,2.25,2.25,0,0,1,1.69-.36,2.14,2.14,0,0,1,.79.31l.5.36a4.91,4.91,0,0,0,1,.58,6.29,6.29,0,0,0,2.36.24,5,5,0,0,1,3,.65L63.14,30c0-.43-.79-.88-1.52-1s-1.65-.34-2.45-.58c-.42-.09-.83-.19-1.26-.26L57.28,28a1.23,1.23,0,0,0-.38,0,2.61,2.61,0,0,0-.66.19,2.83,2.83,0,0,0-.73.65,4.6,4.6,0,0,1-2.55,1l-2.49.28A3.08,3.08,0,0,1,48,29.57a8.78,8.78,0,0,1-1.42-2.05,3.83,3.83,0,0,0-1.68-1.47,6,6,0,0,0-1.11-.35,3.4,3.4,0,0,1-1.28-.58A7.32,7.32,0,0,1,40.92,23a2.52,2.52,0,0,0-1.37-1.35c-1.36-.42-3.08-.6-4.74-1.1a10.23,10.23,0,0,1-4.68-2.84Z"/><path class="cls-7" d="M99.46,18.57h0l-.1,0a.67.67,0,0,1-.62-.38.67.67,0,0,1-.41-.5,5.24,5.24,0,0,1-2.19.86,23.18,23.18,0,0,0-3.37.65,2.09,2.09,0,0,0-.86.52,1.09,1.09,0,0,0-.18,1.1,4.33,4.33,0,0,1,.41,1.52,1.69,1.69,0,0,1-.67,1.29c-.41.32-.93.53-1.41.86a1.37,1.37,0,0,0-.56.73,2.27,2.27,0,0,0,0,.9.91.91,0,0,1-.66,1,4.16,4.16,0,0,0-.79.36,2,2,0,0,0-.7.82,8.35,8.35,0,0,0-.26,1.73,1,1,0,0,1-.14.3.53.53,0,0,1-.25.15,2.73,2.73,0,0,0-.84.31A3.57,3.57,0,0,0,85,32.39a9.28,9.28,0,0,1-.71,1.49,1.91,1.91,0,0,1-1.17,1l.06.29A2.26,2.26,0,0,0,84.52,34a9.8,9.8,0,0,0,.76-1.52,3.14,3.14,0,0,1,.79-1.34,3,3,0,0,1,.74-.2.94.94,0,0,0,.47-.25,1.9,1.9,0,0,0,.3-.4c.3-.56.51-1.12.71-1.48s.43-.51,1-.94a1.9,1.9,0,0,0,.6-.83,1.53,1.53,0,0,0-.05-1,1,1,0,0,1,.36-1.31c.45-.28,1-.47,1.48-.81a2.21,2.21,0,0,0,.92-1.55,4.59,4.59,0,0,0-.3-1.72c-.06-.26,0-.38.08-.46A1.69,1.69,0,0,1,93,20a21.15,21.15,0,0,1,3.27-.23,6.68,6.68,0,0,0,3.64-1.27l0,0A.67.67,0,0,1,99.46,18.57Z"/><path class="cls-4" d="M99.86,18.46a6.73,6.73,0,0,1-3.71,1.08,18.82,18.82,0,0,0-3.26.23,1.65,1.65,0,0,0-.61.24c-.11.08-.13.2-.07.46a4.42,4.42,0,0,1,.29,1.73,2.12,2.12,0,0,1-.92,1.54c-.48.34-1,.53-1.48.81a1,1,0,0,0-.35,1.31,1.53,1.53,0,0,1,0,1,1.93,1.93,0,0,1-.6.84c-.59.42-.82.56-1,.94s-.41.92-.72,1.47a1.85,1.85,0,0,1-.29.4,1,1,0,0,1-.47.26,2.7,2.7,0,0,0-.75.19,3.17,3.17,0,0,0-.78,1.35,10.16,10.16,0,0,1-.76,1.51,2.28,2.28,0,0,1-1.32,1.13L83,34.65a2,2,0,0,0,1.18-1,9.81,9.81,0,0,0,.71-1.5,3.71,3.71,0,0,1,.81-1.54,2.56,2.56,0,0,1,.85-.3.6.6,0,0,0,.25-.16.83.83,0,0,0,.14-.3,8.18,8.18,0,0,1,.25-1.72,2,2,0,0,1,.71-.83,5.46,5.46,0,0,1,.79-.36c.43-.2.74-.46.65-1a2.28,2.28,0,0,1,0-.9,1.27,1.27,0,0,1,.55-.73c.48-.33,1-.55,1.42-.87A1.64,1.64,0,0,0,92,22.16a4.14,4.14,0,0,0-.4-1.53,1.07,1.07,0,0,1,.17-1.1,2.2,2.2,0,0,1,.87-.51A20.46,20.46,0,0,1,96,18.37a4.25,4.25,0,0,0,2.54-1.16Z"/><path class="cls-7" d="M128.22,76.72a5.1,5.1,0,0,1-1.1.16,3.09,3.09,0,0,1-1-.21.7.7,0,0,0-.11-.27,4.37,4.37,0,0,0-.52-.72,2.94,2.94,0,0,0-1.69-1,2.89,2.89,0,0,0-1.91.33,5.87,5.87,0,0,0-1.18,1,9.39,9.39,0,0,1-1,.75,6.94,6.94,0,0,1-1.07.65,5.77,5.77,0,0,1-2.36.65,7.85,7.85,0,0,1-1.28,0,3.65,3.65,0,0,1-1.18-.29,16.64,16.64,0,0,1-2.25-1.38,4.5,4.5,0,0,0-2.68-.9,20.26,20.26,0,0,0-2.57.87,1.29,1.29,0,0,1-1.08-.4,1,1,0,0,1-.25-.53l-.17-.67a5,5,0,0,0-1.74-2.17c-1.48-1.12-3.18-1.88-4.59-2.88A4.53,4.53,0,0,1,97,68.06a2.81,2.81,0,0,1-.13-.45c0-.11,0,0,0-.07l0-.13A5.73,5.73,0,0,0,97.32,66a2.78,2.78,0,0,0-.74-2.12,6.9,6.9,0,0,1-.79-1,9.22,9.22,0,0,1-1.23-2l-2.94,1.55a13,13,0,0,0,2.15,2.21,8.3,8.3,0,0,0,1.09.93.54.54,0,0,1,.27.29A5.81,5.81,0,0,1,95,67a2.16,2.16,0,0,0,0,.53,1.52,1.52,0,0,0,.13.59,4.87,4.87,0,0,0,.4.79,6,6,0,0,0,2.42,1.9,51.64,51.64,0,0,1,5,2.19,3.77,3.77,0,0,1,1.7,1.87l.17.62a1.54,1.54,0,0,0,.33.68,1.61,1.61,0,0,0,1.36.54,17.39,17.39,0,0,1,2.56-.78,3.64,3.64,0,0,1,2.3,1,18.72,18.72,0,0,0,2.24,1.63,4.51,4.51,0,0,0,1.41.47,9.5,9.5,0,0,0,1.42.17,7.06,7.06,0,0,0,2.9-.48,9.4,9.4,0,0,0,1.32-.62,9.66,9.66,0,0,0,1.24-.81,4.33,4.33,0,0,1,.92-.68,1.14,1.14,0,0,1,.72-.06,1.79,1.79,0,0,1,1,1.32,1.32,1.32,0,0,0,0,.18,2.32,2.32,0,0,0,.35.33,5.75,5.75,0,0,0,1.52,1.09,7.48,7.48,0,0,0,1.86.56,7.34,7.34,0,0,1,2.25.73c.45-1.4.84-2.82,1.15-4.26A13.06,13.06,0,0,0,128.22,76.72Z"/><path class="cls-4" d="M123.44,76.22a1.34,1.34,0,0,1,.75.77,12.6,12.6,0,0,0,.91,1.26,5.34,5.34,0,0,0,2.27,1.19,28.11,28.11,0,0,1,3.19,1c.27-.69,1.1-4.26,1.1-4.26a13.06,13.06,0,0,0-3.46.26,6.66,6.66,0,0,1-1.09.16,3,3,0,0,1-1-.21,1.08,1.08,0,0,0-.11-.28,4.83,4.83,0,0,0-.52-.72,3,3,0,0,0-1.68-1,2.91,2.91,0,0,0-1.89.33,5.56,5.56,0,0,0-1.18,1,8.08,8.08,0,0,1-.95.75,10.78,10.78,0,0,1-1.06.65,5.76,5.76,0,0,1-2.35.64,7.59,7.59,0,0,1-1.26,0,3.59,3.59,0,0,1-1.18-.29,16.47,16.47,0,0,1-2.23-1.38,4.44,4.44,0,0,0-2.66-.9,20.46,20.46,0,0,0-2.55.87,1.25,1.25,0,0,1-1.07-.41,1,1,0,0,1-.25-.52l-.17-.68a5,5,0,0,0-1.72-2.16c-1.47-1.12-3.16-1.88-4.56-2.89a4.35,4.35,0,0,1-1.56-1.66,2.44,2.44,0,0,1-.13-.44c0-.11,0,0,0-.07l0-.13a6,6,0,0,0,.45-1.44,2.77,2.77,0,0,0-.73-2.12,6.24,6.24,0,0,1-.78-1,8.16,8.16,0,0,1-1.22-2l-2.92,1.54A12.74,12.74,0,0,0,94,64.33a8.23,8.23,0,0,0,1.08.93.54.54,0,0,1,.27.29,5.65,5.65,0,0,1-.18,1.16,2.28,2.28,0,0,0,0,.54,1.78,1.78,0,0,0,.13.59,4.77,4.77,0,0,0,.4.78,5.87,5.87,0,0,0,2.4,1.91A50.63,50.63,0,0,1,103,72.71a3.83,3.83,0,0,1,1.7,1.88l.16.62a1.51,1.51,0,0,0,.33.67,1.61,1.61,0,0,0,1.35.55,17.3,17.3,0,0,1,2.54-.79,3.68,3.68,0,0,1,2.28,1,16.83,16.83,0,0,0,2.23,1.62,4.18,4.18,0,0,0,1.39.48,9.37,9.37,0,0,0,1.41.17,7,7,0,0,0,2.88-.48,10.53,10.53,0,0,0,1.31-.62,8.94,8.94,0,0,0,1.23-.81,4.88,4.88,0,0,1,.91-.69A1.13,1.13,0,0,1,123.44,76.22Z"/><path class="cls-6" d="M93.77,44.81c-1-4-5-6.46-8.83-8-4.33-1.77-7.44-3-10.34-6.53-2.21-2.71-5.76-3.75-8.83-1.13A9.26,9.26,0,0,0,63,37.41a11.08,11.08,0,0,0,.21,4.06c.8,3.33,2.88,6.19,5.15,8.75a27.24,27.24,0,0,0,9.15,7.18c3.59,1.55,7.87,1.84,11.35.05s5.67-5.72,4.91-9.43A7.55,7.55,0,0,0,93.77,44.81Z"/><path class="cls-3" d="M95.28,46.18s.45,4.19,1.16,8.22a8.24,8.24,0,0,1-6.55,9.48c-9.83,2-23.56.69-27.69-14.69-5.59-20.77,3.63-21.58,3.63-21.58l18,15.12Z"/><path class="cls-5" d="M84.94,36.78c3.83,1.57,7.84,4,8.83,8,.94,3.79-1.4,7.92-4.87,9.71s-7.76,1.5-11.35-.05a27.24,27.24,0,0,1-9.15-7.18c-2.27-2.56-4.35-5.43-5.15-8.75s-.08-7.2,2.52-9.42c3.07-2.62,6.62-1.58,8.83,1.13C77.5,33.79,80.61,35,84.94,36.78Z"/><path class="cls-4" d="M84.94,39.71c3.83,1.57,7.84,4,8.83,8,.94,3.79-1.4,7.92-4.87,9.71S81.14,59,77.55,57.4a27.24,27.24,0,0,1-9.15-7.18c-2.27-2.56-4.35-5.42-5.15-8.75s-.08-7.19,2.52-9.41c3.07-2.62,6.62-1.59,8.83,1.12C77.5,36.73,80.61,37.94,84.94,39.71Z"/></g></g></svg>