<svg width="439.18" height="366.58" xmlns="http://www.w3.org/2000/svg" viewBox="0 0 219.59 183.29"><defs><style>.cls-1{fill:#991717;}.cls-2{fill:#d63031;}.cls-3{fill:#eb4d4b;}.cls-4{fill:#ffd168;}.cls-5,.cls-6{fill:#fff;}.cls-5{opacity:0.8;}.cls-7{fill:#353535;}.cls-8{fill:#262626;}.cls-9{fill:#666;}.cls-10{fill:none;stroke:#828282;stroke-miterlimit:10;stroke-width:2px;}.cls-11{fill:#565656;}.cls-12{fill:#828282;}.cls-13{fill:#757575;}</style></defs><title>1Asset 9</title><g id="Layer_2" data-name="Layer 2"><g id="explosion"><path class="cls-1" d="M143.93,97.29a2.21,2.21,0,0,0-.37,0,13.82,13.82,0,0,0-.68-6.87c9.44-4.94,8.57-21.39-2.66-24.17.34-6-3.34-12.25-11.08-12.25-.26,0-.5,0-.75,0-.81-5.47-4.78-10.38-11.91-10.38-16.09,0-16.12,25,0,25a13.1,13.1,0,0,0,1.91-.14,10.65,10.65,0,0,0,6.12,7.58,14.8,14.8,0,0,0,1.12,8.91c-8.48,5.61-6.33,22.15,6.51,22.15a10.89,10.89,0,0,0,9.56-4.94,2.73,2.73,0,0,0,2.23,1C147.8,103.29,147.8,97.29,143.93,97.29Z"/><path class="cls-1" d="M97.18,15.63a2.89,2.89,0,0,0-1.94,2.27,2.92,2.92,0,0,0,.28,1.81,3.72,3.72,0,0,0-2.73,3,3.62,3.62,0,0,0,.15,1.74A13.95,13.95,0,0,0,90.43,40.6a3.77,3.77,0,0,0-.9,1.87,3.71,3.71,0,0,0,.41,2.38,3.71,3.71,0,0,0-2,5.89A12.15,12.15,0,0,0,86,60.29a14,14,0,0,0,0,23Z"/><path class="cls-1" d="M85.14,105.7c-17.37,0-17.4,27,0,27S102.55,105.7,85.14,105.7Z"/><path class="cls-1" d="M69.81,113.54a8.51,8.51,0,0,0-5.44,1.78,9.88,9.88,0,0,0-8.44-6.69,7.86,7.86,0,0,0-6.74-7.15,14.12,14.12,0,0,0-.71-3.77c5.54-2.29,7.41-8.95,5.62-14.2,7.55-1.25,10.72-8.6,9.52-15,14-.15,14-22-.14-22-7.61,0-11.13,6.34-10.57,12.22-.36,0-.72-.06-1.1-.06C41.21,58.7,37.58,69.57,41,77c-5.88,1.65-8.28,7.82-7.17,13.15-12.63,3.22-11.55,24.58,3.35,24.58.4,0,.79,0,1.17,0a2.86,2.86,0,0,0,2.87,3.26,2.76,2.76,0,0,0,2.07-.83,7.23,7.23,0,0,0,.76.45c-1,6.08,2.51,13,10.47,13a10.13,10.13,0,0,0,7.81-3.28,8.15,8.15,0,0,0,7.52,4.28C81.39,131.54,81.41,113.54,69.81,113.54Z"/><path class="cls-2" d="M138.71,87.43l73.92-7.05a4.07,4.07,0,0,0-3.8-1.83,4,4,0,0,0-2.35,1A5.28,5.28,0,0,0,201.41,77a5.14,5.14,0,0,0-2.32.83,19.64,19.64,0,0,0-22.92,2.41,5.15,5.15,0,0,0-6,.87,5.23,5.23,0,0,0-8.73-.57,17.26,17.26,0,0,0-7.57-1,17.47,17.47,0,0,0-6.15,1.79,19.77,19.77,0,0,0-7.9-4.09,3.63,3.63,0,0,0-1.31-3.69,11.82,11.82,0,0,0,.61-4.47,12.23,12.23,0,0,0-7.66-10.51,11.45,11.45,0,0,0-5.57-.8,2.88,2.88,0,0,0-2.86-3.44c-2.93,0-3.63,3.44-2.12,5.11a12,12,0,0,0-2.68,18.42,19.58,19.58,0,0,0-2.69-.39A19.05,19.05,0,0,0,99.14,68,20.36,20.36,0,0,0,82.8,76.91l-.1,0a15.34,15.34,0,1,0-25.88-15c-.22,0-.44,0-.68,0-7.52,0-10.16,7.6-7.91,12.93a9.54,9.54,0,0,0-2.11,6.12A14.72,14.72,0,0,0,38.31,93.7a13.89,13.89,0,0,0,1,5.23c-3.85.64-3.65,6.94.64,6.94a3.17,3.17,0,0,0,2.93-1.69,14.46,14.46,0,0,0,9.9,4c.27,0,.54,0,.81,0a16.86,16.86,0,0,0,23.92,10.16,11.65,11.65,0,0,1,6.17-1.48c.25,0,.5,0,.77,0a9.17,9.17,0,0,0,1.19-.07,11,11,0,0,1,4.66.4,13.36,13.36,0,0,0,4.15.67,14,14,0,0,0,9.88-4.21,18.78,18.78,0,0,0,9.78,2.71c10.2,0,20-9,19.5-19.5,0-.4,0-.81-.09-1.21a3,3,0,0,0,.43,0c2.53,0,3.06-3.1,1.6-4.41A8,8,0,0,0,138.71,87.43Z"/><path class="cls-2" d="M51.36,42.25c1-2.64-.4-6.21-4-6.21a4.59,4.59,0,0,0-1.48.25,4.51,4.51,0,0,0-4.35-2.75c-5.18,0-6.19,6.46-3,9a5.15,5.15,0,0,0,.14,3.4c-2.28,5.32.33,12.94,7.89,12.94C56.1,58.87,57.73,46.45,51.36,42.25Z"/><path class="cls-2" d="M60.31,38.54c-3.22,0-3.22,5,0,5S63.53,38.54,60.31,38.54Z"/><path class="cls-2" d="M143.48,77.37c-2.58,0-2.58,4,0,4S146.05,77.37,143.48,77.37Z"/><path class="cls-2" d="M181.47,70.45c-4,0-4,6.23,0,6.23S185.48,70.45,181.47,70.45Z"/><path class="cls-2" d="M133.31,51.29a1,1,0,0,0,0,2A1,1,0,0,0,133.31,51.29Z"/><path class="cls-2" d="M121.48,36.87c-3.86,0-3.87,6,0,6S125.34,36.87,121.48,36.87Z"/><path class="cls-3" d="M105.64,29.54a.5.5,0,0,0,0,1A.5.5,0,0,0,105.64,29.54Z"/><path class="cls-4" d="M131.22,76.36a6.11,6.11,0,0,0-2.91-6.69,1.78,1.78,0,0,1-1-1.28,6.92,6.92,0,0,0-7.12-6.1c-7.71,0-9.27,9.56-4.66,13.41a1.75,1.75,0,0,1,.43,2.21,9.83,9.83,0,0,0-1.2,3.34,1.72,1.72,0,0,1-.88,1.2A5.77,5.77,0,0,0,111,87a1.8,1.8,0,0,1-1.82,1.58h0c-.27,0-.53,0-.78,0-.61-4.42-3.78-8.43-9.55-8.43-.31,0-.62,0-.91,0a1.74,1.74,0,0,1-.87-.14,10.11,10.11,0,0,0-3.79-.76c-.33,0-.66-.09-1-.11a10.18,10.18,0,0,0-6.31-2.28h-.37a8.08,8.08,0,0,0-1.78.14,1.72,1.72,0,0,1-1.5-.42A8.68,8.68,0,0,0,80,75.11a1.71,1.71,0,0,1-1-1.29,9.24,9.24,0,0,0-9.51-8.16c-8.25,0-11.21,8.22-8.88,14.12A1.78,1.78,0,0,1,59.71,82c-5.49,3-5.14,12.42,1,14.6A1.77,1.77,0,0,1,62,98.13c.34,5,3.7,9.66,10.11,9.66a10.24,10.24,0,0,0,5.25-1.33,1.82,1.82,0,0,1,1.93.07,9.84,9.84,0,0,0,10.6-.08,1.75,1.75,0,0,1,2.5.65,8.62,8.62,0,0,0,7.8,4.27,8.76,8.76,0,0,0,9-7.47,1.81,1.81,0,0,1,1.41-1.49c4.29-.76,6-5.09,5.16-8.71a6.83,6.83,0,0,0,1,.09,5.7,5.7,0,0,0,3.48-1.08,1.71,1.71,0,0,1,1.38-.32,10.43,10.43,0,0,0,2.22.23c8.6,0,11.15-9.39,7.65-15A1.82,1.82,0,0,1,131.22,76.36Z"/><path class="cls-4" d="M47.06,71.54l-.4,0a3.75,3.75,0,0,0-3.85-3.77c-4.55,0-5.08,6.25-1.57,7.69-1.43,3.83.5,9.06,5.82,9.06C55.42,84.54,55.44,71.54,47.06,71.54Z"/><path class="cls-4" d="M33.81,68.29a1.5,1.5,0,0,0,0,3A1.5,1.5,0,0,0,33.81,68.29Z"/><path class="cls-4" d="M57.43,50.79a4.88,4.88,0,0,0-2.5.63,2.75,2.75,0,0,0-2.75-2c-3.86,0-3.86,6,0,6a3,3,0,0,0,.44,0C52.43,58,54,60.79,57.43,60.79,63.87,60.79,63.88,50.79,57.43,50.79Z"/><path class="cls-4" d="M57.93,46.16a1,1,0,0,0,0,2A1,1,0,0,0,57.93,46.16Z"/><path class="cls-4" d="M149.35,90.86c1.15-3.23-.5-7.57-5-7.57-7.07,0-7.09,11,0,11a5.8,5.8,0,0,0,1.14-.11,2.78,2.78,0,0,0,2.86,2.52C151.9,96.7,152.22,91.77,149.35,90.86Z"/><path class="cls-4" d="M151.81,84.62a1,1,0,0,0,0,2A1,1,0,0,0,151.81,84.62Z"/><path class="cls-4" d="M111.81,35.2a2.21,2.21,0,0,0-.37,0,1,1,0,0,0-1-1,1,1,0,0,0-.33,1.94,2,2,0,0,0,1.66,3.06C114.38,39.2,114.39,35.2,111.81,35.2Z"/><path class="cls-4" d="M88.31,21.87a1.5,1.5,0,0,0,0,3A1.5,1.5,0,0,0,88.31,21.87Z"/><path class="cls-4" d="M96,20.37a.5.5,0,0,0,0,1A.5.5,0,0,0,96,20.37Z"/><path class="cls-4" d="M158.81,124.7a1.5,1.5,0,0,0,0,3A1.5,1.5,0,0,0,158.81,124.7Z"/><path class="cls-4" d="M151.14,78.87a.5.5,0,0,0,0,1A.5.5,0,0,0,151.14,78.87Z"/><path class="cls-4" d="M163.31,77.37a1.5,1.5,0,0,0,0,3A1.5,1.5,0,0,0,163.31,77.37Z"/><path class="cls-4" d="M215.1,77.63c-4.33.26-4.16,3.25.18,3S219.44,77.37,215.1,77.63Z"/><path class="cls-4" d="M68.68,127a1.5,1.5,0,0,0,0,3A1.5,1.5,0,0,0,68.68,127Z"/><path class="cls-4" d="M63.18,135.29a.5.5,0,0,0,0,1A.5.5,0,0,0,63.18,135.29Z"/><path class="cls-5" d="M110.51,92.84c1.95-4.15-.05-10.3-6-10.3a6.38,6.38,0,0,0-5.59,2.89A7.65,7.65,0,0,0,94.31,84a8.6,8.6,0,0,0-2.46.35,5,5,0,0,0-5-3.69,5.11,5.11,0,0,0-3.93,1.66c.82-4.47-1.7-9.66-7.57-9.66-8.41,0-10,10.69-4.62,14.59C69.53,91.88,72,97.54,78.14,97.54A8.37,8.37,0,0,0,81,97.05a3.54,3.54,0,0,0,1.24.63,3.9,3.9,0,0,0,6,.49,4.22,4.22,0,0,0,.75-.11,7.38,7.38,0,0,0,5.26,2,7.25,7.25,0,0,0,6.91-4.26,6.88,6.88,0,0,0,3.26.76,7.37,7.37,0,0,0,2.62-.47,2.25,2.25,0,0,0,2.21,1.47C112.05,97.54,112.45,93.91,110.51,92.84Z"/><path class="cls-6" d="M107.81,99a1,1,0,0,0,0,2A1,1,0,0,0,107.81,99Z"/><path class="cls-6" d="M115,102.87a.5.5,0,0,0,0,1A.5.5,0,0,0,115,102.87Z"/><path class="cls-5" d="M63.31,94.37c-3.86,0-3.87,6,0,6S67.18,94.37,63.31,94.37Z"/><path class="cls-5" d="M52.48,95.37a1.5,1.5,0,0,0,0,3A1.5,1.5,0,0,0,52.48,95.37Z"/><path class="cls-6" d="M46.31,107.2a.5.5,0,0,0,0,1A.5.5,0,0,0,46.31,107.2Z"/><path class="cls-5" d="M61.14,68c-3.21,0-3.22,5,0,5S64.37,68,61.14,68Z"/><path class="cls-1" d="M129.68,44.16a1.5,1.5,0,0,0,0,3A1.5,1.5,0,0,0,129.68,44.16Z"/><path class="cls-1" d="M127.81,27.29c-4.5,0-4.51,7,0,7S132.32,27.29,127.81,27.29Z"/><path class="cls-1" d="M137.43,27.16a1,1,0,0,0,0,2A1,1,0,0,0,137.43,27.16Z"/><path class="cls-1" d="M164.68,72c-2.57,0-2.57,4,0,4S167.26,72,164.68,72Z"/><path class="cls-1" d="M24.31,113.79a1,1,0,0,0,0,2A1,1,0,0,0,24.31,113.79Z"/><path class="cls-1" d="M28.31,120.16a.5.5,0,0,0,0,1A.5.5,0,0,0,28.31,120.16Z"/><path class="cls-1" d="M33.48,58.37a1.5,1.5,0,0,0,0,3A1.5,1.5,0,0,0,33.48,58.37Z"/><path class="cls-1" d="M77.14,140.7c-5.14,0-5.15,8,0,8S82.3,140.7,77.14,140.7Z"/><path class="cls-1" d="M58,134.7a1.5,1.5,0,0,0,0,3A1.5,1.5,0,0,0,58,134.7Z"/><path class="cls-1" d="M146.81,109.2a.5.5,0,0,0,0,1A.5.5,0,0,0,146.81,109.2Z"/><path class="cls-2" d="M141.31,73.2a1,1,0,0,0,0,2A1,1,0,0,0,141.31,73.2Z"/><path class="cls-2" d="M171.31,72.7c-2.57,0-2.58,4,0,4S173.89,72.7,171.31,72.7Z"/><path class="cls-2" d="M125.64,47c-3.21,0-3.22,5,0,5S128.87,47,125.64,47Z"/><path class="cls-2" d="M133.14,48a.5.5,0,0,0,0,1A.5.5,0,0,0,133.14,48Z"/><path class="cls-2" d="M68.31,31.87c-2.57,0-2.58,4,0,4S70.89,31.87,68.31,31.87Z"/><path class="cls-2" d="M33.81,46.87a1,1,0,0,0,0,2A1,1,0,0,0,33.81,46.87Z"/><path class="cls-2" d="M57,140.54a.5.5,0,0,0,0,1A.5.5,0,0,0,57,140.54Z"/><path class="cls-2" d="M84.31,147.7a1,1,0,0,0,0,2A1,1,0,0,0,84.31,147.7Z"/><path class="cls-2" d="M33.48,120.37a.5.5,0,0,0,0,1A.5.5,0,0,0,33.48,120.37Z"/><path class="cls-4" d="M52.31,140.79c-3.22,0-3.22,5,0,5S55.53,140.79,52.31,140.79Z"/><path class="cls-4" d="M47.06,157.79a.5.5,0,0,0,0,1A.5.5,0,0,0,47.06,157.79Z"/><path class="cls-4" d="M46.31,181.29a1,1,0,0,0,0,2A1,1,0,0,0,46.31,181.29Z"/><path class="cls-4" d="M45.31,174a.5.5,0,0,0,0,1A.5.5,0,0,0,45.31,174Z"/><path class="cls-4" d="M77.81,127.54a1,1,0,0,0,0,2A1,1,0,0,0,77.81,127.54Z"/></g><g id="shield"><path class="cls-7" d="M116.88,54.7c-.48,5.36,6.55,9.29,9,13.07,1.66,2.63,2.56,11.38,1.32,14.47-1.72,4.27-11.76,8.45-16.11,9.27-8.74,1.64-17.46-5.42-26.12-5.77-3.13-.13-7.5,1.6-10.08-1-2.82-2.8-2-9.61-3.42-13.32-2-5.18-4.91-7.95-5.17-13.69C66,53.24,64.73,49,67.52,45.17c2.66-3.66,5.23-6.73,9.3-8.53,3.45-1.52,5.22-1.29,8.64-.82,2,.28,3.35,0,5.16,1,4.36,2.41,5.84,7.61,8.17,11.81,2.6,4.68,5.69,7,10.9,6.93C112.62,55.46,113.38,53.65,116.88,54.7Z"/><path class="cls-8" d="M125,66.71,79.14,72.06l-3.22,13.5c2.61,1.36,6.28.07,9,.18,8.66.35,17.38,7.41,26.12,5.77,4.35-.82,14.39-5,16.11-9.27,1.24-3.09.34-11.84-1.32-14.47A11.79,11.79,0,0,0,125,66.71Z"/><path class="cls-7" d="M82.67,139s6.7,3.84,18.09,9.84c11.71-.33,21-9.84,21-9.84s4.62,2.18,8.45,0,11.92-18,11.92-18l-.52-5.87c2.23-3.73,1.85-16.76,1.85-16.76l-6.87-4.91-13.93,2.17-7.18,15.18-17.68,3.9L89.57,127l-13.77,7Z"/><path class="cls-7" d="M7.92,36.71l2.63.45,2.37-.45-2.37-2.46L10.08,34l-.76-.78h0A1.4,1.4,0,0,0,7.44,34L6.7,35.71Z"/><path class="cls-7" d="M139.88,53.08l-1.67,10.75,6,10.6,10.18,1.4s3.34-.92,12-10l2.75-6.12c-2.33-11.1-12-17.57-12-17.57L142.63,47Z"/><path class="cls-9" d="M157.14,42.12s9.67,6.47,12,17.57c-8.66,9.1-12,10-12,10L147,68.3l-6-10.6L142.63,47Z"/><path class="cls-9" d="M158.06,41.37s9.67,6.47,12,17.57c-8.67,9.1-12,10-12,10l-10.19-1.4-6-10.6,1.67-10.75Z"/><polygon class="cls-7" points="45.8 107.79 41.81 112.8 37.91 122.81 36.98 123.54 36.99 123.68 33.35 126.54 34.52 136.7 41.81 144.29 45.4 141.26 45.44 141.29 54.44 133.7 60.26 119.29 55.19 102.86 49.42 104.79 45.8 107.79"/><path class="cls-9" d="M116.17,48.16c-.46,4.88,6.32,8.46,8.64,11.91,1.6,2.39,2.47,10.37,1.27,13.18-1.65,3.89-11.34,7.7-15.54,8.44-8.44,1.5-16.84-4.93-25.21-5.25-3-.12-7.23,1.45-9.72-.88-2.73-2.55-2-8.75-3.3-12.13-1.88-4.72-4.74-7.24-5-12.48-.2-4.12-1.47-8,1.23-11.47,2.56-3.33,5-6.13,9-7.77,3.33-1.39,5-1.17,8.34-.75,1.93.25,3.23-.05,5,.86C95,34,96.47,38.76,98.72,42.58c2.51,4.27,5.48,6.4,10.52,6.32C112.06,48.85,112.79,47.2,116.17,48.16Z"/><path class="cls-7" d="M141.44,35.31,141,39,142.38,41l3.16-1.33,2.09-1.08,1.5-2.74-.42-3.42c-.42-3.42-3.25-1.33-3.5-1.25s-2.27,1.42-2.27,1.42Z"/><path class="cls-10" d="M158.2,52.75h0a3,3,0,0,0-2.65-1.36c-3.58,0-4.18,4.62-1.81,6.18h0a3,3,0,0,0,2.65,1.36C160,58.93,160.57,54.31,158.2,52.75Zm.56,1.68v0Zm-1.29,3.08-.13.07Zm-.75.38-.23.07Zm-2.24,0,.14,0ZM158,57l.1-.14Zm.43-.73.06-.12Z"/><path class="cls-11" d="M155.55,51.39c-4.31,0-4.32,6.7,0,6.7S159.87,51.39,155.55,51.39Z"/><path class="cls-7" d="M158.2,52.75c1.3,2,.42,5.34-2.65,5.34a3.22,3.22,0,0,1-1.81-.52,3,3,0,0,0,2.65,1.36C160,58.93,160.57,54.31,158.2,52.75Z"/><path class="cls-10" d="M116.17,48.16c-1-4-5-6.46-8.83-8-4.33-1.77-7.44-3-10.34-6.53-2.21-2.71-5.76-3.75-8.83-1.13a9.25,9.25,0,0,0-2.73,8.29,11.09,11.09,0,0,0,.21,4.06c.8,3.32,2.88,6.19,5.15,8.75A27.08,27.08,0,0,0,100,60.75a13.45,13.45,0,0,0,11.35.06c3.39-1.75,5.67-5.72,4.91-9.44A7.4,7.4,0,0,0,116.17,48.16Z"/><path class="cls-12" d="M117.31,48.91s.82,4.81,1.53,8.85a8.23,8.23,0,0,1-6.55,9.47c-9.83,2-23.56.69-27.69-14.68C79,31.77,88.23,31,88.23,31l18,15.12Z"/><path class="cls-11" d="M107.34,40.14c3.83,1.56,7.84,4,8.83,8,.94,3.8-1.4,7.93-4.87,9.72A13.45,13.45,0,0,1,100,57.82a27.11,27.11,0,0,1-9.15-7.18c-2.27-2.55-4.35-5.42-5.15-8.74s-.08-7.2,2.52-9.42c3.07-2.62,6.62-1.58,8.83,1.13C99.9,37.15,103,38.37,107.34,40.14Z"/><path class="cls-7" d="M107.34,43.07c3.83,1.56,7.84,4,8.83,8,.94,3.8-1.4,7.93-4.87,9.72A13.45,13.45,0,0,1,100,60.75a27.08,27.08,0,0,1-9.15-7.17c-2.27-2.56-4.35-5.43-5.15-8.75s-.08-7.2,2.52-9.42c3.07-2.62,6.62-1.58,8.83,1.13C99.9,40.08,103,41.3,107.34,43.07Z"/><polygon class="cls-7" points="131.83 42.78 131.32 37.7 134.17 35.71 136.23 36.49 136.59 40.15 134.41 43.42 132.36 44.58 131.83 42.78"/><polygon class="cls-9" points="131.52 39.71 131.01 34.63 133.86 32.63 135.92 33.42 136.29 37.07 134.1 40.35 132.05 41.51 131.52 39.71"/><polygon class="cls-7" points="154.12 99.34 157.56 101.81 157.23 104.68 155.62 105.53 153.15 103.76 152.31 100.6 152.71 98.69 154.12 99.34"/><polygon class="cls-9" points="156.2 100.84 159.64 103.3 159.31 106.17 157.7 107.02 155.23 105.25 154.39 102.09 154.79 100.18 156.2 100.84"/><polygon class="cls-7" points="84.68 152.58 87.11 157.06 85.25 160.01 83.05 160.08 81.3 156.85 82.05 152.98 83.49 151.13 84.68 152.58"/><polygon class="cls-9" points="86.15 155.29 88.58 159.78 86.72 162.72 84.52 162.8 82.77 159.57 83.52 155.7 84.96 153.84 86.15 155.29"/><polygon class="cls-7" points="22.43 120.1 18.31 123.1 15.14 121.65 14.78 119.47 17.75 117.31 21.68 117.55 23.71 118.73 22.43 120.1"/><polygon class="cls-9" points="19.93 121.92 15.81 124.92 12.64 123.47 12.28 121.29 15.25 119.13 19.18 119.36 21.22 120.55 19.93 121.92"/><polygon class="cls-7" points="66.48 25.12 68.06 20.99 71.05 20.55 72.34 21.96 71.2 24.93 68.23 26.62 66.19 26.73 66.48 25.12"/><polygon class="cls-9" points="67.43 22.62 69.01 18.48 72 18.04 73.3 19.45 72.16 22.43 69.19 24.12 67.15 24.22 67.43 22.62"/><path class="cls-9" d="M142.46,36.29l.48-3.72s2-1.34,2.27-1.42,3.08-2.17,3.5,1.25l.42,3.42L147,36.9l-3.16,1.33Z"/><path class="cls-7" d="M110.58,26.82l4.15,5.72,4.47.84,2.62-5.93,1.45-4.18-1.48-5.7-5-4.15c-5-4.14-6.19,2.38-6.42,2.82s-1.28,4.88-1.28,4.88Z"/><path class="cls-9" d="M113.25,26.84l-4.15-5.72s1-4.44,1.28-4.88,1.42-7,6.42-2.82l5,4.15-1.46,4.19-2.62,5.92Z"/><path class="cls-7" d="M71.35,158.11l1.35-8.49-3.11-4.56-7.34,2.84-4.85,2.35-3.62,6.17.73,7.85c.72,7.86,7.35,3.28,7.93,3.1s5.29-3.09,5.29-3.09Z"/><path class="cls-9" d="M69.08,155.79l-1.35,8.49s-4.71,2.92-5.29,3.09-7.21,4.76-7.93-3.1l-.73-7.85,4.85-2.34L66,151.24Z"/><path class="cls-7" d="M25.05,38.38l5.16,1.67,3.14-1.49L32.29,33.7l-1-3.24-3.5-2.86-5-.31c-5-.32-2.76,4.26-2.71,4.64s1.42,3.6,1.42,3.6Z"/><path class="cls-9" d="M26.72,37.2l-5.16-1.67s-1.36-3.22-1.42-3.6-2.26-5,2.71-4.64l5,.31,1,3.25,1.06,4.85Z"/><path class="cls-13" d="M25.46,51S16.06,57.29,15,60c-.64,1.67-3,3.22-4.78,4.18a6,6,0,0,0-2.84,3.4C6,72,3.21,81.17,4,84.75A19.13,19.13,0,0,0,8.21,93s3.25,17.73,4.75,19.63c2.25,1.66,19.5-9.59,19.5-9.59l2.06-23-7.41-5L30.5,67.2Z"/><path class="cls-7" d="M10.35,67.31S5.56,73.61,5.6,85c1.34,10.38,7.16-18.55,5.91-18.32A1.76,1.76,0,0,0,10.35,67.31Z"/><path class="cls-11" d="M7.91,85A33.44,33.44,0,0,1,11.55,69.1c.18-1.49.19-2.43,0-2.39a1.76,1.76,0,0,0-1.16.6S5.56,73.61,5.6,85c.43,3.36,1.34,2.59,2.32,0Z"/><path class="cls-9" d="M27.11,75.08,30.5,67.2,30.11,66a17.39,17.39,0,0,0-4.82.08c-3.22.53-7.69.78-8.9,4-.33,1.64-.39,4.19-.75,5.72-.63,2.68-.62,4.39-2.11,6.59,3.49.16,6.82-.94,10.28-1a26.69,26.69,0,0,1,9.63,1.79,6.76,6.76,0,0,1,.77.36L34.52,80Z"/><polygon class="cls-7" points="48.27 38.44 52.08 40.76 56.13 31.49 56.63 17.93 53.78 13.3 53.78 13.2 48.52 4.68 44.39 5.19 40.7 10.7 37.82 16.08 44.63 28.75 45.41 33.71 48.27 38.44"/><polygon class="cls-9" points="44.63 28.75 37.82 16.08 40.7 10.7 44.39 5.19 48.52 4.68 53.78 13.2 53.27 26.76 49.23 36.02 45.41 33.71 44.63 28.75"/><polygon class="cls-7" points="27.74 130 27.41 127.53 21.96 129 15.87 133.51 14.85 136.38 14.8 136.41 12.92 141.68 14.59 143.3 18.28 142.99 21.63 142.37 24.78 134.98 26.67 132.9 27.74 130"/><polygon class="cls-9" points="24.78 134.98 21.63 142.37 18.28 142.99 14.59 143.3 12.92 141.68 14.8 136.41 20.89 131.9 26.35 130.43 26.67 132.9 24.78 134.98"/><polygon class="cls-7" points="156.06 85.76 153.75 87.15 157.57 91.94 164.7 96.04 167.99 95.81 168.04 95.84 174.09 95.43 174.99 93.07 173.07 89.53 171 86.47 162.29 86.55 159.4 85.56 156.06 85.76"/><polygon class="cls-9" points="162.29 86.55 171 86.47 173.07 89.53 174.99 93.07 174.09 95.43 168.04 95.84 160.91 91.74 157.09 86.96 159.4 85.56 162.29 86.55"/><polygon class="cls-9" points="41.81 112.8 37.82 123.04 33.35 126.54 34.52 136.7 41.81 144.29 50.81 136.7 56.63 122.29 51.56 105.86 45.8 107.79 41.81 112.8"/><path class="cls-10" d="M47.48,123c-5.15,0-5.16,8,0,8S52.63,123,47.48,123Z"/><path class="cls-11" d="M47.48,123c-5.15,0-5.16,8,0,8S52.63,123,47.48,123Z"/><path class="cls-7" d="M50.1,124c1.6,2.33.56,6.42-3.12,6.42a3.69,3.69,0,0,1-2.63-1A3.62,3.62,0,0,0,47.48,131C51.5,131,52.37,126.17,50.1,124Z"/><path class="cls-11" d="M46.31,115.79a1.5,1.5,0,0,0,0,3A1.5,1.5,0,0,0,46.31,115.79Z"/><path class="cls-11" d="M26.31,91.54c-5.79,0-5.8,9,0,9S32.11,91.54,26.31,91.54Z"/><path class="cls-13" d="M141.6,115.08l.52,5.87S134,136.81,130.2,139s-8.45,0-8.45,0-9.28,9.51-21,9.84c-11.39-6-18.09-9.84-18.09-9.84l13.78-7,8.21-12.38,17.69-3.9,7.17-15.18,13.93-2.17S143.83,111.35,141.6,115.08Z"/><path class="cls-11" d="M113.29,126.92a5.79,5.79,0,0,0-4.86-.11,9.85,9.85,0,0,0-4.34,3.87,7,7,0,0,0-.33,7,6.31,6.31,0,0,0,7,3,9.88,9.88,0,0,0,4.44-2.8c1.54-1.46,2.92-3.12,2.89-5.38A5.76,5.76,0,0,0,113.29,126.92Z"/><path class="cls-10" d="M115.68,127.94a5.62,5.62,0,0,0-3.65-2.27,5.73,5.73,0,0,0-4.85-.12,9.93,9.93,0,0,0-4.35,3.87,7,7,0,0,0-.32,7,6,6,0,0,0,1.69,1.91,6.32,6.32,0,0,0,6.54,2.36,9.88,9.88,0,0,0,4.44-2.8c1.54-1.46,2.92-3.12,2.89-5.38A5.78,5.78,0,0,0,115.68,127.94Zm1.14,3.35a5,5,0,0,0-.1-.95A5,5,0,0,1,116.82,131.29Zm-.65-2.56,0,0Zm.4,1c0-.09,0-.19-.08-.28C116.52,129.56,116.54,129.66,116.57,129.75Zm-9.78,9.77-.13,0Zm1.12.12h0Z"/><path class="cls-11" d="M112,125.67a5.73,5.73,0,0,0-4.85-.12,9.93,9.93,0,0,0-4.35,3.87,7,7,0,0,0-.32,7,6.32,6.32,0,0,0,7,3,10,10,0,0,0,4.43-2.8c1.54-1.46,2.92-3.12,2.9-5.39A5.76,5.76,0,0,0,112,125.67Z"/><path class="cls-7" d="M115.68,127.94a5.8,5.8,0,0,1,1.14,3.35c0,2.27-1.36,3.93-2.9,5.39a10,10,0,0,1-4.43,2.8,6.33,6.33,0,0,1-5.29-1.11,6.32,6.32,0,0,0,6.54,2.36,9.88,9.88,0,0,0,4.44-2.8c1.54-1.46,2.92-3.12,2.89-5.38A5.78,5.78,0,0,0,115.68,127.94Z"/><path class="cls-9" d="M9.32,36.16,6.7,35.71,7.44,34a1.4,1.4,0,0,1,1.88-.72h0l2.38,2.46Z"/><path class="cls-7" d="M69.52.69l-.74,1.75-.07,1.72L70.8,2.91,71,2.62l.67-.4h0A1,1,0,0,0,71.5.8L70.41,0Z"/><path class="cls-9" d="M69.67,1.75,70.41,0,71.5.8a1,1,0,0,1,.2,1.42h0L69.6,3.47Z"/><path class="cls-7" d="M171.43,105.56l-1.54-1.11-1.67-.45.76,2.32.23.29.24.73h0a1,1,0,0,0,1.43.13l1-.89Z"/><path class="cls-9" d="M170.36,105.47l1.54,1.11-1,.89a1,1,0,0,1-1.43-.13h0l-.76-2.32Z"/><path class="cls-7" d="M218.21,76.08l-2.7,0-2.3.83L216,79l.5.14.88.67h0a1.42,1.42,0,0,0,1.77-1l.47-1.86Z"/><path class="cls-9" d="M216.89,76.84l2.7,0-.47,1.86a1.42,1.42,0,0,1-1.77,1h0l-2.76-2.09Z"/><path class="cls-7" d="M39.8,159.58l1.34-1.36.69-1.58-2.41.4-.31.18-.77.13h0a1,1,0,0,0-.34,1.4l.72,1.14Z"/><path class="cls-9" d="M40.05,158.53l-1.33,1.36L38,158.75a1,1,0,0,1,.34-1.4h0l2.41-.4Z"/><path class="cls-7" d="M32.66,117.5l1.73-1.76.9-2-3.12.51-.41.24-1,.17h0a1.3,1.3,0,0,0-.44,1.81l.93,1.49Z"/><path class="cls-9" d="M33,116.14l-1.74,1.77-.93-1.49a1.3,1.3,0,0,1,.44-1.81h0l3.13-.52Z"/><polygon class="cls-8" points="115.47 110.76 122.35 115.67 129.52 100.49 122.65 95.58 115.47 110.76"/><polygon class="cls-8" points="89.57 127.04 96.45 131.95 104.66 119.57 97.79 114.66 89.57 127.04"/><polygon class="cls-8" points="144.21 74.43 146.96 68.3 157.14 69.7 154.39 75.83 144.21 74.43"/><path class="cls-8" d="M66,151.24l3.62-6.18s-11.42,3.88-12.19,5.19l-3.62,6.17Z"/><path class="cls-4" d="M66.77,83.08c-.61-1.67-1.23-2.86-2.07-4.79a7,7,0,0,1-.63-3,15.34,15.34,0,0,0-9,.14,2.73,2.73,0,0,0-2.39-1.24,2.76,2.76,0,0,0-2.06.84,12.21,12.21,0,0,0-2.75-1.64,12.9,12.9,0,0,0-6.44-1,4.19,4.19,0,0,0-2.34-2.81,4.45,4.45,0,0,0-4.91,1.2,4,4,0,0,0-2.07-2.08,3.91,3.91,0,0,0-2.5-.19A15.15,15.15,0,0,0,22,61.18a15.07,15.07,0,0,0-10.23-.52,3.89,3.89,0,0,0-1.63-1.34,4.46,4.46,0,0,0-4.92,1.21A3.18,3.18,0,0,0,3.65,59,3.44,3.44,0,0,0,0,59.75L66.94,88.38a4.69,4.69,0,0,1,.84-1.95A23.06,23.06,0,0,0,66.77,83.08Z"/><path class="cls-4" d="M87.14,101.2a5.67,5.67,0,0,0-.73.06,7,7,0,0,1-1-.57,29.45,29.45,0,0,0-4.16,1c-2.08.65-3.56,1.32-6,2.23a9.69,9.69,0,0,1-3.76.63A16.59,16.59,0,0,0,72.79,118a14.64,14.64,0,0,0-4,4.93,13.62,13.62,0,0,0-1.32,7.27,5.08,5.08,0,0,0-3.53,2.57,4.78,4.78,0,0,0,1.37,5.59,4.88,4.88,0,0,0-2.63,2.29,4.2,4.2,0,0,0-.29,2.83,17.88,17.88,0,0,0-9.25,8.4,15.75,15.75,0,0,0-.89,11.57,4.52,4.52,0,0,0-1.69,1.81,4.77,4.77,0,0,0,1.38,5.6,3.69,3.69,0,0,0-2,1.75,3.65,3.65,0,0,0,.86,4.15L79.55,118.4a2.82,2.82,0,0,0,2-2.52,5,5,0,0,0,2,.41,4.74,4.74,0,0,0,4.81-5.22C93.55,109.88,93.15,101.2,87.14,101.2Z"/></g></g></svg>
