<svg width="436.9" height="335.32" xmlns="http://www.w3.org/2000/svg" viewBox="0 0 218.45 167.66"><defs><style>.cls-1{fill:#991717;}.cls-2{fill:#d63031;}.cls-3{fill:#eb4d4b;}.cls-4{fill:#ffd168;}.cls-5,.cls-6{fill:#fff;}.cls-5{opacity:0.8;}</style></defs><title>asteroid-part-Asset 6</title><g id="Layer_2" data-name="Layer 2"><g id="explosion"><path class="cls-1" d="M143.93,81.66a2.21,2.21,0,0,0-.37,0,13.78,13.78,0,0,0-.68-6.86c9.44-5,8.57-21.4-2.66-24.18.34-6-3.34-12.25-11.08-12.25-.26,0-.5,0-.75,0-.81-5.47-4.78-10.37-11.91-10.37-16.09,0-16.12,25,0,25a14.66,14.66,0,0,0,1.91-.14,10.63,10.63,0,0,0,6.12,7.57,14.8,14.8,0,0,0,1.12,8.91c-8.48,5.61-6.33,22.16,6.51,22.16a10.87,10.87,0,0,0,9.56-5,2.73,2.73,0,0,0,2.23,1C147.8,87.66,147.8,81.66,143.93,81.66Z"/><path class="cls-1" d="M97.18,0a2.91,2.91,0,0,0-1.66,4.08,3.74,3.74,0,0,0-2.73,3,3.67,3.67,0,0,0,.15,1.75A13.93,13.93,0,0,0,90.43,25a3.7,3.7,0,0,0-.49,4.26,3.7,3.7,0,0,0-2,5.88A12.15,12.15,0,0,0,86,44.66a14,14,0,0,0,0,23Z"/><path class="cls-1" d="M85.14,90.08c-17.37,0-17.4,27,0,27S102.55,90.08,85.14,90.08Z"/><path class="cls-1" d="M69.81,97.91a8.57,8.57,0,0,0-5.44,1.78A9.91,9.91,0,0,0,55.93,93a7.86,7.86,0,0,0-6.74-7.15,14,14,0,0,0-.71-3.76c5.54-2.29,7.41-9,5.62-14.21,7.55-1.24,10.72-8.6,9.52-15,14-.15,14-22-.14-22-7.61,0-11.13,6.34-10.57,12.22-.36,0-.72-.05-1.1-.05-10.6,0-14.23,10.86-10.85,18.26C35.08,63,32.68,69.16,33.79,74.5c-12.63,3.22-11.55,24.58,3.35,24.58.4,0,.79,0,1.17-.06a2.86,2.86,0,0,0,2.87,3.27,2.77,2.77,0,0,0,2.07-.84c.25.16.49.32.76.46-1,6.08,2.51,13,10.47,13a10.16,10.16,0,0,0,7.81-3.27,8.16,8.16,0,0,0,7.52,4.27C81.39,115.91,81.41,97.91,69.81,97.91Z"/><path class="cls-2" d="M138.71,71.8l73.92-7a4.09,4.09,0,0,0-3.8-1.83,4,4,0,0,0-2.35,1,5.28,5.28,0,0,0-5.07-2.64,5.14,5.14,0,0,0-2.32.83,19.68,19.68,0,0,0-22.92,2.41,5.28,5.28,0,0,0-2.88-.56,5.21,5.21,0,0,0-3.09,1.43,5.23,5.23,0,0,0-8.73-.57,17.22,17.22,0,0,0-13.72.8,19.77,19.77,0,0,0-7.9-4.09,3.64,3.64,0,0,0-1.31-3.69,11.79,11.79,0,0,0,.61-4.47,12.23,12.23,0,0,0-7.66-10.51,11.57,11.57,0,0,0-5.57-.8,2.88,2.88,0,0,0-2.86-3.44c-2.93,0-3.63,3.44-2.12,5.11a12,12,0,0,0-2.68,18.42,19.58,19.58,0,0,0-2.69-.39,19.08,19.08,0,0,0-16.43-9.39A20.36,20.36,0,0,0,82.8,61.28l-.1-.05A15.34,15.34,0,1,0,56.82,46.28c-.22,0-.44,0-.68,0-7.52,0-10.16,7.6-7.91,12.93a9.57,9.57,0,0,0-2.11,6.13,14.71,14.71,0,0,0-7.81,12.78,14,14,0,0,0,1,5.23c-3.85.63-3.65,6.93.64,6.93a3.17,3.17,0,0,0,2.93-1.69,14.42,14.42,0,0,0,9.9,4c.27,0,.54,0,.81,0a16.88,16.88,0,0,0,16.17,12,16.69,16.69,0,0,0,7.75-1.89,11.64,11.64,0,0,1,6.17-1.47l.77,0a9.17,9.17,0,0,0,1.19-.07,11,11,0,0,1,4.66.41,13.35,13.35,0,0,0,4.15.66A14,14,0,0,0,104.36,98a18.78,18.78,0,0,0,9.78,2.71c10.2,0,20-9,19.5-19.5,0-.4,0-.81-.09-1.21a2,2,0,0,0,.43,0c2.53,0,3.06-3.11,1.6-4.42A7.94,7.94,0,0,0,138.71,71.8Z"/><path class="cls-2" d="M51.36,26.62c1-2.64-.4-6.21-4-6.21a4.59,4.59,0,0,0-1.48.25,4.51,4.51,0,0,0-4.35-2.75c-5.18,0-6.19,6.46-3,9a5.15,5.15,0,0,0,.14,3.4c-2.28,5.32.33,12.94,7.89,12.94C56.1,43.24,57.73,30.83,51.36,26.62Z"/><path class="cls-2" d="M60.31,22.91c-3.22,0-3.22,5,0,5S63.53,22.91,60.31,22.91Z"/><path class="cls-2" d="M143.48,61.74c-2.58,0-2.58,4,0,4S146.05,61.74,143.48,61.74Z"/><path class="cls-2" d="M181.47,54.82c-4,0-4,6.23,0,6.23S185.48,54.82,181.47,54.82Z"/><path class="cls-2" d="M133.31,35.66a1,1,0,0,0,0,2A1,1,0,0,0,133.31,35.66Z"/><path class="cls-2" d="M121.48,21.24c-3.86,0-3.87,6,0,6S125.34,21.24,121.48,21.24Z"/><path class="cls-3" d="M105.64,13.91a.5.5,0,0,0,0,1A.5.5,0,0,0,105.64,13.91Z"/><path class="cls-4" d="M131.22,60.73A6.12,6.12,0,0,0,128.31,54a1.76,1.76,0,0,1-1-1.28,6.92,6.92,0,0,0-7.12-6.1c-7.71,0-9.27,9.56-4.66,13.42a1.73,1.73,0,0,1,.43,2.2,9.83,9.83,0,0,0-1.2,3.34,1.68,1.68,0,0,1-.88,1.2A5.79,5.79,0,0,0,111,71.33a1.79,1.79,0,0,1-1.82,1.58h0a6.49,6.49,0,0,0-.78.06c-.61-4.43-3.78-8.43-9.55-8.43a9,9,0,0,0-.91,0,2,2,0,0,1-.87-.14,9.91,9.91,0,0,0-3.79-.77c-.33-.05-.66-.09-1-.11a10.17,10.17,0,0,0-6.31-2.27h-.37a7,7,0,0,0-1.78.14,1.72,1.72,0,0,1-1.5-.42A8.48,8.48,0,0,0,80,59.48a1.71,1.71,0,0,1-1-1.29A9.24,9.24,0,0,0,69.43,50c-8.25,0-11.21,8.22-8.88,14.12a1.79,1.79,0,0,1-.84,2.19c-5.49,3-5.14,12.41,1,14.6A1.74,1.74,0,0,1,62,82.5c.34,5,3.7,9.66,10.11,9.66a10.34,10.34,0,0,0,5.25-1.32,1.8,1.8,0,0,1,1.93.06,9.84,9.84,0,0,0,10.6-.08,1.76,1.76,0,0,1,2.5.66,8.63,8.63,0,0,0,7.8,4.26,8.75,8.75,0,0,0,9-7.47,1.8,1.8,0,0,1,1.41-1.48c4.29-.77,6-5.1,5.16-8.72a6.16,6.16,0,0,0,4.52-1,1.68,1.68,0,0,1,1.38-.33,10.43,10.43,0,0,0,2.22.23c8.6,0,11.15-9.39,7.65-15A1.82,1.82,0,0,1,131.22,60.73Z"/><path class="cls-4" d="M47.06,55.91l-.4,0a3.75,3.75,0,0,0-3.85-3.77c-4.55,0-5.08,6.25-1.57,7.7-1.43,3.82.5,9,5.82,9C55.42,68.91,55.44,55.91,47.06,55.91Z"/><path class="cls-4" d="M33.81,52.66a1.5,1.5,0,0,0,0,3A1.5,1.5,0,0,0,33.81,52.66Z"/><path class="cls-4" d="M57.43,35.16a4.88,4.88,0,0,0-2.5.64,2.74,2.74,0,0,0-2.75-2c-3.86,0-3.86,6,0,6a3,3,0,0,0,.44,0c-.19,2.63,1.41,5.42,4.81,5.42C63.87,45.16,63.88,35.16,57.43,35.16Z"/><path class="cls-4" d="M57.93,30.54a1,1,0,0,0,0,2A1,1,0,0,0,57.93,30.54Z"/><path class="cls-4" d="M149.35,75.23c1.15-3.22-.5-7.57-5-7.57-7.07,0-7.09,11,0,11a5.8,5.8,0,0,0,1.14-.11,2.79,2.79,0,0,0,2.86,2.53C151.9,81.08,152.22,76.15,149.35,75.23Z"/><path class="cls-4" d="M151.81,69a1,1,0,0,0,0,2A1,1,0,0,0,151.81,69Z"/><path class="cls-4" d="M111.81,19.58a2.22,2.22,0,0,0-.37,0,.94.94,0,0,0-1-1,1,1,0,0,0-.33,1.93,2,2,0,0,0,1.66,3.07C114.38,23.58,114.39,19.58,111.81,19.58Z"/><path class="cls-4" d="M88.31,6.24a1.5,1.5,0,0,0,0,3A1.5,1.5,0,0,0,88.31,6.24Z"/><path class="cls-4" d="M96,4.74a.5.5,0,0,0,0,1A.5.5,0,0,0,96,4.74Z"/><path class="cls-4" d="M151.14,63.24a.5.5,0,0,0,0,1A.5.5,0,0,0,151.14,63.24Z"/><path class="cls-4" d="M163.31,61.74a1.5,1.5,0,0,0,0,3A1.5,1.5,0,0,0,163.31,61.74Z"/><path class="cls-4" d="M215.1,62c-4.33.26-4.16,3.25.18,3S219.44,61.74,215.1,62Z"/><path class="cls-4" d="M68.68,111.41a1.5,1.5,0,0,0,0,3A1.5,1.5,0,0,0,68.68,111.41Z"/><path class="cls-4" d="M63.18,119.66a.5.5,0,0,0,0,1A.5.5,0,0,0,63.18,119.66Z"/><path class="cls-5" d="M110.51,77.21c1.95-4.15-.05-10.3-6-10.3a6.38,6.38,0,0,0-5.59,2.89,7.65,7.65,0,0,0-4.58-1.39,8.6,8.6,0,0,0-2.46.35,5,5,0,0,0-5-3.68,5.1,5.1,0,0,0-3.93,1.65c.82-4.46-1.7-9.65-7.57-9.65-8.41,0-10,10.68-4.62,14.59C69.53,76.25,72,81.91,78.14,81.91A8.37,8.37,0,0,0,81,81.42a3.56,3.56,0,0,0,1.24.64,3.91,3.91,0,0,0,6,.48,3.47,3.47,0,0,0,.75-.11,7.38,7.38,0,0,0,5.26,2,7.25,7.25,0,0,0,6.91-4.25,7,7,0,0,0,3.26.75,7.16,7.16,0,0,0,2.62-.47,2.25,2.25,0,0,0,2.21,1.47C112.05,81.91,112.45,78.28,110.51,77.21Z"/><path class="cls-6" d="M107.81,83.41a1,1,0,0,0,0,2A1,1,0,0,0,107.81,83.41Z"/><path class="cls-6" d="M115,87.24a.5.5,0,0,0,0,1A.5.5,0,0,0,115,87.24Z"/><path class="cls-5" d="M63.31,78.74c-3.86,0-3.87,6,0,6S67.18,78.74,63.31,78.74Z"/><path class="cls-5" d="M52.48,79.74a1.5,1.5,0,0,0,0,3A1.5,1.5,0,0,0,52.48,79.74Z"/><path class="cls-6" d="M46.31,91.58a.5.5,0,0,0,0,1A.5.5,0,0,0,46.31,91.58Z"/><path class="cls-5" d="M61.14,52.41c-3.21,0-3.22,5,0,5S64.37,52.41,61.14,52.41Z"/><path class="cls-1" d="M129.68,28.54a1.5,1.5,0,0,0,0,3A1.5,1.5,0,0,0,129.68,28.54Z"/><path class="cls-1" d="M127.81,11.66c-4.5,0-4.51,7,0,7S132.32,11.66,127.81,11.66Z"/><path class="cls-1" d="M137.43,11.54a1,1,0,0,0,0,2A1,1,0,0,0,137.43,11.54Z"/><path class="cls-1" d="M24.31,98.16a1,1,0,0,0,0,2A1,1,0,0,0,24.31,98.16Z"/><path class="cls-1" d="M28.31,104.54a.5.5,0,0,0,0,1A.5.5,0,0,0,28.31,104.54Z"/><path class="cls-1" d="M33.48,42.74a1.5,1.5,0,0,0,0,3A1.5,1.5,0,0,0,33.48,42.74Z"/><path class="cls-1" d="M77.14,125.08c-5.14,0-5.15,8,0,8S82.3,125.08,77.14,125.08Z"/><path class="cls-1" d="M58,119.08a1.5,1.5,0,0,0,0,3A1.5,1.5,0,0,0,58,119.08Z"/><path class="cls-1" d="M146.81,93.58a.5.5,0,0,0,0,1A.5.5,0,0,0,146.81,93.58Z"/><path class="cls-2" d="M141.31,57.58a1,1,0,0,0,0,2A1,1,0,0,0,141.31,57.58Z"/><path class="cls-2" d="M171.31,57.08c-2.57,0-2.58,4,0,4S173.89,57.08,171.31,57.08Z"/><path class="cls-2" d="M125.64,31.41c-3.21,0-3.22,5,0,5S128.87,31.41,125.64,31.41Z"/><path class="cls-2" d="M133.14,32.41a.5.5,0,0,0,0,1A.5.5,0,0,0,133.14,32.41Z"/><path class="cls-2" d="M68.31,16.24c-2.57,0-2.58,4,0,4S70.89,16.24,68.31,16.24Z"/><path class="cls-2" d="M33.81,31.24a1,1,0,0,0,0,2A1,1,0,0,0,33.81,31.24Z"/><path class="cls-2" d="M57,124.91a.5.5,0,0,0,0,1A.5.5,0,0,0,57,124.91Z"/><path class="cls-2" d="M84.31,132.08a1,1,0,0,0,0,2A1,1,0,0,0,84.31,132.08Z"/><path class="cls-2" d="M33.48,104.74a.5.5,0,0,0,0,1A.5.5,0,0,0,33.48,104.74Z"/><path class="cls-4" d="M52.31,125.16c-3.22,0-3.22,5,0,5S55.53,125.16,52.31,125.16Z"/><path class="cls-4" d="M47.06,142.16a.5.5,0,0,0,0,1A.5.5,0,0,0,47.06,142.16Z"/><path class="cls-4" d="M46.31,165.66a1,1,0,0,0,0,2A1,1,0,0,0,46.31,165.66Z"/><path class="cls-4" d="M45.31,158.41a.5.5,0,0,0,0,1A.5.5,0,0,0,45.31,158.41Z"/><path class="cls-4" d="M77.81,111.91a1,1,0,0,0,0,2A1,1,0,0,0,77.81,111.91Z"/></g><g id="shield"><path class="cls-4" d="M66.77,67.45c-.61-1.67-1.23-2.86-2.07-4.78a7,7,0,0,1-.63-3,15.34,15.34,0,0,0-9,.14,2.72,2.72,0,0,0-2.39-1.23,2.75,2.75,0,0,0-2.06.83,12.21,12.21,0,0,0-2.75-1.64,12.9,12.9,0,0,0-6.44-.94A4.15,4.15,0,0,0,39.09,54a4.47,4.47,0,0,0-4.91,1.19,4,4,0,0,0-2.07-2.08,3.91,3.91,0,0,0-2.5-.19A15.19,15.19,0,0,0,22,45.55,15.07,15.07,0,0,0,11.78,45a4,4,0,0,0-1.63-1.34A4.48,4.48,0,0,0,5.23,44.9a3.22,3.22,0,0,0-1.58-1.55A3.46,3.46,0,0,0,0,44.12L66.94,72.76a4.67,4.67,0,0,1,.84-2A23.06,23.06,0,0,0,66.77,67.45Z"/><path class="cls-4" d="M87.14,85.58a5.71,5.71,0,0,0-.73,0,7,7,0,0,1-1-.57,29.45,29.45,0,0,0-4.16,1c-2.08.66-3.56,1.32-6,2.23A9.51,9.51,0,0,1,71.5,89a16.59,16.59,0,0,0,1.29,13.35,14.64,14.64,0,0,0-4,4.93,13.62,13.62,0,0,0-1.32,7.27,5.09,5.09,0,0,0-3.53,2.58,4.76,4.76,0,0,0,1.37,5.58A4.88,4.88,0,0,0,62.66,125a4.2,4.2,0,0,0-.29,2.83,17.9,17.9,0,0,0-9.25,8.41,15.73,15.73,0,0,0-.89,11.56,4.52,4.52,0,0,0-1.69,1.81,4.77,4.77,0,0,0,1.38,5.6,3.69,3.69,0,0,0-2,1.75,3.65,3.65,0,0,0,.86,4.15l28.72-58.31a2.81,2.81,0,0,0,2-2.51,5.2,5.2,0,0,0,2,.4,4.74,4.74,0,0,0,4.81-5.22C93.55,94.25,93.15,85.58,87.14,85.58Z"/></g></g></svg>
