<svg width="121.76" height="192.36" xmlns="http://www.w3.org/2000/svg" viewBox="0 0 60.88 96.18"><defs><style>.cls-1{fill:#262626;}.cls-2{fill:#666;}.cls-3{fill:#828282;}.cls-4{fill:#757575;}.cls-5{fill:#565656;}.cls-6,.cls-8{fill:none;}.cls-6{stroke:#828282;stroke-miterlimit:10;stroke-width:2px;}.cls-7{fill:#353535;}</style></defs><title>asteroid-part-Asset 4</title><g id="Layer_2" data-name="Layer 2"><g id="shield"><path class="cls-1" d="M60.75,50.4a2.78,2.78,0,0,0-.16-.4c.12-1.41-.82-3.53-1.19-4.37-.21-.49-.34-1.23-.58-1.69s-.75-.37-1.18-.73-.54-1.37-1-1.86c-.72-.77-1.61-1.2-1-2.61-.57-.54-1.74-.53-2.43-1-1-.71-1-1.92-1.77-2.87s-1.92-1.24-2.93-2c-.51-.4-1-.74-1.45-1.14s-.48-.51-.62-1.21a7.24,7.24,0,0,0-.66-1.6,7.46,7.46,0,0,1-.89-2.75c0-1,.38-1.73,0-2.7a11.62,11.62,0,0,0-2.42-3,6.81,6.81,0,0,1-1.89-3.36A2.38,2.38,0,0,1,41,14.56c.52-.7.56-.66.27-1.49a10.88,10.88,0,0,0-1.66-3.36,13.92,13.92,0,0,1-2.18-2.45,15,15,0,0,1-.8-3.17c-.26-.83-1.05-.94-1.4-1.68-.22-.46,0-1.08-.33-1.45s-1.1-.37-1.45-1c-.35.09-.71.18-1.06.25-2,.42-3.89,1.25-5.87,1.6-2.46.42-5,0-7.43.39-.86.14-1.73.5-2.65.62l-.62.07c.75,2.79-.51,6.21-3.77,6.9.1.54.22,1.09.39,1.69,1.28,4.59,3.67,9,5.45,13.43,1.36,3.38,1.6,7.2,2.2,10.77s2.64,6.8,4.63,9.71,4.6,4.19,7.69,5.69C37.4,53.53,43.23,55.8,48.8,56c3.44.09,6.21-1.13,9.37-2.28a4.86,4.86,0,0,0,2.45-1.41A2.37,2.37,0,0,0,60.75,50.4Z"/><path class="cls-2" d="M39.74,46.67a4.49,4.49,0,0,0-.44-.17c-1.43-.36-3.24,1.17-4.46-.18-.46-.51-.4-1.18-.65-1.77s-.76-.82-1.25-1.37a12.12,12.12,0,0,0-1.2-1.63,16.87,16.87,0,0,0-1.88-1.08A4.16,4.16,0,0,1,27.75,38a24.38,24.38,0,0,1-.45-3c-.11-1-1.13-2.06-.76-2.88.22-.51.9-.83,1.19-1.32a9,9,0,0,0,.43-1.36c.71-1.81,1.55-3.37,1.41-5.4s.15-4,.06-6.09c-.06-1.22.29-2.47,0-3.63s-.77-2.54-1.13-3.78a7.48,7.48,0,0,0-1.61-2.25,10.22,10.22,0,0,0-1.49-1.45,3.15,3.15,0,0,1-1.51-.6c-.25-.24-.39-.65-.66-.91a5.35,5.35,0,0,0-1.38-.72c-1.44-.73-1.59-.3-2.95-1.41.38.12-.43-.5-.05-.86-1.47.5-2.94,1-4.43,1.44a14.12,14.12,0,0,0-.89,1.39,23,23,0,0,0-2.62,6.63c-.63,3.21-.09,6.66-2,9.43-1.64,2.39-1.89,4.69-2.33,7.55-.24,1.57,0,3.13-.85,4.43.08.13.17.08.24.18-.91.64-.84,2.26-1.58,3.2s-1.66,1.51-1.3,2.87a26,26,0,0,0,1.29,3.44A89,89,0,0,0,39.74,46.67Z"/><path class="cls-3" d="M28.81,24.57l-.63-8.85-10.7-4.07L12.71,6.72a21.28,21.28,0,0,0-1.78,5c-.63,3.21-.09,6.66-2,9.43-1.64,2.39-1.89,4.69-2.33,7.55-.13.86-.11,1.72-.21,2.53a30,30,0,0,0,14.91,2.06A8.25,8.25,0,0,0,28.81,24.57Z"/><path class="cls-4" d="M57.81,51.59c-.24-.07-.46-.1-.71-.16-1-.22-.56-.19-.91-1.07-1,.48-1.14.68-1.52-.58-.3-1-.67-1.74-1.84-1.69s-2.25,1.06-3.29,1.4a13.15,13.15,0,0,1-4.3.71c-2.48-.22-3.44-2.71-5.5-3.53A89,89,0,0,1,4.41,42.85,22.33,22.33,0,0,1,5.55,46a50.92,50.92,0,0,1,1,5.89c.18,1.3.32,3.58-.79,4.56-.6.53-1.45.47-1.81,1.32s.11,1.4-.54,2.21C2.26,61.4.43,61.3.23,63.5a18.69,18.69,0,0,0-.07,5.17c.22,1,.62,2.14,1,3.19a29.46,29.46,0,0,1,.67,4c.66,3.75,2.83,8.09,1,11.79-.7,1.45-1.91,2.94-2.2,4.53a15.13,15.13,0,0,0,.23,4A50.73,50.73,0,0,0,22,88.79,249.05,249.05,0,0,0,45.1,73,48.35,48.35,0,0,0,60.74,52.19C59.84,52,58.74,51.84,57.81,51.59Z"/><path class="cls-2" d="M36.94,79A48.47,48.47,0,0,1,10.2,76.32,59.89,59.89,0,0,1,1,71.52a3.38,3.38,0,0,0,.11.34,29.46,29.46,0,0,1,.67,4c.66,3.75,2.83,8.09,1,11.79-.7,1.45-1.91,2.94-2.2,4.53a15.13,15.13,0,0,0,.23,4A50.73,50.73,0,0,0,22,88.79C27,85.7,32,82.43,36.94,79Z"/><path class="cls-5" d="M21.93,57.36a5.75,5.75,0,0,0-4.81-.62,9.84,9.84,0,0,0-4.72,3.4,7,7,0,0,0-1.06,7A6.31,6.31,0,0,0,18,70.83a10.05,10.05,0,0,0,4.71-2.32c1.68-1.3,3.22-2.81,3.43-5.06A5.75,5.75,0,0,0,21.93,57.36Z"/><path class="cls-6" d="M24.21,58.62A5.63,5.63,0,0,0,20.82,56,5.78,5.78,0,0,0,16,55.36a9.84,9.84,0,0,0-4.72,3.4,7,7,0,0,0-1.06,7,6.24,6.24,0,0,0,1.49,2.08,6.31,6.31,0,0,0,6.26,3,10.05,10.05,0,0,0,4.71-2.32c1.68-1.3,3.22-2.81,3.43-5.06A5.8,5.8,0,0,0,24.21,58.62ZM25,62.07a6.15,6.15,0,0,0,0-1A6.15,6.15,0,0,1,25,62.07Zm-.39-2.61s0,0,0-.06S24.6,59.44,24.61,59.46Zm.3,1c0-.09,0-.19-.05-.29C24.88,60.32,24.89,60.42,24.91,60.51Zm-10.74,8.7-.13,0Zm1.1.23.3,0Z"/><path class="cls-5" d="M20.82,56A5.78,5.78,0,0,0,16,55.36a9.84,9.84,0,0,0-4.72,3.4,7,7,0,0,0-1.06,7,6.32,6.32,0,0,0,6.64,3.73,10.06,10.06,0,0,0,4.7-2.32c1.68-1.3,3.22-2.81,3.44-5.06A5.77,5.77,0,0,0,20.82,56Z"/><path class="cls-7" d="M24.21,58.62A5.84,5.84,0,0,1,25,62.07c-.22,2.25-1.76,3.76-3.44,5.06a10.06,10.06,0,0,1-4.7,2.32,6.34,6.34,0,0,1-5.15-1.65,6.31,6.31,0,0,0,6.26,3,10.05,10.05,0,0,0,4.71-2.32c1.68-1.3,3.22-2.81,3.43-5.06A5.8,5.8,0,0,0,24.21,58.62Z"/><path class="cls-6" d="M36.64,53.34h0a3,3,0,0,0-2.49-1.62c-3.57-.38-4.64,4.15-2.44,6h0A3,3,0,0,0,34.2,59.3C37.76,59.67,38.84,55.14,36.64,53.34ZM37,55.07v0ZM35.42,58l-.14.07Zm-.79.3-.23.05Zm-2.23-.2.13.06ZM36,57.51l.11-.13Zm.51-.68.06-.12Z"/><path class="cls-5" d="M34.15,51.72c-4.29-.45-5,6.21-.7,6.66S38.44,52.16,34.15,51.72Z"/><path class="cls-7" d="M36.64,53.34c1.09,2.08-.14,5.36-3.19,5a3.28,3.28,0,0,1-1.74-.7A3,3,0,0,0,34.2,59.3C37.76,59.67,38.84,55.14,36.64,53.34Z"/><path class="cls-4" d="M59.46,52.65a46.15,46.15,0,0,1,1,5.08C60.44,58.35,52.27,71,49,73a12.93,12.93,0,0,1-8-1.29L53.17,55.38Z"/><path class="cls-8" d="M10.93,11.75c-.63,3.21-.09,6.66-2,9.43a11.23,11.23,0,0,0-1.07,2,19.43,19.43,0,0,0,2.33,1.57,12.41,12.41,0,0,0,10.42,1.17,8.05,8.05,0,0,0,5.24-7.84l0-.2.05-.19a6.22,6.22,0,0,0,.26-2.77c-.41-3-2.91-5.73-7.42-8.15l-.28-.15c-1.55-.83-3-1.6-4.29-2.46-.21.33-.42.67-.61,1A23,23,0,0,0,10.93,11.75Z"/><path class="cls-3" d="M28.13,14.61h0C27.62,10.9,24.85,7.75,19.67,5l-.28-.15c-1.45-.78-2.75-1.48-3.93-2.24a8.41,8.41,0,0,0-1.3,1.54c1.32.86,2.74,1.63,4.29,2.46l.28.15c4.51,2.42,7,5.16,7.42,8.15a6.22,6.22,0,0,1-.26,2.77l-.05.19,0,.2a8.05,8.05,0,0,1-5.24,7.84A12.41,12.41,0,0,1,10.2,24.72a19.43,19.43,0,0,1-2.33-1.57,14.36,14.36,0,0,0-.64,2,18.72,18.72,0,0,0,2,1.29,15.86,15.86,0,0,0,6.21,2,12.71,12.71,0,0,0,5.92-.72c4-1.58,6.8-5.72,6.51-9.71A8.13,8.13,0,0,0,28.13,14.61Z"/><path class="cls-5" d="M27.14,14.75c-.57-4.09-4.3-6.94-7.94-8.89C17.55,5,16.08,4.19,14.76,3.33a12.79,12.79,0,0,0-1.21,1.79,23,23,0,0,0-2.62,6.63c-.63,3.21-.09,6.66-2,9.43a6.22,6.22,0,0,0-.36.59c.46.32.94.63,1.43.91,3.41,1.92,7.64,2.65,11.28,1.23S27.68,18.62,27.14,14.75Z"/><path class="cls-7" d="M26.84,17.67c-.57-4.09-4.3-7-7.95-8.9a44.65,44.65,0,0,1-5.53-3.28,22.47,22.47,0,0,0-2.43,6.26c-.63,3.21-.09,6.66-2,9.43a10.63,10.63,0,0,0-1.42,2.95,18.12,18.12,0,0,0,2.19,1.46c3.4,1.92,7.63,2.66,11.28,1.24S27.38,21.54,26.84,17.67Z"/></g></g></svg>
