<svg id="Layer_1" data-name="Layer 1" xmlns="http://www.w3.org/2000/svg" viewBox="0 0 1438.91 1017.42"><defs><style>.cls-1{fill:#1db4db;}.cls-2{fill:#fff;}.cls-3{fill:#e0cc36;}.cls-4{fill:#ea6a2b;}</style></defs><title>1Artboard 1 copy</title><path class="cls-1" d="M532.43,150a1.71,1.71,0,0,0,0,3.42A1.71,1.71,0,0,0,532.43,150Z"/><path class="cls-1" d="M734.07,168.49c-4.4,0-4.4,6.83,0,6.83S738.48,168.49,734.07,168.49Z"/><path class="cls-1" d="M762.88,5.13c-6.6,0-6.61,10.25,0,10.25S769.49,5.13,762.88,5.13Z"/><path class="cls-1" d="M820.49,190.4a1.71,1.71,0,0,0,0,3.42A1.71,1.71,0,0,0,820.49,190.4Z"/><path class="cls-1" d="M935.72,349.49c-5.5,0-5.51,8.55,0,8.55S941.23,349.49,935.72,349.49Z"/><path class="cls-1" d="M1137.36,393.32a.86.86,0,0,0,0,1.71A.86.86,0,0,0,1137.36,393.32Z"/><path class="cls-2" d="M647.65,210.61a1.71,1.71,0,0,0,0,3.42A1.71,1.71,0,0,0,647.65,210.61Z"/><path class="cls-2" d="M561.23,46.39c-5.5,0-5.5,8.55,0,8.55S566.74,46.39,561.23,46.39Z"/><path class="cls-2" d="M446,836.15c-3.3,0-3.31,5.13,0,5.13S449.31,836.15,446,836.15Z"/><path class="cls-3" d="M1223.78,229.11c-4.4,0-4.4,6.83,0,6.83S1228.19,229.11,1223.78,229.11Z"/><path class="cls-2" d="M13.91,27.9c-3.3,0-3.3,5.12,0,5.12S17.22,27.9,13.91,27.9Z"/><path class="cls-4" d="M1195,472.44c-3.3,0-3.31,5.12,0,5.12S1198.28,472.44,1195,472.44Z"/><path class="cls-3" d="M1339,572.61c-4.4,0-4.41,6.84,0,6.84S1343.41,572.61,1339,572.61Z"/><path class="cls-3" d="M1396.62,371.41c-3.3,0-3.3,5.12,0,5.12S1399.93,371.41,1396.62,371.41Z"/><path class="cls-3" d="M42.72,431.17c-4.4,0-4.41,6.84,0,6.84S47.12,431.17,42.72,431.17Z"/><path class="cls-3" d="M129.14,65.75c-6.6,0-6.61,10.25,0,10.25S135.75,65.75,129.14,65.75Z"/><path class="cls-3" d="M330.78,87.66c-4.4,0-4.4,6.84,0,6.84S335.19,87.66,330.78,87.66Z"/><path class="cls-3" d="M417.2,109.58a1.71,1.71,0,0,0,0,3.42A1.71,1.71,0,0,0,417.2,109.58Z"/><path class="cls-3" d="M878.1,272.08a.86.86,0,0,0,0,1.71A.86.86,0,0,0,878.1,272.08Z"/><path class="cls-3" d="M849.3,128.07c-4.4,0-4.41,6.84,0,6.84S853.7,128.07,849.3,128.07Z"/><path class="cls-3" d="M993.33,251.88a.86.86,0,0,0,0,1.71A.86.86,0,0,0,993.33,251.88Z"/><path class="cls-3" d="M676.46,997c-4.4,0-4.41,6.83,0,6.83S680.87,997,676.46,997Z"/><path class="cls-3" d="M273.17,958.24a1.71,1.71,0,0,0,0,3.42A1.71,1.71,0,0,0,273.17,958.24Z"/><path class="cls-1" d="M1050.94,797.45a.86.86,0,0,0,0,1.71A.86.86,0,0,0,1050.94,797.45Z"/><path class="cls-1" d="M1166.17,675.35a1.71,1.71,0,0,0,0,3.42A1.71,1.71,0,0,0,1166.17,675.35Z"/><path class="cls-1" d="M1108.56,696.42a.85.85,0,0,0,0,1.7A.85.85,0,0,0,1108.56,696.42Z"/><path class="cls-1" d="M1281.4,635.8a.86.86,0,0,0,0,1.71A.86.86,0,0,0,1281.4,635.8Z"/><path class="cls-1" d="M1367.81,734.26c-4.39,0-4.4,6.84,0,6.84S1372.22,734.26,1367.81,734.26Z"/><path class="cls-1" d="M1425.43,755.33c-3.3,0-3.31,5.12,0,5.12S1428.73,755.33,1425.43,755.33Z"/><path class="cls-1" d="M1252.59,594.53a1.71,1.71,0,0,0,0,3.42A1.71,1.71,0,0,0,1252.59,594.53Z"/><path class="cls-3" d="M1310.2,291.43a1.71,1.71,0,0,0,0,3.42A1.71,1.71,0,0,0,1310.2,291.43Z"/><path class="cls-4" d="M1079.75,308.22c-6.6,0-6.61,10.26,0,10.26S1086.36,308.22,1079.75,308.22Z"/><path class="cls-1" d="M186.75,493.5a1.71,1.71,0,0,0,0,3.42A1.71,1.71,0,0,0,186.75,493.5Z"/><path class="cls-1" d="M388.39,532.2c-4.39,0-4.4,6.84,0,6.84S392.8,532.2,388.39,532.2Z"/><path class="cls-1" d="M474.81,554.12a1.71,1.71,0,0,0,0,3.42A1.71,1.71,0,0,0,474.81,554.12Z"/><path class="cls-1" d="M618.85,814.24c-5.5,0-5.51,8.54,0,8.54S624.35,814.24,618.85,814.24Z"/><path class="cls-1" d="M906.91,858.07a.86.86,0,0,0,0,1.71A.86.86,0,0,0,906.91,858.07Z"/><path class="cls-2" d="M302,614.74a1.71,1.71,0,0,0,0,3.41A1.71,1.71,0,0,0,302,614.74Z"/><path class="cls-2" d="M215.56,329.28c-5.5,0-5.51,8.55,0,8.55S221.06,329.28,215.56,329.28Z"/><path class="cls-4" d="M964.52,917c-3.3,0-3.3,5.12,0,5.12S967.83,917,964.52,917Z"/><path class="cls-3" d="M100.33,412.67a1.71,1.71,0,0,0,0,3.42A1.71,1.71,0,0,0,100.33,412.67Z"/><path class="cls-3" d="M590,716.62a.86.86,0,0,0,0,1.71A.86.86,0,0,0,590,716.62Z"/><path class="cls-3" d="M503.62,451.38c-4.4,0-4.41,6.83,0,6.83S508,451.38,503.62,451.38Z"/><path class="cls-3" d="M705.27,656a.86.86,0,0,0,0,1.71A.86.86,0,0,0,705.27,656Z"/><path class="cls-4" d="M791.69,773c-6.6,0-6.61,10.25,0,10.25S798.29,773,791.69,773Z"/><path class="cls-4" d="M157.94,935.47c-5.5,0-5.5,8.55,0,8.55S163.45,935.47,157.94,935.47Z"/><path class="cls-4" d="M244.36,876.56c-3.3,0-3.3,5.13,0,5.13S247.67,876.56,244.36,876.56Z"/><path class="cls-2" d="M71.52,514.56a.86.86,0,0,0,0,1.71A.86.86,0,0,0,71.52,514.56Z"/><path class="cls-2" d="M1022.14,978.45a1.71,1.71,0,0,0,0,3.42A1.71,1.71,0,0,0,1022.14,978.45Z"/><path class="cls-2" d="M359.59,895.92c-4.4,0-4.41,6.83,0,6.83S364,895.92,359.59,895.92Z"/></svg>