<svg id="Layer_1" data-name="Layer 1" xmlns="http://www.w3.org/2000/svg" viewBox="0 0 1416.47 998.66"><defs><style>.cls-1{fill:#1db4db;}.cls-2{fill:#fff;}.cls-3{fill:#e0cc36;}.cls-4{fill:#ea6a2b;}</style></defs><title>space</title><path class="cls-1" d="M796.53,77.17a1.71,1.71,0,0,0,0,3.42A1.71,1.71,0,0,0,796.53,77.17Z" transform="translate(-11.43 -5.13)"/><path class="cls-1" d="M852.44,95.06c-4.4,0-4.41,6.84,0,6.84S856.84,95.06,852.44,95.06Z" transform="translate(-11.43 -5.13)"/><path class="cls-1" d="M866.41,5.13c-6.6,0-6.61,10.25,0,10.25S873,5.13,866.41,5.13Z" transform="translate(-11.43 -5.13)"/><path class="cls-1" d="M894.36,106.58a1.71,1.71,0,0,0,0,3.41A1.71,1.71,0,0,0,894.36,106.58Z" transform="translate(-11.43 -5.13)"/><path class="cls-1" d="M1201.82,282.18c-3.3,0-3.3,5.12,0,5.12S1205.13,282.18,1201.82,282.18Z" transform="translate(-11.43 -5.13)"/><path class="cls-1" d="M1062.07,241.26c-5.5,0-5.51,8.54,0,8.54S1067.57,241.26,1062.07,241.26Z" transform="translate(-11.43 -5.13)"/><path class="cls-1" d="M1285.67,313.3a.85.85,0,0,0,0,1.7A.85.85,0,0,0,1285.67,313.3Z" transform="translate(-11.43 -5.13)"/><path class="cls-1" d="M950.26,440.74a.85.85,0,0,0,0,1.7A.85.85,0,0,0,950.26,440.74Z" transform="translate(-11.43 -5.13)"/><path class="cls-1" d="M1118,870.36c-3.3,0-3.31,5.13,0,5.13S1121.27,870.36,1118,870.36Z" transform="translate(-11.43 -5.13)"/><path class="cls-1" d="M698.71,910.43a1.71,1.71,0,0,0,0,3.42A1.71,1.71,0,0,0,698.71,910.43Z" transform="translate(-11.43 -5.13)"/><path class="cls-1" d="M475.1,888.26c-5.5,0-5.51,8.54,0,8.54S480.61,888.26,475.1,888.26Z" transform="translate(-11.43 -5.13)"/><path class="cls-1" d="M447.15,880.16c-3.3,0-3.31,5.13,0,5.13S450.45,880.16,447.15,880.16Z" transform="translate(-11.43 -5.13)"/><path class="cls-1" d="M489.08,793.65a.86.86,0,0,0,0,1.71A.86.86,0,0,0,489.08,793.65Z" transform="translate(-11.43 -5.13)"/><path class="cls-1" d="M349.32,821.35c-3.3,0-3.3,5.12,0,5.12S352.63,821.35,349.32,821.35Z" transform="translate(-11.43 -5.13)"/><path class="cls-1" d="M377.27,930.89a.86.86,0,0,0,0,1.71A.86.86,0,0,0,377.27,930.89Z" transform="translate(-11.43 -5.13)"/><path class="cls-1" d="M461.12,573.71c-6.59,0-6.61,10.25,0,10.25S467.73,573.71,461.12,573.71Z" transform="translate(-11.43 -5.13)"/><path class="cls-1" d="M363.3,514.89c-6.6,0-6.61,10.25,0,10.25S369.91,514.89,363.3,514.89Z" transform="translate(-11.43 -5.13)"/><path class="cls-1" d="M237.52,338.43c-6.6,0-6.61,10.26,0,10.26S244.13,338.43,237.52,338.43Z" transform="translate(-11.43 -5.13)"/><path class="cls-1" d="M111.74,122.76c-6.6,0-6.61,10.26,0,10.26S118.35,122.76,111.74,122.76Z" transform="translate(-11.43 -5.13)"/><path class="cls-1" d="M195.59,181.58c-6.6,0-6.61,10.26,0,10.26S202.2,181.58,195.59,181.58Z" transform="translate(-11.43 -5.13)"/><path class="cls-1" d="M209.57,213.56c-3.3,0-3.31,5.12,0,5.12S212.87,213.56,209.57,213.56Z" transform="translate(-11.43 -5.13)"/><path class="cls-2" d="M824.48,116.38a1.71,1.71,0,0,0,0,3.42A1.71,1.71,0,0,0,824.48,116.38Z" transform="translate(-11.43 -5.13)"/><path class="cls-2" d="M810.51,25.59c-5.5,0-5.51,8.54,0,8.54S816,25.59,810.51,25.59Z" transform="translate(-11.43 -5.13)"/><path class="cls-2" d="M1076,685.81a.86.86,0,0,0,0,1.71A.86.86,0,0,0,1076,685.81Z" transform="translate(-11.43 -5.13)"/><path class="cls-2" d="M754.61,939c-3.3,0-3.31,5.13,0,5.13S757.91,939,754.61,939Z" transform="translate(-11.43 -5.13)"/><path class="cls-2" d="M586.9,901.48a.86.86,0,0,0,0,1.71A.86.86,0,0,0,586.9,901.48Z" transform="translate(-11.43 -5.13)"/><path class="cls-2" d="M559,742.07c-4.4,0-4.4,6.83,0,6.83S563.36,742.07,559,742.07Z" transform="translate(-11.43 -5.13)"/><path class="cls-3" d="M1104,288.56c-7.7,0-7.71,12,0,12S1111.7,288.56,1104,288.56Z" transform="translate(-11.43 -5.13)"/><path class="cls-3" d="M1159.89,524.69c-6.59,0-6.6,10.26,0,10.26S1166.5,524.69,1159.89,524.69Z" transform="translate(-11.43 -5.13)"/><path class="cls-3" d="M1327.6,134.28c-4.4,0-4.41,6.83,0,6.83S1332,134.28,1327.6,134.28Z" transform="translate(-11.43 -5.13)"/><path class="cls-2" d="M395.11,807.68l4.23-2.3a1.23,1.23,0,0,0,0-2.15l-4.23-2.3a1.28,1.28,0,0,1-.49-.49l-2.3-4.23a1.23,1.23,0,0,0-2.15,0l-2.3,4.23a1.16,1.16,0,0,1-.49.49l-4.23,2.3a1.23,1.23,0,0,0,0,2.15l4.23,2.3a1.16,1.16,0,0,1,.49.49l2.3,4.23a1.23,1.23,0,0,0,2.15,0l2.3-4.23A1.28,1.28,0,0,1,395.11,807.68Z" transform="translate(-11.43 -5.13)"/><path class="cls-2" d="M13.91,17.49c-3.3,0-3.3,5.13,0,5.13S17.22,17.49,13.91,17.49Z" transform="translate(-11.43 -5.13)"/><path class="cls-2" d="M712.68,546c-4.4,0-4.4,6.83,0,6.83S717.09,546,712.68,546Z" transform="translate(-11.43 -5.13)"/><path class="cls-2" d="M768.58,674.3c-3.3,0-3.3,5.13,0,5.13S771.89,674.3,768.58,674.3Z" transform="translate(-11.43 -5.13)"/><path class="cls-2" d="M614.85,769.77c-6.59,0-6.61,10.25,0,10.25S621.46,769.77,614.85,769.77Z" transform="translate(-11.43 -5.13)"/><path class="cls-2" d="M656.78,850.76c-3.3,0-3.3,5.12,0,5.12S660.08,850.76,656.78,850.76Z" transform="translate(-11.43 -5.13)"/><path class="cls-4" d="M1215.8,466.73c-5.5,0-5.51,8.54,0,8.54S1221.3,466.73,1215.8,466.73Z" transform="translate(-11.43 -5.13)"/><path class="cls-4" d="M1313.62,350.8c-3.29,0-3.3,5.13,0,5.13S1316.93,350.8,1313.62,350.8Z" transform="translate(-11.43 -5.13)"/><path class="cls-2" d="M1173.87,319.68c-5.5,0-5.51,8.55,0,8.55S1179.38,319.68,1173.87,319.68Z" transform="translate(-11.43 -5.13)"/><path class="cls-4" d="M726.66,419.42c-3.3,0-3.31,5.13,0,5.13S730,419.42,726.66,419.42Z" transform="translate(-11.43 -5.13)"/><path class="cls-4" d="M782.56,460.34a.86.86,0,0,0,0,1.71A.86.86,0,0,0,782.56,460.34Z" transform="translate(-11.43 -5.13)"/><path class="cls-3" d="M1383.5,477.38c-4.4,0-4.4,6.84,0,6.84S1387.91,477.38,1383.5,477.38Z" transform="translate(-11.43 -5.13)"/><path class="cls-3" d="M1411.45,262.57c-3.3,0-3.3,5.13,0,5.13S1414.76,262.57,1411.45,262.57Z" transform="translate(-11.43 -5.13)"/><path class="cls-3" d="M684.73,860.56c-3.3,0-3.3,5.13,0,5.13S688,860.56,684.73,860.56Z" transform="translate(-11.43 -5.13)"/><path class="cls-3" d="M503.05,656.4a.86.86,0,0,0,0,1.71A.86.86,0,0,0,503.05,656.4Z" transform="translate(-11.43 -5.13)"/><path class="cls-3" d="M335.35,732.26c-4.4,0-4.41,6.84,0,6.84S339.75,732.26,335.35,732.26Z" transform="translate(-11.43 -5.13)"/><path class="cls-3" d="M27.89,330.34c-4.4,0-4.41,6.83,0,6.83S32.29,330.34,27.89,330.34Z" transform="translate(-11.43 -5.13)"/><path class="cls-3" d="M181.62,610.35c-9.9,0-9.92,15.39,0,15.39S191.53,610.35,181.62,610.35Z" transform="translate(-11.43 -5.13)"/><path class="cls-3" d="M251.49,624.43c-4.4,0-4.4,6.84,0,6.84S255.9,624.43,251.49,624.43Z" transform="translate(-11.43 -5.13)"/><path class="cls-3" d="M279.44,506.79c-4.4,0-4.4,6.84,0,6.84S283.85,506.79,279.44,506.79Z" transform="translate(-11.43 -5.13)"/><path class="cls-1" d="M153.67,749.31c-7.7,0-7.72,12,0,12S161.38,749.31,153.67,749.31Z" transform="translate(-11.43 -5.13)"/><path class="cls-1" d="M307.39,704.56a1.71,1.71,0,0,0,0,3.42A1.71,1.71,0,0,0,307.39,704.56Z" transform="translate(-11.43 -5.13)"/><path class="cls-1" d="M167.64,488c-3.3,0-3.3,5.13,0,5.13S171,488,167.64,488Z" transform="translate(-11.43 -5.13)"/><path class="cls-1" d="M265.47,558.37a.86.86,0,0,0,0,1.71A.86.86,0,0,0,265.47,558.37Z" transform="translate(-11.43 -5.13)"/><path class="cls-1" d="M517,722.46c-4.4,0-4.41,6.84,0,6.84S521.43,722.46,517,722.46Z" transform="translate(-11.43 -5.13)"/><path class="cls-1" d="M321.37,448c-4.4,0-4.41,6.84,0,6.84S325.78,448,321.37,448Z" transform="translate(-11.43 -5.13)"/><path class="cls-1" d="M545,783.84a.86.86,0,0,0,0,1.71A.86.86,0,0,0,545,783.84Z" transform="translate(-11.43 -5.13)"/><path class="cls-1" d="M628.83,586.07c-3.3,0-3.31,5.13,0,5.13S632.13,586.07,628.83,586.07Z" transform="translate(-11.43 -5.13)"/><path class="cls-3" d="M223.54,34.54c-6.6,0-6.61,10.25,0,10.25S230.15,34.54,223.54,34.54Z" transform="translate(-11.43 -5.13)"/><path class="cls-3" d="M433.17,144.93c-3.3,0-3.3,5.13,0,5.13S436.48,144.93,433.17,144.93Z" transform="translate(-11.43 -5.13)"/><path class="cls-3" d="M69.81,234.87a.86.86,0,0,0,0,1.71A.86.86,0,0,0,69.81,234.87Z" transform="translate(-11.43 -5.13)"/><path class="cls-3" d="M642.8,46.05c-4.39,0-4.4,6.84,0,6.84S647.21,46.05,642.8,46.05Z" transform="translate(-11.43 -5.13)"/><path class="cls-3" d="M740.63,57.56a1.71,1.71,0,0,0,0,3.42A1.71,1.71,0,0,0,740.63,57.56Z" transform="translate(-11.43 -5.13)"/><path class="cls-3" d="M1034.12,176.05a.86.86,0,0,0,0,1.71A.86.86,0,0,0,1034.12,176.05Z" transform="translate(-11.43 -5.13)"/><path class="cls-3" d="M992.19,65.66c-4.4,0-4.41,6.83,0,6.83S996.6,65.66,992.19,65.66Z" transform="translate(-11.43 -5.13)"/><path class="cls-3" d="M1145.92,166.25a.86.86,0,0,0,0,1.71A.86.86,0,0,0,1145.92,166.25Z" transform="translate(-11.43 -5.13)"/><path class="cls-3" d="M838.46,997c-4.4,0-4.41,6.83,0,6.83S842.87,997,838.46,997Z" transform="translate(-11.43 -5.13)"/><path class="cls-3" d="M600.88,979.05a1.71,1.71,0,0,0,0,3.42A1.71,1.71,0,0,0,600.88,979.05Z" transform="translate(-11.43 -5.13)"/><path class="cls-3" d="M55.84,191.39c-6.6,0-6.61,10.25,0,10.25S62.45,191.39,55.84,191.39Z" transform="translate(-11.43 -5.13)"/><path class="cls-3" d="M139.69,252.77c-3.3,0-3.3,5.13,0,5.13S143,252.77,139.69,252.77Z" transform="translate(-11.43 -5.13)"/><path class="cls-1" d="M908.34,533.64c-7.7,0-7.71,12,0,12S916.05,533.64,908.34,533.64Z" transform="translate(-11.43 -5.13)"/><path class="cls-1" d="M936.29,495.28c-6.6,0-6.61,10.26,0,10.26S942.9,495.28,936.29,495.28Z" transform="translate(-11.43 -5.13)"/><path class="cls-1" d="M880.39,359.75c-4.4,0-4.41,6.83,0,6.83S884.79,359.75,880.39,359.75Z" transform="translate(-11.43 -5.13)"/><path class="cls-1" d="M1131.94,430.08a1.71,1.71,0,0,0,0,3.42A1.71,1.71,0,0,0,1131.94,430.08Z" transform="translate(-11.43 -5.13)"/><path class="cls-1" d="M1006.17,636.8a.86.86,0,0,0,0,1.71A.86.86,0,0,0,1006.17,636.8Z" transform="translate(-11.43 -5.13)"/><path class="cls-1" d="M964.24,411.33a.86.86,0,0,0,0,1.71A.86.86,0,0,0,964.24,411.33Z" transform="translate(-11.43 -5.13)"/><path class="cls-1" d="M1048.09,567.32a1.71,1.71,0,0,0,0,3.42A1.71,1.71,0,0,0,1048.09,567.32Z" transform="translate(-11.43 -5.13)"/><path class="cls-1" d="M1090,381.92a.86.86,0,0,0,0,1.71A.86.86,0,0,0,1090,381.92Z" transform="translate(-11.43 -5.13)"/><path class="cls-1" d="M1243.75,842.66a.86.86,0,0,0,0,1.71A.86.86,0,0,0,1243.75,842.66Z" transform="translate(-11.43 -5.13)"/><path class="cls-1" d="M1299.65,694.76a1.71,1.71,0,0,0,0,3.42A1.71,1.71,0,0,0,1299.65,694.76Z" transform="translate(-11.43 -5.13)"/><path class="cls-1" d="M1271.7,715.22a.86.86,0,0,0,0,1.71A.86.86,0,0,0,1271.7,715.22Z" transform="translate(-11.43 -5.13)"/><path class="cls-1" d="M1355.55,666.21a.86.86,0,0,0,0,1.71A.86.86,0,0,0,1355.55,666.21Z" transform="translate(-11.43 -5.13)"/><path class="cls-1" d="M1397.48,761.67c-4.4,0-4.41,6.84,0,6.84S1401.88,761.67,1397.48,761.67Z" transform="translate(-11.43 -5.13)"/><path class="cls-1" d="M1425.43,831.15c-3.3,0-3.31,5.13,0,5.13S1428.73,831.15,1425.43,831.15Z" transform="translate(-11.43 -5.13)"/><path class="cls-1" d="M1341.58,606.53a1.71,1.71,0,0,0,0,3.42A1.71,1.71,0,0,0,1341.58,606.53Z" transform="translate(-11.43 -5.13)"/><path class="cls-3" d="M1020.14,269.81c-6.6,0-6.61,10.26,0,10.26S1026.75,269.81,1020.14,269.81Z" transform="translate(-11.43 -5.13)"/><path class="cls-3" d="M978.21,594.17c-5.49,0-5.5,8.54,0,8.54S983.72,594.17,978.21,594.17Z" transform="translate(-11.43 -5.13)"/><path class="cls-3" d="M922.31,645.75a1.71,1.71,0,0,0,0,3.41A1.71,1.71,0,0,0,922.31,645.75Z" transform="translate(-11.43 -5.13)"/><path class="cls-3" d="M572.93,812.4a1.71,1.71,0,0,0,0,3.42A1.71,1.71,0,0,0,572.93,812.4Z" transform="translate(-11.43 -5.13)"/><path class="cls-3" d="M1369.53,204.61a1.71,1.71,0,0,0,0,3.42A1.71,1.71,0,0,0,1369.53,204.61Z" transform="translate(-11.43 -5.13)"/><path class="cls-3" d="M125.71,300.93c-4.39,0-4.4,6.84,0,6.84S130.12,300.93,125.71,300.93Z" transform="translate(-11.43 -5.13)"/><path class="cls-4" d="M1257.72,220.8c-6.6,0-6.61,10.25,0,10.25S1264.33,220.8,1257.72,220.8Z" transform="translate(-11.43 -5.13)"/><path class="cls-4" d="M293.42,966.68c-5.5,0-5.51,8.55,0,8.55S298.93,966.68,293.42,966.68Z" transform="translate(-11.43 -5.13)"/><path class="cls-4" d="M419.2,948.79c-3.3,0-3.31,5.12,0,5.12S422.5,948.79,419.2,948.79Z" transform="translate(-11.43 -5.13)"/><path class="cls-4" d="M405.22,153.88c-4.4,0-4.4,6.84,0,6.84S409.63,153.88,405.22,153.88Z" transform="translate(-11.43 -5.13)"/><path class="cls-4" d="M531,87a1.71,1.71,0,0,0,0,3.42A1.71,1.71,0,0,0,531,87Z" transform="translate(-11.43 -5.13)"/><path class="cls-2" d="M83.79,370.4c-3.3,0-3.31,5.13,0,5.13S87.09,370.4,83.79,370.4Z" transform="translate(-11.43 -5.13)"/><path class="cls-2" d="M41.86,391.72a.86.86,0,0,0,0,1.71A.86.86,0,0,0,41.86,391.72Z" transform="translate(-11.43 -5.13)"/><path class="cls-2" d="M97.76,399.81c-3.3,0-3.3,5.13,0,5.13S101.07,399.81,97.76,399.81Z" transform="translate(-11.43 -5.13)"/><path class="cls-2" d="M1229.77,988.85a1.71,1.71,0,0,0,0,3.42A1.71,1.71,0,0,0,1229.77,988.85Z" transform="translate(-11.43 -5.13)"/><path class="cls-2" d="M670.76,957.73c-4.4,0-4.41,6.84,0,6.84S675.16,957.73,670.76,957.73Z" transform="translate(-11.43 -5.13)"/><path class="cls-2" d="M1187.85,919.38c-3.3,0-3.31,5.12,0,5.12S1191.15,919.38,1187.85,919.38Z" transform="translate(-11.43 -5.13)"/></svg>