<svg id="Layer_1" data-name="Layer 1" xmlns="http://www.w3.org/2000/svg" viewBox="0 0 1438.91 1017.42"><defs><style>.cls-1{fill:#1db4db;}.cls-2{fill:#fff;}.cls-3{fill:#e0cc36;}.cls-4{fill:#ea6a2b;}</style></defs><title>1Artboard 1</title><path class="cls-1" d="M405.89,38.79a.76.76,0,0,0,0,1.51A.76.76,0,0,0,405.89,38.79Z"/><path class="cls-1" d="M426.85,50.39a1.52,1.52,0,0,0,0,3A1.52,1.52,0,0,0,426.85,50.39Z"/><path class="cls-1" d="M437.33,5.13c-2.92,0-2.93,4.54,0,4.54S440.26,5.13,437.33,5.13Z"/><path class="cls-1" d="M451.31,53.62a.76.76,0,0,0,0,1.52A.76.76,0,0,0,451.31,53.62Z"/><path class="cls-1" d="M605,142.25a1.14,1.14,0,0,0,0,2.27A1.14,1.14,0,0,0,605,142.25Z"/><path class="cls-1" d="M531.67,124.19a1.89,1.89,0,0,0,0,3.78A1.89,1.89,0,0,0,531.67,124.19Z"/><path class="cls-1" d="M647,157.84a.38.38,0,0,0,0,.76A.38.38,0,0,0,647,157.84Z"/><path class="cls-1" d="M479.26,222.13a.38.38,0,0,0,0,.76A.38.38,0,0,0,479.26,222.13Z"/><path class="cls-1" d="M563.11,426.59a1.14,1.14,0,0,0,0,2.27A1.14,1.14,0,0,0,563.11,426.59Z"/><path class="cls-1" d="M311.55,535.75a.76.76,0,0,0,0,1.52A.76.76,0,0,0,311.55,535.75Z"/><path class="cls-1" d="M199.75,529.67a1.9,1.9,0,0,0,0,3.79A1.9,1.9,0,0,0,199.75,529.67Z"/><path class="cls-1" d="M185.77,525.48a1.14,1.14,0,0,0,0,2.28A1.14,1.14,0,0,0,185.77,525.48Z"/><path class="cls-1" d="M206.74,491.63a.38.38,0,0,0,0,.76A.38.38,0,0,0,206.74,491.63Z"/><path class="cls-1" d="M133.37,510.65a1.14,1.14,0,0,0,0,2.27A1.14,1.14,0,0,0,133.37,510.65Z"/><path class="cls-1" d="M157.82,541.08a.38.38,0,0,0,0,.75A.38.38,0,0,0,157.82,541.08Z"/><path class="cls-1" d="M192.76,366.11c-2.92,0-2.93,4.55,0,4.55S195.69,366.11,192.76,366.11Z"/><path class="cls-1" d="M143.85,338.91c-2.93,0-2.93,4.55,0,4.55S146.78,338.91,143.85,338.91Z"/><path class="cls-1" d="M154.33,173.26c-2.93,0-2.93,4.54,0,4.54S157.26,173.26,154.33,173.26Z"/><path class="cls-1" d="M74,64.47C71.05,64.47,71,69,74,69S76.9,64.47,74,64.47Z"/><path class="cls-1" d="M126.38,94.14c-2.93,0-2.93,4.54,0,4.54S129.31,94.14,126.38,94.14Z"/><path class="cls-1" d="M136.86,110.11a1.14,1.14,0,0,0,0,2.27A1.14,1.14,0,0,0,136.86,110.11Z"/><path class="cls-2" d="M419.86,58.57a.76.76,0,0,0,0,1.51A.76.76,0,0,0,419.86,58.57Z"/><path class="cls-2" d="M412.88,15.4a1.9,1.9,0,0,0,0,3.79C415.31,19.19,415.32,15.4,412.88,15.4Z"/><path class="cls-2" d="M542.15,318.55a.38.38,0,0,0,0,.76A.38.38,0,0,0,542.15,318.55Z"/><path class="cls-2" d="M332.52,542.79a1.14,1.14,0,0,0,0,2.28A1.14,1.14,0,0,0,332.52,542.79Z"/><path class="cls-2" d="M259.15,533.66a.38.38,0,0,0,0,.76A.38.38,0,0,0,259.15,533.66Z"/><path class="cls-2" d="M241.68,468.24a1.52,1.52,0,0,0,0,3A1.52,1.52,0,0,0,241.68,468.24Z"/><path class="cls-3" d="M556.12,148.15c-3.41,0-3.41,5.31,0,5.31S559.54,148.15,556.12,148.15Z"/><path class="cls-3" d="M584.08,252.38c-2.93,0-2.94,4.54,0,4.54S587,252.38,584.08,252.38Z"/><path class="cls-3" d="M667.93,67.7a1.52,1.52,0,0,0,0,3A1.52,1.52,0,0,0,667.93,67.7Z"/><path class="cls-2" d="M166.53,505.87l1.87-1a.54.54,0,0,0,0-.95l-1.87-1a.47.47,0,0,1-.22-.22l-1-1.87a.54.54,0,0,0-.95,0l-1,1.87a.5.5,0,0,1-.21.22l-1.88,1a.55.55,0,0,0,0,.95l1.88,1a.53.53,0,0,1,.21.21l1,1.88a.55.55,0,0,0,.95,0l1-1.88A.5.5,0,0,1,166.53,505.87Z"/><path class="cls-2" d="M14.58,8.74a1.14,1.14,0,0,0,0,2.27A1.14,1.14,0,0,0,14.58,8.74Z"/><path class="cls-2" d="M318.54,349.56a1.52,1.52,0,0,0,0,3A1.52,1.52,0,0,0,318.54,349.56Z"/><path class="cls-2" d="M339.5,431.53a1.14,1.14,0,0,0,0,2.27A1.14,1.14,0,0,0,339.5,431.53Z"/><path class="cls-2" d="M269.63,479.84c-2.93,0-2.93,4.55,0,4.55S272.56,479.84,269.63,479.84Z"/><path class="cls-2" d="M287.1,518.07a1.14,1.14,0,0,0,0,2.27A1.14,1.14,0,0,0,287.1,518.07Z"/><path class="cls-4" d="M612,233a1.9,1.9,0,0,0,0,3.79C614.46,236.76,614.47,233,612,233Z"/><path class="cls-4" d="M660.94,176.87a1.14,1.14,0,0,0,0,2.27A1.14,1.14,0,0,0,660.94,176.87Z"/><path class="cls-2" d="M591.06,163.74a1.9,1.9,0,0,0,0,3.79A1.9,1.9,0,0,0,591.06,163.74Z"/><path class="cls-4" d="M377.94,214a1.14,1.14,0,0,0,0,2.28A1.14,1.14,0,0,0,377.94,214Z"/><path class="cls-4" d="M346.49,306.19a.38.38,0,0,0,0,.76A.38.38,0,0,0,346.49,306.19Z"/><path class="cls-3" d="M695.88,235.83a1.52,1.52,0,0,0,0,3A1.52,1.52,0,0,0,695.88,235.83Z"/><path class="cls-3" d="M709.85,132.36a1.14,1.14,0,0,0,0,2.27A1.14,1.14,0,0,0,709.85,132.36Z"/><path class="cls-3" d="M308.06,523a1.14,1.14,0,0,0,0,2.28A1.14,1.14,0,0,0,308.06,523Z"/><path class="cls-3" d="M213.73,417.45a.38.38,0,0,0,0,.76A.38.38,0,0,0,213.73,417.45Z"/><path class="cls-3" d="M122.89,460.82a1.52,1.52,0,0,0,0,3A1.52,1.52,0,0,0,122.89,460.82Z"/><path class="cls-3" d="M25.06,166.6a1.52,1.52,0,0,0,0,3A1.52,1.52,0,0,0,25.06,166.6Z"/><path class="cls-3" d="M32,384.75c-4.38,0-4.39,6.82,0,6.82S36.44,384.75,32,384.75Z"/><path class="cls-3" d="M70.48,394.06a1.52,1.52,0,0,0,0,3A1.52,1.52,0,0,0,70.48,394.06Z"/><path class="cls-3" d="M91.44,332.25a1.52,1.52,0,0,0,0,3A1.52,1.52,0,0,0,91.44,332.25Z"/><path class="cls-1" d="M11.08,472.05c-3.41,0-3.42,5.3,0,5.3S14.5,472.05,11.08,472.05Z"/><path class="cls-1" d="M108.91,441.8a.76.76,0,0,0,0,1.51A.76.76,0,0,0,108.91,441.8Z"/><path class="cls-1" d="M21.56,320.27a1.14,1.14,0,0,0,0,2.27A1.14,1.14,0,0,0,21.56,320.27Z"/><path class="cls-1" d="M81,353.17a.38.38,0,0,0,0,.76A.38.38,0,0,0,81,353.17Z"/><path class="cls-1" d="M220.71,453.4a1.52,1.52,0,0,0,0,3A1.52,1.52,0,0,0,220.71,453.4Z"/><path class="cls-1" d="M115.9,302.58a1.52,1.52,0,0,0,0,3A1.52,1.52,0,0,0,115.9,302.58Z"/><path class="cls-1" d="M227.7,484.21a.38.38,0,0,0,0,.76A.38.38,0,0,0,227.7,484.21Z"/><path class="cls-1" d="M276.62,369.72a1.14,1.14,0,0,0,0,2.27A1.14,1.14,0,0,0,276.62,369.72Z"/><path class="cls-3" d="M147.34,20c-2.92,0-2.93,4.55,0,4.55S150.27,20,147.34,20Z"/><path class="cls-3" d="M248.66,73a1.14,1.14,0,0,0,0,2.27A1.14,1.14,0,0,0,248.66,73Z"/><path class="cls-3" d="M49.51,118.28a.38.38,0,0,0,0,.76A.38.38,0,0,0,49.51,118.28Z"/><path class="cls-3" d="M350,23.19a1.52,1.52,0,0,0,0,3A1.52,1.52,0,0,0,350,23.19Z"/><path class="cls-3" d="M388.42,28.9a.76.76,0,0,0,0,1.51A.76.76,0,0,0,388.42,28.9Z"/><path class="cls-3" d="M521.19,88.61a.38.38,0,0,0,0,.76A.38.38,0,0,0,521.19,88.61Z"/><path class="cls-3" d="M496.73,35.55a1.52,1.52,0,0,0,0,3A1.52,1.52,0,0,0,496.73,35.55Z"/><path class="cls-3" d="M577.09,83.67a.38.38,0,0,0,0,.76A.38.38,0,0,0,577.09,83.67Z"/><path class="cls-3" d="M367.46,564.66a1.52,1.52,0,0,0,0,3A1.52,1.52,0,0,0,367.46,564.66Z"/><path class="cls-3" d="M262.64,558a.76.76,0,0,0,0,1.51A.76.76,0,0,0,262.64,558Z"/><path class="cls-3" d="M42.53,96.61c-2.93,0-2.93,4.55,0,4.55S45.46,96.61,42.53,96.61Z"/><path class="cls-3" d="M94.93,127.42a1.14,1.14,0,0,0,0,2.27A1.14,1.14,0,0,0,94.93,127.42Z"/><path class="cls-1" d="M458.3,259.41c-3.42,0-3.42,5.31,0,5.31S461.72,259.41,458.3,259.41Z"/><path class="cls-1" d="M468.78,245c-2.93,0-2.93,4.54,0,4.54S471.71,245,468.78,245Z"/><path class="cls-1" d="M444.32,183.9a1.52,1.52,0,0,0,0,3A1.52,1.52,0,0,0,444.32,183.9Z"/><path class="cls-1" d="M566.61,216.8a.76.76,0,0,0,0,1.52A.76.76,0,0,0,566.61,216.8Z"/><path class="cls-1" d="M507.21,293.83a.38.38,0,0,0,0,.76A.38.38,0,0,0,507.21,293.83Z"/><path class="cls-1" d="M486.25,207.29a.38.38,0,0,0,0,.76A.38.38,0,0,0,486.25,207.29Z"/><path class="cls-1" d="M528.17,271.2a.76.76,0,0,0,0,1.51A.76.76,0,0,0,528.17,271.2Z"/><path class="cls-1" d="M545.64,192.46a.38.38,0,0,0,0,.76A.38.38,0,0,0,545.64,192.46Z"/><path class="cls-1" d="M626,407.56a.38.38,0,0,0,0,.76A.38.38,0,0,0,626,407.56Z"/><path class="cls-1" d="M654,328.07a.76.76,0,0,0,0,1.51A.76.76,0,0,0,654,328.07Z"/><path class="cls-1" d="M640,335.86a.38.38,0,0,0,0,.76A.38.38,0,0,0,640,335.86Z"/><path class="cls-1" d="M681.9,311.14a.38.38,0,0,0,0,.75A.38.38,0,0,0,681.9,311.14Z"/><path class="cls-1" d="M702.87,357a1.52,1.52,0,0,0,0,3A1.52,1.52,0,0,0,702.87,357Z"/><path class="cls-1" d="M716.84,399.39a1.14,1.14,0,0,0,0,2.27A1.14,1.14,0,0,0,716.84,399.39Z"/><path class="cls-1" d="M674.92,283.56a.76.76,0,0,0,0,1.52A.76.76,0,0,0,674.92,283.56Z"/><path class="cls-3" d="M510.7,138.64c-2.92,0-2.93,4.55,0,4.55S513.63,138.64,510.7,138.64Z"/><path class="cls-3" d="M493.23,280c-2.43,0-2.44,3.79,0,3.79A1.9,1.9,0,0,0,493.23,280Z"/><path class="cls-3" d="M465.28,300.87a.76.76,0,0,0,0,1.51A.76.76,0,0,0,465.28,300.87Z"/><path class="cls-3" d="M245.17,506.08a.76.76,0,0,0,0,1.52A.76.76,0,0,0,245.17,506.08Z"/><path class="cls-3" d="M688.89,103.07a.76.76,0,0,0,0,1.52A.76.76,0,0,0,688.89,103.07Z"/><path class="cls-3" d="M84.45,151.76a1.52,1.52,0,0,0,0,3A1.52,1.52,0,0,0,84.45,151.76Z"/><path class="cls-4" d="M633,113.92c-2.93,0-2.93,4.54,0,4.54S635.92,113.92,633,113.92Z"/><path class="cls-4" d="M101.92,551.92a1.9,1.9,0,0,0,0,3.79A1.9,1.9,0,0,0,101.92,551.92Z"/><path class="cls-4" d="M175.29,547.74a1.14,1.14,0,0,0,0,2.27A1.14,1.14,0,0,0,175.29,547.74Z"/><path class="cls-4" d="M231.19,80.06a1.52,1.52,0,0,0,0,3A1.52,1.52,0,0,0,231.19,80.06Z"/><path class="cls-4" d="M297.58,43.73a.76.76,0,0,0,0,1.52A.76.76,0,0,0,297.58,43.73Z"/><path class="cls-2" d="M56.5,186.75a1.14,1.14,0,0,0,0,2.28A1.14,1.14,0,0,0,56.5,186.75Z"/><path class="cls-2" d="M35.54,197.4a.38.38,0,0,0,0,.76A.38.38,0,0,0,35.54,197.4Z"/><path class="cls-2" d="M63.49,204.06a1.14,1.14,0,0,0,0,2.28A1.14,1.14,0,0,0,63.49,204.06Z"/><path class="cls-2" d="M619,493.72a.76.76,0,0,0,0,1.52A.76.76,0,0,0,619,493.72Z"/><path class="cls-2" d="M294.08,549.83a1.52,1.52,0,0,0,0,3A1.52,1.52,0,0,0,294.08,549.83Z"/><path class="cls-2" d="M598.05,451.31a1.14,1.14,0,0,0,0,2.27A1.14,1.14,0,0,0,598.05,451.31Z"/><path class="cls-1" d="M1045.27,46.2a.76.76,0,0,0,0,1.52A.76.76,0,0,0,1045.27,46.2Z"/><path class="cls-1" d="M1069.72,55.33a1.52,1.52,0,0,0,0,3A1.52,1.52,0,0,0,1069.72,55.33Z"/><path class="cls-1" d="M1076.71,10.07c-2.93,0-2.93,4.55,0,4.55S1079.64,10.07,1076.71,10.07Z"/><path class="cls-1" d="M1090.69,61a.76.76,0,0,0,0,1.51A.76.76,0,0,0,1090.69,61Z"/><path class="cls-1" d="M1213,147.2a1.14,1.14,0,0,0,0,2.27A1.14,1.14,0,0,0,1213,147.2Z"/><path class="cls-1" d="M1167.55,129.13a1.9,1.9,0,0,0,0,3.79A1.9,1.9,0,0,0,1167.55,129.13Z"/><path class="cls-1" d="M1254.9,162.79a.38.38,0,0,0,0,.76A.38.38,0,0,0,1254.9,162.79Z"/><path class="cls-1" d="M1115.14,227.07a.38.38,0,0,0,0,.76A.38.38,0,0,0,1115.14,227.07Z"/><path class="cls-1" d="M1181.53,436.48a1.14,1.14,0,0,0,0,2.27A1.14,1.14,0,0,0,1181.53,436.48Z"/><path class="cls-1" d="M996.35,449.22a.76.76,0,0,0,0,1.51A.76.76,0,0,0,996.35,449.22Z"/><path class="cls-1" d="M912.5,443.13a1.9,1.9,0,0,0,0,3.79A1.9,1.9,0,0,0,912.5,443.13Z"/><path class="cls-1" d="M905.51,439a1.14,1.14,0,0,0,0,2.27A1.14,1.14,0,0,0,905.51,439Z"/><path class="cls-1" d="M916,380.37a.38.38,0,0,0,0,.75A.38.38,0,0,0,916,380.37Z"/><path class="cls-1" d="M877.56,401.86a1.14,1.14,0,0,0,0,2.27A1.14,1.14,0,0,0,877.56,401.86Z"/><path class="cls-1" d="M884.55,466.9a.38.38,0,0,0,0,.76A.38.38,0,0,0,884.55,466.9Z"/><path class="cls-1" d="M909,274.63c-2.92,0-2.93,4.54,0,4.54S911.94,274.63,909,274.63Z"/><path class="cls-1" d="M881.05,254.85c-2.92,0-2.93,4.54,0,4.54S884,254.85,881.05,254.85Z"/><path class="cls-1" d="M825.15,178.2c-2.92,0-2.93,4.55,0,4.55S828.08,178.2,825.15,178.2Z"/><path class="cls-1" d="M765.76,69.41c-2.93,0-2.93,4.55,0,4.55S768.69,69.41,765.76,69.41Z"/><path class="cls-1" d="M807.68,99.08c-2.92,0-2.93,4.55,0,4.55S810.61,99.08,807.68,99.08Z"/><path class="cls-1" d="M814.67,112.58a1.14,1.14,0,0,0,0,2.27A1.14,1.14,0,0,0,814.67,112.58Z"/><path class="cls-2" d="M1055.75,63.51a.76.76,0,0,0,0,1.52A.76.76,0,0,0,1055.75,63.51Z"/><path class="cls-2" d="M1052.25,17.87a1.9,1.9,0,0,0,0,3.79A1.9,1.9,0,0,0,1052.25,17.87Z"/><path class="cls-2" d="M1171,326a.38.38,0,0,0,0,.76A.38.38,0,0,0,1171,326Z"/><path class="cls-2" d="M1024.3,471.09a1.14,1.14,0,0,0,0,2.27A1.14,1.14,0,0,0,1024.3,471.09Z"/><path class="cls-2" d="M947.44,447.12a.38.38,0,0,0,0,.76A.38.38,0,0,0,947.44,447.12Z"/><path class="cls-2" d="M937,354.5a1.52,1.52,0,0,0,0,3A1.52,1.52,0,0,0,937,354.5Z"/><path class="cls-3" d="M1178,153.1c-3.41,0-3.42,5.3,0,5.3S1181.45,153.1,1178,153.1Z"/><path class="cls-3" d="M1199,257.32c-2.93,0-2.94,4.55,0,4.55S1201.93,257.32,1199,257.32Z"/><path class="cls-3" d="M1279.35,75.11a1.52,1.52,0,0,0,0,3A1.52,1.52,0,0,0,1279.35,75.11Z"/><path class="cls-2" d="M889.76,392.13l1.87-1a.54.54,0,0,0,0-.95l-1.87-1a.52.52,0,0,1-.22-.22l-1-1.87a.54.54,0,0,0-.95,0l-1,1.87a.56.56,0,0,1-.21.22l-1.88,1a.55.55,0,0,0,0,.95l1.88,1a.56.56,0,0,1,.21.22l1,1.87a.54.54,0,0,0,.95,0l1-1.87A.52.52,0,0,1,889.76,392.13Z"/><path class="cls-2" d="M723.83,13.68a1.14,1.14,0,0,0,0,2.28A1.14,1.14,0,0,0,723.83,13.68Z"/><path class="cls-2" d="M1003.34,265.5a1.52,1.52,0,0,0,0,3A1.52,1.52,0,0,0,1003.34,265.5Z"/><path class="cls-2" d="M1031.29,322.74a1.14,1.14,0,0,0,0,2.27A1.14,1.14,0,0,0,1031.29,322.74Z"/><path class="cls-2" d="M954.42,371.05c-2.92,0-2.93,4.55,0,4.55S957.36,371.05,954.42,371.05Z"/><path class="cls-2" d="M975.39,421.64a1.14,1.14,0,0,0,0,2.27A1.14,1.14,0,0,0,975.39,421.64Z"/><path class="cls-4" d="M1220,237.92a1.9,1.9,0,0,0,0,3.79A1.9,1.9,0,0,0,1220,237.92Z"/><path class="cls-4" d="M1272.37,181.81a1.14,1.14,0,0,0,0,2.27A1.14,1.14,0,0,0,1272.37,181.81Z"/><path class="cls-2" d="M1202.49,168.69a1.9,1.9,0,0,0,0,3.79A1.9,1.9,0,0,0,1202.49,168.69Z"/><path class="cls-4" d="M1010.33,218.9a1.14,1.14,0,0,0,0,2.27A1.14,1.14,0,0,0,1010.33,218.9Z"/><path class="cls-4" d="M1038.28,232a.38.38,0,0,0,0,.76A.38.38,0,0,0,1038.28,232Z"/><path class="cls-3" d="M1310.8,240.77a1.52,1.52,0,0,0,0,3A1.52,1.52,0,0,0,1310.8,240.77Z"/><path class="cls-3" d="M1324.77,137.31a1.14,1.14,0,0,0,0,2.27A1.14,1.14,0,0,0,1324.77,137.31Z"/><path class="cls-3" d="M989.36,429.06a1.14,1.14,0,0,0,0,2.27A1.14,1.14,0,0,0,989.36,429.06Z"/><path class="cls-3" d="M919.49,313.61a.38.38,0,0,0,0,.76A.38.38,0,0,0,919.49,313.61Z"/><path class="cls-3" d="M870.57,347.09a1.52,1.52,0,0,0,0,3A1.52,1.52,0,0,0,870.57,347.09Z"/><path class="cls-3" d="M727.32,171.54a1.52,1.52,0,0,0,0,3A1.52,1.52,0,0,0,727.32,171.54Z"/><path class="cls-3" d="M797.2,288.33c-4.39,0-4.39,6.82,0,6.82S801.6,288.33,797.2,288.33Z"/><path class="cls-3" d="M832.14,295.16a1.52,1.52,0,0,0,0,3A1.52,1.52,0,0,0,832.14,295.16Z"/><path class="cls-3" d="M842.62,250.66a1.52,1.52,0,0,0,0,3A1.52,1.52,0,0,0,842.62,250.66Z"/><path class="cls-1" d="M786.72,358.31c-3.41,0-3.42,5.31,0,5.31S790.14,358.31,786.72,358.31Z"/><path class="cls-1" d="M860.09,338a.76.76,0,0,0,0,1.52A.76.76,0,0,0,860.09,338Z"/><path class="cls-1" d="M793.71,243.62a1.14,1.14,0,0,0,0,2.28A1.14,1.14,0,0,0,793.71,243.62Z"/><path class="cls-1" d="M839.13,269.1a.38.38,0,0,0,0,.76A.38.38,0,0,0,839.13,269.1Z"/><path class="cls-1" d="M926.47,344.61a1.52,1.52,0,0,0,0,3A1.52,1.52,0,0,0,926.47,344.61Z"/><path class="cls-1" d="M863.58,228.41a1.52,1.52,0,0,0,0,3A1.52,1.52,0,0,0,863.58,228.41Z"/><path class="cls-1" d="M933.46,377.89a.38.38,0,0,0,0,.76A.38.38,0,0,0,933.46,377.89Z"/><path class="cls-1" d="M961.41,278.24a1.14,1.14,0,0,0,0,2.27A1.14,1.14,0,0,0,961.41,278.24Z"/><path class="cls-3" d="M818.16,24.91c-2.92,0-2.93,4.54,0,4.54S821.09,24.91,818.16,24.91Z"/><path class="cls-3" d="M898.52,78a1.14,1.14,0,0,0,0,2.27A1.14,1.14,0,0,0,898.52,78Z"/><path class="cls-3" d="M748.29,123.23a.38.38,0,0,0,0,.76A.38.38,0,0,0,748.29,123.23Z"/><path class="cls-3" d="M968.4,30.61a1.52,1.52,0,0,0,0,3A1.52,1.52,0,0,0,968.4,30.61Z"/><path class="cls-3" d="M1017.31,33.84a.76.76,0,0,0,0,1.52A.76.76,0,0,0,1017.31,33.84Z"/><path class="cls-3" d="M1153.58,93.56a.38.38,0,0,0,0,.76A.38.38,0,0,0,1153.58,93.56Z"/><path class="cls-3" d="M1136.11,40.5a1.52,1.52,0,0,0,0,3A1.52,1.52,0,0,0,1136.11,40.5Z"/><path class="cls-3" d="M1195.5,91.09a.38.38,0,0,0,0,.75A.38.38,0,0,0,1195.5,91.09Z"/><path class="cls-3" d="M1062.73,507.8a1.52,1.52,0,0,0,0,3A1.52,1.52,0,0,0,1062.73,507.8Z"/><path class="cls-3" d="M950.93,496.19a.76.76,0,0,0,0,1.52A.76.76,0,0,0,950.93,496.19Z"/><path class="cls-3" d="M737.81,104c-2.93,0-2.94,4.54,0,4.54S740.74,104,737.81,104Z"/><path class="cls-3" d="M783.23,134.83a1.14,1.14,0,0,0,0,2.28A1.14,1.14,0,0,0,783.23,134.83Z"/><path class="cls-1" d="M1097.67,261.89c-3.41,0-3.42,5.3,0,5.3S1101.09,261.89,1097.67,261.89Z"/><path class="cls-1" d="M1108.16,247.43c-2.93,0-2.94,4.55,0,4.55S1111.09,247.43,1108.16,247.43Z"/><path class="cls-1" d="M1083.7,188.85a1.52,1.52,0,0,0,0,3A1.52,1.52,0,0,0,1083.7,188.85Z"/><path class="cls-1" d="M1188.51,224.22a.76.76,0,0,0,0,1.52A.76.76,0,0,0,1188.51,224.22Z"/><path class="cls-1" d="M1143.09,298.77a.38.38,0,0,0,0,.76A.38.38,0,0,0,1143.09,298.77Z"/><path class="cls-1" d="M1122.13,212.24a.38.38,0,0,0,0,.76A.38.38,0,0,0,1122.13,212.24Z"/><path class="cls-1" d="M1160.56,273.67a.76.76,0,0,0,0,1.52A.76.76,0,0,0,1160.56,273.67Z"/><path class="cls-1" d="M1174.54,199.88a.38.38,0,0,0,0,.75A.38.38,0,0,0,1174.54,199.88Z"/><path class="cls-1" d="M1237.43,415a.38.38,0,0,0,0,.76A.38.38,0,0,0,1237.43,415Z"/><path class="cls-1" d="M1265.38,330.54a.76.76,0,0,0,0,1.51A.76.76,0,0,0,1265.38,330.54Z"/><path class="cls-1" d="M1247.91,343.28a.38.38,0,0,0,0,.76A.38.38,0,0,0,1247.91,343.28Z"/><path class="cls-1" d="M1293.33,316.08a.38.38,0,0,0,0,.76A.38.38,0,0,0,1293.33,316.08Z"/><path class="cls-1" d="M1317.79,364.39a1.52,1.52,0,0,0,0,3A1.52,1.52,0,0,0,1317.79,364.39Z"/><path class="cls-1" d="M1328.27,409.28a1.14,1.14,0,0,0,0,2.27A1.14,1.14,0,0,0,1328.27,409.28Z"/><path class="cls-1" d="M1286.34,288.51a.76.76,0,0,0,0,1.51A.76.76,0,0,0,1286.34,288.51Z"/><path class="cls-3" d="M1146.59,143.59c-2.93,0-2.93,4.54,0,4.54S1149.52,143.59,1146.59,143.59Z"/><path class="cls-3" d="M1129.12,284.9a1.9,1.9,0,0,0,0,3.79A1.9,1.9,0,0,0,1129.12,284.9Z"/><path class="cls-3" d="M1104.66,308.29a.76.76,0,0,0,0,1.51A.76.76,0,0,0,1104.66,308.29Z"/><path class="cls-3" d="M940.45,392.35a.76.76,0,0,0,0,1.52A.76.76,0,0,0,940.45,392.35Z"/><path class="cls-3" d="M1303.81,108a.76.76,0,0,0,0,1.52A.76.76,0,0,0,1303.81,108Z"/><path class="cls-3" d="M776.24,159.18a1.52,1.52,0,0,0,0,3A1.52,1.52,0,0,0,776.24,159.18Z"/><path class="cls-4" d="M1240.92,118.86c-2.92,0-2.93,4.55,0,4.55S1243.85,118.86,1240.92,118.86Z"/><path class="cls-4" d="M849.61,485.17a1.9,1.9,0,0,0,0,3.79A1.9,1.9,0,0,0,849.61,485.17Z"/><path class="cls-4" d="M895,476a1.14,1.14,0,0,0,0,2.28A1.14,1.14,0,0,0,895,476Z"/><path class="cls-4" d="M891.54,85a1.52,1.52,0,0,0,0,3A1.52,1.52,0,0,0,891.54,85Z"/><path class="cls-4" d="M930,48.68a.76.76,0,0,0,0,1.51A.76.76,0,0,0,930,48.68Z"/><path class="cls-2" d="M751.78,194.17a1.14,1.14,0,0,0,0,2.28A1.14,1.14,0,0,0,751.78,194.17Z"/><path class="cls-2" d="M734.31,202.35a.38.38,0,0,0,0,.76A.38.38,0,0,0,734.31,202.35Z"/><path class="cls-2" d="M758.77,209a1.14,1.14,0,0,0,0,2.27A1.14,1.14,0,0,0,758.77,209Z"/><path class="cls-2" d="M1230.44,498.67a.76.76,0,0,0,0,1.51A.76.76,0,0,0,1230.44,498.67Z"/><path class="cls-2" d="M982.38,478.13a1.52,1.52,0,0,0,0,3A1.52,1.52,0,0,0,982.38,478.13Z"/><path class="cls-2" d="M1206,458.73a1.14,1.14,0,0,0,0,2.27A1.14,1.14,0,0,0,1206,458.73Z"/><path class="cls-1" d="M1261.89,404.71a.76.76,0,0,0,0,1.52A.76.76,0,0,0,1261.89,404.71Z"/><path class="cls-1" d="M1289.84,418.79a1.52,1.52,0,0,0,0,3A1.52,1.52,0,0,0,1289.84,418.79Z"/><path class="cls-1" d="M1296.82,361.16c-2.92,0-2.93,4.55,0,4.55S1299.75,361.16,1296.82,361.16Z"/><path class="cls-1" d="M1314.29,424.49a.76.76,0,0,0,0,1.52A.76.76,0,0,0,1314.29,424.49Z"/><path class="cls-1" d="M1422.6,515.59a1.14,1.14,0,0,0,0,2.28A1.14,1.14,0,0,0,1422.6,515.59Z"/><path class="cls-1" d="M1363.21,500a1.9,1.9,0,0,0,0,3.79A1.9,1.9,0,0,0,1363.21,500Z"/><path class="cls-1" d="M1370.19,657.28a.38.38,0,0,0,0,.76A.38.38,0,0,0,1370.19,657.28Z"/><path class="cls-1" d="M1335.26,568.27a.38.38,0,0,0,0,.76A.38.38,0,0,0,1335.26,568.27Z"/><path class="cls-1" d="M1321.28,906.25a1.14,1.14,0,0,0,0,2.27A1.14,1.14,0,0,0,1321.28,906.25Z"/><path class="cls-1" d="M1132.61,938.77a.76.76,0,0,0,0,1.51A.76.76,0,0,0,1132.61,938.77Z"/><path class="cls-1" d="M1027.8,925.27a1.9,1.9,0,0,0,0,3.79C1030.23,929.06,1030.24,925.27,1027.8,925.27Z"/><path class="cls-1" d="M1013.82,916.14a1.14,1.14,0,0,0,0,2.27A1.14,1.14,0,0,0,1013.82,916.14Z"/><path class="cls-1" d="M1034.78,874.86a.38.38,0,0,0,0,.76A.38.38,0,0,0,1034.78,874.86Z"/><path class="cls-1" d="M964.91,886.47a1.14,1.14,0,0,0,0,2.27A1.14,1.14,0,0,0,964.91,886.47Z"/><path class="cls-1" d="M978.88,946.56a.38.38,0,0,0,0,.76A.38.38,0,0,0,978.88,946.56Z"/><path class="cls-1" d="M1020.81,749.34c-2.93,0-2.93,4.55,0,4.55S1023.74,749.34,1020.81,749.34Z"/><path class="cls-1" d="M971.89,719.67c-2.92,0-2.93,4.55,0,4.55S974.82,719.67,971.89,719.67Z"/><path class="cls-1" d="M828.65,826c-2.93,0-2.93,4.55,0,4.55S831.58,826,828.65,826Z"/><path class="cls-1" d="M772.74,717.2c-2.92,0-2.93,4.55,0,4.55S775.67,717.2,772.74,717.2Z"/><path class="cls-1" d="M811.18,746.87c-2.93,0-2.93,4.55,0,4.55S814.11,746.87,811.18,746.87Z"/><path class="cls-1" d="M821.66,765.31a1.14,1.14,0,0,0,0,2.28A1.14,1.14,0,0,0,821.66,765.31Z"/><path class="cls-2" d="M1275.86,434.38a.76.76,0,0,0,0,1.52A.76.76,0,0,0,1275.86,434.38Z"/><path class="cls-2" d="M1268.87,373.91a1.89,1.89,0,0,0,0,3.78A1.89,1.89,0,0,0,1268.87,373.91Z"/><path class="cls-2" d="M1300.32,805.63a.38.38,0,0,0,0,.76A.38.38,0,0,0,1300.32,805.63Z"/><path class="cls-2" d="M1157.07,948.28a1.14,1.14,0,0,0,0,2.27A1.14,1.14,0,0,0,1157.07,948.28Z"/><path class="cls-2" d="M1080.2,931.73a.38.38,0,0,0,0,.76A.38.38,0,0,0,1080.2,931.73Z"/><path class="cls-2" d="M1066.23,834.16a1.52,1.52,0,0,0,0,3A1.52,1.52,0,0,0,1066.23,834.16Z"/><path class="cls-3" d="M1380.68,519c-3.42,0-3.42,5.31,0,5.31S1384.1,519,1380.68,519Z"/><path class="cls-3" d="M1331.76,724.62c-2.92,0-2.93,4.55,0,4.55S1334.69,724.62,1331.76,724.62Z"/><path class="cls-3" d="M1387.66,599.28a1.52,1.52,0,0,0,0,3A1.52,1.52,0,0,0,1387.66,599.28Z"/><path class="cls-2" d="M987.58,879.21l1.88-1a.54.54,0,0,0,0-1l-1.88-1a.56.56,0,0,1-.21-.22l-1-1.88a.55.55,0,0,0-1,0l-1,1.88a.56.56,0,0,1-.21.22l-1.88,1a.54.54,0,0,0,0,1l1.88,1a.5.5,0,0,1,.21.22l1,1.87a.55.55,0,0,0,1,0l1-1.87A.5.5,0,0,1,987.58,879.21Z"/><path class="cls-2" d="M856.6,570a1.14,1.14,0,0,0,0,2.27A1.14,1.14,0,0,0,856.6,570Z"/><path class="cls-2" d="M1139.6,735.27a1.52,1.52,0,0,0,0,3A1.52,1.52,0,0,0,1139.6,735.27Z"/><path class="cls-2" d="M1164.06,795a1.14,1.14,0,0,0,0,2.28A1.14,1.14,0,0,0,1164.06,795Z"/><path class="cls-2" d="M1094.18,858.13c-2.93,0-2.93,4.55,0,4.55S1097.11,858.13,1094.18,858.13Z"/><path class="cls-2" d="M1111.65,901.3a1.14,1.14,0,0,0,0,2.27A1.14,1.14,0,0,0,1111.65,901.3Z"/><path class="cls-4" d="M1426.1,576.65a1.9,1.9,0,0,0,0,3.79C1428.53,580.44,1428.54,576.65,1426.1,576.65Z"/><path class="cls-4" d="M1384.17,668.89a1.14,1.14,0,0,0,0,2.27A1.14,1.14,0,0,0,1384.17,668.89Z"/><path class="cls-2" d="M1412.12,527.2a1.9,1.9,0,0,0,0,3.79A1.9,1.9,0,0,0,1412.12,527.2Z"/><path class="cls-4" d="M1227,560.1a1.14,1.14,0,0,0,0,2.27A1.14,1.14,0,0,0,1227,560.1Z"/><path class="cls-4" d="M1251.4,573.22a.38.38,0,0,0,0,.76A.38.38,0,0,0,1251.4,573.22Z"/><path class="cls-3" d="M1408.63,703.12a1.52,1.52,0,0,0,0,3A1.52,1.52,0,0,0,1408.63,703.12Z"/><path class="cls-3" d="M1419.11,641.69a1.14,1.14,0,0,0,0,2.27A1.14,1.14,0,0,0,1419.11,641.69Z"/><path class="cls-3" d="M1125.62,903.77a1.14,1.14,0,0,0,0,2.28A1.14,1.14,0,0,0,1125.62,903.77Z"/><path class="cls-3" d="M1041.77,785.85a.38.38,0,0,0,0,.76A.38.38,0,0,0,1041.77,785.85Z"/><path class="cls-3" d="M957.92,831.69a1.52,1.52,0,0,0,0,3A1.52,1.52,0,0,0,957.92,831.69Z"/><path class="cls-3" d="M730.82,821.8a1.52,1.52,0,0,0,0,3A1.52,1.52,0,0,0,730.82,821.8Z"/><path class="cls-3" d="M804.19,988c-4.39,0-4.4,6.82,0,6.82S808.58,988,804.19,988Z"/><path class="cls-3" d="M835.63,992.4a1.52,1.52,0,0,0,0,3A1.52,1.52,0,0,0,835.63,992.4Z"/><path class="cls-3" d="M853.1,933.06a1.52,1.52,0,0,0,0,3A1.52,1.52,0,0,0,853.1,933.06Z"/><path class="cls-1" d="M902,842.92c-3.42,0-3.42,5.3,0,5.3S905.44,842.92,902,842.92Z"/><path class="cls-1" d="M867.08,1010.47a.76.76,0,0,0,0,1.51A.76.76,0,0,0,867.08,1010.47Z"/><path class="cls-1" d="M800.69,913.66a1.14,1.14,0,0,0,0,2.28A1.14,1.14,0,0,0,800.69,913.66Z"/><path class="cls-1" d="M846.12,951.51a.38.38,0,0,0,0,.76A.38.38,0,0,0,846.12,951.51Z"/><path class="cls-1" d="M1048.76,824.27a1.52,1.52,0,0,0,0,3A1.52,1.52,0,0,0,1048.76,824.27Z"/><path class="cls-1" d="M874.07,896a1.52,1.52,0,0,0,0,3A1.52,1.52,0,0,0,874.07,896Z"/><path class="cls-1" d="M1059.24,865a.38.38,0,0,0,0,.76A.38.38,0,0,0,1059.24,865Z"/><path class="cls-1" d="M1101.17,755.42a1.14,1.14,0,0,0,0,2.28A1.14,1.14,0,0,0,1101.17,755.42Z"/><path class="cls-3" d="M923,573.8c-2.93,0-2.93,4.54,0,4.54S925.91,573.8,923,573.8Z"/><path class="cls-3" d="M1006.83,604.6a1.14,1.14,0,0,0,0,2.28A1.14,1.14,0,0,0,1006.83,604.6Z"/><path class="cls-3" d="M755.27,773.49a.38.38,0,0,0,0,.76A.38.38,0,0,0,755.27,773.49Z"/><path class="cls-3" d="M1192,381.7a1.52,1.52,0,0,0,0,3A1.52,1.52,0,0,0,1192,381.7Z"/><path class="cls-3" d="M1233.93,384.93a.76.76,0,0,0,0,1.52A.76.76,0,0,0,1233.93,384.93Z"/><path class="cls-3" d="M1359.71,464.43a.38.38,0,0,0,0,.76A.38.38,0,0,0,1359.71,464.43Z"/><path class="cls-3" d="M1345.74,396.54a1.52,1.52,0,0,0,0,3A1.52,1.52,0,0,0,1345.74,396.54Z"/><path class="cls-3" d="M1401.64,457a.38.38,0,0,0,0,.76A.38.38,0,0,0,1401.64,457Z"/><path class="cls-3" d="M1185,985a1.52,1.52,0,0,0,0,3A1.52,1.52,0,0,0,1185,985Z"/><path class="cls-3" d="M1087.19,970.91a.76.76,0,0,0,0,1.51A.76.76,0,0,0,1087.19,970.91Z"/><path class="cls-3" d="M744.79,756.76c-2.92,0-2.93,4.55,0,4.55S747.72,756.76,744.79,756.76Z"/><path class="cls-3" d="M790.21,777.68a1.14,1.14,0,0,0,0,2.27A1.14,1.14,0,0,0,790.21,777.68Z"/><path class="cls-1" d="M1209.48,729.18c-3.42,0-3.42,5.31,0,5.31S1212.9,729.18,1209.48,729.18Z"/><path class="cls-1" d="M1223.45,709.78c-2.92,0-2.93,4.55,0,4.55S1226.38,709.78,1223.45,709.78Z"/><path class="cls-1" d="M1307.31,537.47a1.52,1.52,0,0,0,0,3A1.52,1.52,0,0,0,1307.31,537.47Z"/><path class="cls-1" d="M1394.65,563a.76.76,0,0,0,0,1.52A.76.76,0,0,0,1394.65,563Z"/><path class="cls-1" d="M1258.39,776a.38.38,0,0,0,0,.76A.38.38,0,0,0,1258.39,776Z"/><path class="cls-1" d="M1338.75,555.91a.38.38,0,0,0,0,.76A.38.38,0,0,0,1338.75,555.91Z"/><path class="cls-1" d="M1282.85,743.44a.76.76,0,0,0,0,1.52A.76.76,0,0,0,1282.85,743.44Z"/><path class="cls-1" d="M1377.18,546a.38.38,0,0,0,0,.76A.38.38,0,0,0,1377.18,546Z"/><path class="cls-1" d="M1356.22,894.64a.38.38,0,0,0,0,.76A.38.38,0,0,0,1356.22,894.64Z"/><path class="cls-1" d="M1373.69,812.67a.76.76,0,0,0,0,1.52A.76.76,0,0,0,1373.69,812.67Z"/><path class="cls-1" d="M1366.7,818a.38.38,0,0,0,0,.76A.38.38,0,0,0,1366.7,818Z"/><path class="cls-1" d="M1398.15,790.8a.38.38,0,0,0,0,.75A.38.38,0,0,0,1398.15,790.8Z"/><path class="cls-1" d="M1415.62,851.47a1.52,1.52,0,0,0,0,3A1.52,1.52,0,0,0,1415.62,851.47Z"/><path class="cls-1" d="M1429.59,891.41a1.14,1.14,0,0,0,0,2.27A1.14,1.14,0,0,0,1429.59,891.41Z"/><path class="cls-1" d="M1391.16,768.17a.76.76,0,0,0,0,1.51A.76.76,0,0,0,1391.16,768.17Z"/><path class="cls-3" d="M1349.23,512c-2.92,0-2.93,4.54,0,4.54S1352.16,512,1349.23,512Z"/><path class="cls-3" d="M1244.42,762.08a1.9,1.9,0,0,0,0,3.79C1246.85,765.87,1246.86,762.08,1244.42,762.08Z"/><path class="cls-3" d="M1216.46,780.53a.76.76,0,0,0,0,1.51A.76.76,0,0,0,1216.46,780.53Z"/><path class="cls-3" d="M1073.22,881.9a.76.76,0,0,0,0,1.52A.76.76,0,0,0,1073.22,881.9Z"/><path class="cls-3" d="M1405.13,624.76a.76.76,0,0,0,0,1.52A.76.76,0,0,0,1405.13,624.76Z"/><path class="cls-3" d="M779.73,809.44a1.52,1.52,0,0,0,0,3A1.52,1.52,0,0,0,779.73,809.44Z"/><path class="cls-4" d="M1433.08,487.26c-2.92,0-2.93,4.55,0,4.55S1436,487.26,1433.08,487.26Z"/><path class="cls-4" d="M943.94,962.35c-2.43,0-2.44,3.79,0,3.79A1.9,1.9,0,0,0,943.94,962.35Z"/><path class="cls-4" d="M999.85,953.22a1.14,1.14,0,0,0,0,2.28A1.14,1.14,0,0,0,999.85,953.22Z"/><path class="cls-4" d="M992.86,609.17a1.52,1.52,0,0,0,0,3A1.52,1.52,0,0,0,992.86,609.17Z"/><path class="cls-4" d="M1150.08,412.13a.76.76,0,0,0,0,1.51A.76.76,0,0,0,1150.08,412.13Z"/><path class="cls-2" d="M762.26,849.38a1.14,1.14,0,0,0,0,2.27A1.14,1.14,0,0,0,762.26,849.38Z"/><path class="cls-2" d="M741.3,862.5a.38.38,0,0,0,0,.76A.38.38,0,0,0,741.3,862.5Z"/><path class="cls-2" d="M769.25,871.63a1.14,1.14,0,0,0,0,2.27A1.14,1.14,0,0,0,769.25,871.63Z"/><path class="cls-2" d="M1352.73,978.33a.76.76,0,0,0,0,1.51A.76.76,0,0,0,1352.73,978.33Z"/><path class="cls-2" d="M1118.64,957.79a1.52,1.52,0,0,0,0,3A1.52,1.52,0,0,0,1118.64,957.79Z"/><path class="cls-2" d="M1342.24,943.33a1.14,1.14,0,0,0,0,2.28A1.14,1.14,0,0,0,1342.24,943.33Z"/><path class="cls-1" d="M409.38,597.56a.76.76,0,0,0,0,1.52A.76.76,0,0,0,409.38,597.56Z"/><path class="cls-1" d="M430.35,606.7a1.52,1.52,0,0,0,0,3A1.52,1.52,0,0,0,430.35,606.7Z"/><path class="cls-1" d="M440.83,578.74c-2.93,0-2.93,4.55,0,4.55S443.76,578.74,440.83,578.74Z"/><path class="cls-1" d="M454.8,612.4a.76.76,0,0,0,0,1.52A.76.76,0,0,0,454.8,612.4Z"/><path class="cls-1" d="M608.53,663.94a1.14,1.14,0,0,0,0,2.28A1.14,1.14,0,0,0,608.53,663.94Z"/><path class="cls-1" d="M535.16,650.82a1.9,1.9,0,0,0,0,3.79A1.9,1.9,0,0,0,535.16,650.82Z"/><path class="cls-1" d="M650.46,674.59a.38.38,0,0,0,0,.76A.38.38,0,0,0,650.46,674.59Z"/><path class="cls-1" d="M482.75,709.21a.38.38,0,0,0,0,.75A.38.38,0,0,0,482.75,709.21Z"/><path class="cls-1" d="M573.59,965.58a1.14,1.14,0,0,0,0,2.28A1.14,1.14,0,0,0,573.59,965.58Z"/><path class="cls-1" d="M374.44,988.22a.76.76,0,0,0,0,1.51A.76.76,0,0,0,374.44,988.22Z"/><path class="cls-1" d="M280.11,979.66a1.9,1.9,0,0,0,0,3.79A1.9,1.9,0,0,0,280.11,979.66Z"/><path class="cls-1" d="M266.13,973a1.14,1.14,0,0,0,0,2.28A1.14,1.14,0,0,0,266.13,973Z"/><path class="cls-1" d="M283.6,924.31a.38.38,0,0,0,0,.76A.38.38,0,0,0,283.6,924.31Z"/><path class="cls-1" d="M210.23,908.72a1.14,1.14,0,0,0,0,2.27A1.14,1.14,0,0,0,210.23,908.72Z"/><path class="cls-1" d="M224.21,976.23a.38.38,0,0,0,0,.76A.38.38,0,0,0,224.21,976.23Z"/><path class="cls-1" d="M273.12,798.79c-2.92,0-2.93,4.55,0,4.55S276.05,798.79,273.12,798.79Z"/><path class="cls-1" d="M217.22,744.4c-2.93,0-2.93,4.54,0,4.54S220.15,744.4,217.22,744.4Z"/><path class="cls-1" d="M161.32,680.11c-2.93,0-2.93,4.55,0,4.55S164.25,680.11,161.32,680.11Z"/><path class="cls-1" d="M77.46,615.83c-2.92,0-2.93,4.55,0,4.55S80.4,615.83,77.46,615.83Z"/><path class="cls-1" d="M129.87,633.14c-2.92,0-2.93,4.54,0,4.54S132.8,633.14,129.87,633.14Z"/><path class="cls-1" d="M140.35,644.16a1.14,1.14,0,0,0,0,2.28A1.14,1.14,0,0,0,140.35,644.16Z"/><path class="cls-2" d="M423.36,614.87a.76.76,0,0,0,0,1.52A.76.76,0,0,0,423.36,614.87Z"/><path class="cls-2" d="M416.37,584.07a1.89,1.89,0,0,0,0,3.78A1.89,1.89,0,0,0,416.37,584.07Z"/><path class="cls-2" d="M552.63,867.44a.38.38,0,0,0,0,.76A.38.38,0,0,0,552.63,867.44Z"/><path class="cls-2" d="M395.41,997.73a1.14,1.14,0,0,0,0,2.27A1.14,1.14,0,0,0,395.41,997.73Z"/><path class="cls-2" d="M329,983.65a.38.38,0,0,0,0,.76A.38.38,0,0,0,329,983.65Z"/><path class="cls-2" d="M322,898.45a1.52,1.52,0,0,0,0,3A1.52,1.52,0,0,0,322,898.45Z"/><path class="cls-3" d="M559.62,664.9c-3.42,0-3.42,5.3,0,5.3S563,664.9,559.62,664.9Z"/><path class="cls-3" d="M587.57,751.82c-2.93,0-2.93,4.54,0,4.54S590.5,751.82,587.57,751.82Z"/><path class="cls-3" d="M671.42,619.06a1.52,1.52,0,0,0,0,3A1.52,1.52,0,0,0,671.42,619.06Z"/><path class="cls-2" d="M239.9,938.55l1.87-1a.54.54,0,0,0,0-.95l-1.87-1a.45.45,0,0,1-.22-.21l-1-1.88a.55.55,0,0,0-.95,0l-1,1.88a.5.5,0,0,1-.22.21l-1.88,1a.55.55,0,0,0,0,.95l1.88,1a.52.52,0,0,1,.22.22l1,1.87a.54.54,0,0,0,.95,0l1-1.87A.47.47,0,0,1,239.9,938.55Z"/><path class="cls-2" d="M18.07,582.35a1.14,1.14,0,0,0,0,2.27A1.14,1.14,0,0,0,18.07,582.35Z"/><path class="cls-2" d="M384.92,782.24a1.52,1.52,0,0,0,0,3A1.52,1.52,0,0,0,384.92,782.24Z"/><path class="cls-2" d="M402.39,856.8a1.14,1.14,0,0,0,0,2.27A1.14,1.14,0,0,0,402.39,856.8Z"/><path class="cls-2" d="M343,910.05c-2.93,0-2.93,4.55,0,4.55S345.93,910.05,343,910.05Z"/><path class="cls-2" d="M360.47,955.7a1.14,1.14,0,0,0,0,2.27A1.14,1.14,0,0,0,360.47,955.7Z"/><path class="cls-4" d="M615.52,722.52a1.9,1.9,0,0,0,0,3.79A1.9,1.9,0,0,0,615.52,722.52Z"/><path class="cls-4" d="M664.43,683.72a1.14,1.14,0,0,0,0,2.28A1.14,1.14,0,0,0,664.43,683.72Z"/><path class="cls-2" d="M594.56,675.55a1.9,1.9,0,0,0,0,3.79A1.9,1.9,0,0,0,594.56,675.55Z"/><path class="cls-4" d="M381.43,701a1.14,1.14,0,0,0,0,2.27A1.14,1.14,0,0,0,381.43,701Z"/><path class="cls-4" d="M398.9,716.62a.38.38,0,0,0,0,.76A.38.38,0,0,0,398.9,716.62Z"/><path class="cls-3" d="M699.37,727.85a1.52,1.52,0,0,0,0,3A1.52,1.52,0,0,0,699.37,727.85Z"/><path class="cls-3" d="M713.35,659a1.14,1.14,0,0,0,0,2.27A1.14,1.14,0,0,0,713.35,659Z"/><path class="cls-3" d="M371,960.64a1.14,1.14,0,0,0,0,2.27A1.14,1.14,0,0,0,371,960.64Z"/><path class="cls-3" d="M290.59,842.72a.38.38,0,0,0,0,.76A.38.38,0,0,0,290.59,842.72Z"/><path class="cls-3" d="M203.24,868.78a1.52,1.52,0,0,0,0,3A1.52,1.52,0,0,0,203.24,868.78Z"/><path class="cls-3" d="M28.55,678.4a1.52,1.52,0,0,0,0,3A1.52,1.52,0,0,0,28.55,678.4Z"/><path class="cls-3" d="M119.39,795.18c-4.39,0-4.39,6.82,0,6.82S123.79,795.18,119.39,795.18Z"/><path class="cls-3" d="M168.31,802a1.52,1.52,0,0,0,0,3A1.52,1.52,0,0,0,168.31,802Z"/><path class="cls-3" d="M178.79,740.21a1.52,1.52,0,0,0,0,3A1.52,1.52,0,0,0,178.79,740.21Z"/><path class="cls-1" d="M105.42,877.53c-3.42,0-3.42,5.31,0,5.31S108.83,877.53,105.42,877.53Z"/><path class="cls-1" d="M189.27,847.29a.76.76,0,0,0,0,1.51A.76.76,0,0,0,189.27,847.29Z"/><path class="cls-1" d="M112.4,733.17a1.14,1.14,0,0,0,0,2.28A1.14,1.14,0,0,0,112.4,733.17Z"/><path class="cls-1" d="M171.8,771a.38.38,0,0,0,0,.76A.38.38,0,0,0,171.8,771Z"/><path class="cls-1" d="M304.57,888.56a1.52,1.52,0,0,0,0,3A1.52,1.52,0,0,0,304.57,888.56Z"/><path class="cls-1" d="M196.26,713a1.52,1.52,0,0,0,0,3A1.52,1.52,0,0,0,196.26,713Z"/><path class="cls-1" d="M315.05,919.37a.38.38,0,0,0,0,.75A.38.38,0,0,0,315.05,919.37Z"/><path class="cls-1" d="M357,807.35a1.14,1.14,0,0,0,0,2.27A1.14,1.14,0,0,0,357,807.35Z"/><path class="cls-3" d="M150.84,586.16c-2.93,0-2.93,4.55,0,4.55S153.77,586.16,150.84,586.16Z"/><path class="cls-3" d="M252.16,621.91a1.14,1.14,0,0,0,0,2.27A1.14,1.14,0,0,0,252.16,621.91Z"/><path class="cls-3" d="M53,649.87a.38.38,0,0,0,0,.75A.38.38,0,0,0,53,649.87Z"/><path class="cls-3" d="M353.48,589.39a1.52,1.52,0,0,0,0,3A1.52,1.52,0,0,0,353.48,589.39Z"/><path class="cls-3" d="M391.91,592.62a.76.76,0,0,0,0,1.52A.76.76,0,0,0,391.91,592.62Z"/><path class="cls-3" d="M524.68,632.56a.38.38,0,0,0,0,.76A.38.38,0,0,0,524.68,632.56Z"/><path class="cls-3" d="M500.22,594.33a1.52,1.52,0,0,0,0,3A1.52,1.52,0,0,0,500.22,594.33Z"/><path class="cls-3" d="M580.58,630.09a.38.38,0,0,0,0,.75A.38.38,0,0,0,580.58,630.09Z"/><path class="cls-3" d="M433.84,1012.18a1.52,1.52,0,0,0,0,3A1.52,1.52,0,0,0,433.84,1012.18Z"/><path class="cls-3" d="M336,1008a.76.76,0,0,0,0,1.51A.76.76,0,0,0,336,1008Z"/><path class="cls-3" d="M46,635.61c-2.93,0-2.93,4.55,0,4.55S49,635.61,46,635.61Z"/><path class="cls-3" d="M98.43,654.05a1.14,1.14,0,0,0,0,2.28A1.14,1.14,0,0,0,98.43,654.05Z"/><path class="cls-1" d="M461.79,758.85c-3.41,0-3.42,5.31,0,5.31S465.21,758.85,461.79,758.85Z"/><path class="cls-1" d="M472.27,737c-2.92,0-2.93,4.55,0,4.55S475.2,737,472.27,737Z"/><path class="cls-1" d="M447.81,685.82a1.52,1.52,0,0,0,0,3A1.52,1.52,0,0,0,447.81,685.82Z"/><path class="cls-1" d="M570.1,706.35a.76.76,0,0,0,0,1.52A.76.76,0,0,0,570.1,706.35Z"/><path class="cls-1" d="M517.69,830.36a.38.38,0,0,0,0,.75A.38.38,0,0,0,517.69,830.36Z"/><path class="cls-1" d="M489.74,699.32a.38.38,0,0,0,0,.75A.38.38,0,0,0,489.74,699.32Z"/><path class="cls-1" d="M538.65,792.89a.76.76,0,0,0,0,1.52A.76.76,0,0,0,538.65,792.89Z"/><path class="cls-1" d="M549.14,691.9a.38.38,0,0,0,0,.76A.38.38,0,0,0,549.14,691.9Z"/><path class="cls-1" d="M629.5,929.26a.38.38,0,0,0,0,.75A.38.38,0,0,0,629.5,929.26Z"/><path class="cls-1" d="M657.45,839.87a.76.76,0,0,0,0,1.51A.76.76,0,0,0,657.45,839.87Z"/><path class="cls-1" d="M643.47,855.08a.38.38,0,0,0,0,.76A.38.38,0,0,0,643.47,855.08Z"/><path class="cls-1" d="M685.4,820.47a.38.38,0,0,0,0,.75A.38.38,0,0,0,685.4,820.47Z"/><path class="cls-1" d="M706.36,883.61a1.52,1.52,0,0,0,0,3A1.52,1.52,0,0,0,706.36,883.61Z"/><path class="cls-1" d="M720.34,921.08a1.14,1.14,0,0,0,0,2.27A1.14,1.14,0,0,0,720.34,921.08Z"/><path class="cls-1" d="M678.41,788a.76.76,0,0,0,0,1.51A.76.76,0,0,0,678.41,788Z"/><path class="cls-3" d="M514.2,660.33c-2.93,0-2.93,4.55,0,4.55S517.13,660.33,514.2,660.33Z"/><path class="cls-3" d="M503.72,814a1.9,1.9,0,0,0,0,3.79C506.15,817.8,506.16,814,503.72,814Z"/><path class="cls-3" d="M475.77,837.4a.76.76,0,0,0,0,1.51A.76.76,0,0,0,475.77,837.4Z"/><path class="cls-3" d="M325.53,941.24a.76.76,0,0,0,0,1.51A.76.76,0,0,0,325.53,941.24Z"/><path class="cls-3" d="M692.39,639.6a.76.76,0,0,0,0,1.51A.76.76,0,0,0,692.39,639.6Z"/><path class="cls-3" d="M88,671a1.52,1.52,0,0,0,0,3A1.52,1.52,0,0,0,88,671Z"/><path class="cls-4" d="M636.48,645.5c-2.92,0-2.93,4.55,0,4.55S639.41,645.5,636.48,645.5Z"/><path class="cls-4" d="M182.28,994.5a1.9,1.9,0,0,0,0,3.79A1.9,1.9,0,0,0,182.28,994.5Z"/><path class="cls-4" d="M255.65,1002.67a1.14,1.14,0,0,0,0,2.28A1.14,1.14,0,0,0,255.65,1002.67Z"/><path class="cls-4" d="M234.69,626.48a1.52,1.52,0,0,0,0,3A1.52,1.52,0,0,0,234.69,626.48Z"/><path class="cls-4" d="M301.07,602.51a.76.76,0,0,0,0,1.52A.76.76,0,0,0,301.07,602.51Z"/><path class="cls-2" d="M60,688.67a1.14,1.14,0,0,0,0,2.27A1.14,1.14,0,0,0,60,688.67Z"/><path class="cls-2" d="M39,694.37a.38.38,0,0,0,0,.76A.38.38,0,0,0,39,694.37Z"/><path class="cls-2" d="M67,696.09a1.14,1.14,0,0,0,0,2.27A1.14,1.14,0,0,0,67,696.09Z"/><path class="cls-2" d="M622.51,1000.58a.76.76,0,0,0,0,1.51A.76.76,0,0,0,622.51,1000.58Z"/><path class="cls-2" d="M364,1004.77a1.52,1.52,0,0,0,0,3A1.52,1.52,0,0,0,364,1004.77Z"/><path class="cls-2" d="M601.54,968.06a1.14,1.14,0,0,0,0,2.27A1.14,1.14,0,0,0,601.54,968.06Z"/></svg>