<svg width="282.12" height="259.36" xmlns="http://www.w3.org/2000/svg" xmlns:xlink="http://www.w3.org/1999/xlink" viewBox="0 0 141.06 129.68"><defs><style>.cls-1,.cls-2,.cls-22{opacity:0.7;}.cls-1{fill:url(#linear-gradient);}.cls-2{fill:url(#linear-gradient-3);}.cls-3{fill:#f2f2f2;}.cls-4{fill:#eb4d4b;}.cls-5{fill:#d84848;}.cls-6{fill:#0984e3;}.cls-14,.cls-20,.cls-7{opacity:0.2;}.cls-8{fill:#dbdbdb;}.cls-23,.cls-24,.cls-9{fill:none;}.cls-9{stroke:#e8e8e8;stroke-miterlimit:10;opacity:0.5;}.cls-10{opacity:0.1;}.cls-11{fill:#0a7ecc;}.cls-12{fill:#303866;}.cls-13{fill:#3c447f;}.cls-14,.cls-15{fill:#e6e7e8;}.cls-16{fill:#f0932b;}.cls-17{fill:#db832a;}.cls-18,.cls-19{fill:#ededed;}.cls-19{opacity:0.8;}.cls-20,.cls-21,.cls-22{fill:#fff;}.cls-21{opacity:0.4;}.cls-23,.cls-24{stroke:#ccc;stroke-linejoin:round;stroke-width:0.5px;}.cls-24{stroke-linecap:round;}</style><linearGradient id="linear-gradient" x1="31.93" y1="99.89" x2="31.93" y2="129.54" gradientUnits="userSpaceOnUse"><stop offset="0" stop-color="#fff"/><stop offset="1" stop-color="#fff" stop-opacity="0"/></linearGradient><linearGradient id="linear-gradient-3" x1="109.77" y1="99.89" x2="109.77" y2="129.54" xlink:href="#linear-gradient"/></defs><title>1Asset 1</title><g id="Layer_2" data-name="Layer 2"><g id="ship"><rect class="cls-1" x="28.39" y="102.11" width="7.06" height="27.57"/><rect class="cls-1" x="30.12" y="102.11" width="3.61" height="27.57"/><rect class="cls-2" x="106.24" y="102.11" width="7.06" height="27.57"/><rect class="cls-2" x="107.97" y="102.11" width="3.61" height="27.57"/><path class="cls-3" d="M92,17.46l45.19,53.43c9.58,11.32.19,28.5-14.52,26.54l-37.17-5a113.38,113.38,0,0,0-29.9,0l-37.17,5C3.7,99.39-5.7,82.21,3.88,70.89l45.2-53.43A28.09,28.09,0,0,1,92,17.46Z"/><path class="cls-4" d="M59.42,5.17,43.77,23.73,70.53,35.92,97.29,23.73,81.64,5.17A14.53,14.53,0,0,0,59.42,5.17Z"/><polygon class="cls-5" points="70.53 34.94 44.36 23.03 43.77 23.73 70.53 35.92 97.29 23.73 96.7 23.03 70.53 34.94"/><path class="cls-6" d="M137.17,70.89,130.48,63c-13.7,23.85-36.06,30.69-36.06,30.69h0l28.23,3.76C137.36,99.39,146.75,82.21,137.17,70.89Z"/><path class="cls-6" d="M3.88,70.89,10.57,63C24.28,86.83,46.64,93.67,46.64,93.67h0L18.41,97.43C3.7,99.39-5.7,82.21,3.88,70.89Z"/><g class="cls-7"><path d="M73.08,10.23c-15.93,0-28.85,23.15-28.85,51.7,0,13.42,2.85,23.81,7.52,31.06l3.83-.51a113.38,113.38,0,0,1,29.9,0L94,93.61c4.92-7.27,8-17.87,8-31.68C101.94,33.38,89,10.23,73.08,10.23Z"/></g><path class="cls-8" d="M97.29,60.92c0,28-12,42.57-26.76,42.57S43.77,88.91,43.77,60.92s12-50.69,26.76-50.69S97.29,32.92,97.29,60.92Z"/><path class="cls-3" d="M94.42,59.91c0,25.91-10.69,39.4-23.89,39.4s-23.9-13.49-23.9-39.4S57.33,13,70.53,13,94.42,34,94.42,59.91Z"/><line class="cls-9" x1="70.61" y1="103.67" x2="70.61" y2="10.23"/><path class="cls-10" d="M87.19,38.86c0,12.25-7,18.63-15.56,18.63S56.07,51.11,56.07,38.86s7-22.17,15.56-22.17S87.19,26.62,87.19,38.86Z"/><path class="cls-11" d="M85,38.12c0,11.83-6.47,18-14.45,18S56.07,50,56.07,38.12s6.48-21.43,14.46-21.43S85,26.28,85,38.12Z"/><path class="cls-6" d="M83.74,37.14c0,10.39-5.91,15.8-13.21,15.8s-13.22-5.41-13.22-15.8,5.92-18.81,13.22-18.81S83.74,26.75,83.74,37.14Z"/><path class="cls-12" d="M79.78,34.88c0,7.94-4.14,12.07-9.25,12.07s-9.25-4.13-9.25-12.07,4.14-14.39,9.25-14.39S79.78,26.93,79.78,34.88Z"/><path class="cls-13" d="M70.53,20.49c-5.11,0-9.25,6.44-9.25,14.39a14.23,14.23,0,0,0,2.46,8.68,8.53,8.53,0,0,0,3.46.71c5.11,0,9.25-4.13,9.25-12.08A18.29,18.29,0,0,0,73,21,6.23,6.23,0,0,0,70.53,20.49Z"/><path class="cls-14" d="M68.08,30.83c-.35,2.76-.88,5.32-2,5.48S63.49,33.59,64,30.06s2.4-5.6,3.41-5S68.39,28.06,68.08,30.83Z"/><circle class="cls-10" cx="71.5" cy="80.58" r="15.32"/><circle class="cls-11" cx="70.53" cy="79.61" r="14.35"/><g class="cls-7"><path d="M43.05,92.65l0-.91h0v-.92h0c0-.07,0-.13,0-.19,0-.42,0-.83,0-1.24h0v-.1h0a35.33,35.33,0,0,0-.34-3.69h0v0h0c-.11-.75-.25-1.46-.41-2.15,0-.07,0-.15,0-.22-.07-.28-.14-.56-.22-.83S42,82.11,42,82l-.24-.75c0-.13-.09-.26-.13-.38s-.17-.48-.26-.7-.08-.21-.13-.32q-.24-.58-.51-1.11l-.21-.43c-.09-.16-.18-.3-.26-.45l-.27-.43c-.08-.13-.17-.26-.26-.38l-.31-.41a3.76,3.76,0,0,0-.25-.31c-.16-.19-.33-.36-.5-.53l-.17-.15a5,5,0,0,0-.53-.41,1.35,1.35,0,0,0-.22-.14,3.28,3.28,0,0,0-.44-.25L37,74.72a4.26,4.26,0,0,0-.47-.15l-.22-.06a3.27,3.27,0,0,0-.7-.08h-.09c-3.94,0-7.15,6.6-7.45,15h0c0,.41,0,.82,0,1.24,0,.06,0,.12,0,.19h0v1.83h.08a33.3,33.3,0,0,0,.38,3.43L42.9,94.17c.06-.5.11-1,.14-1.52Z"/></g><path class="cls-15" d="M38.57,99.56a32.91,32.91,0,0,0,1.44-10c0-9.67-3.62-17.51-8.09-17.51s-8.08,7.84-8.08,17.51a32.91,32.91,0,0,0,1.44,10Z"/><path class="cls-8" d="M32,72.1a4,4,0,0,0-1.5.32c3.75,1.52,6.59,8.63,6.59,17.19a33.23,33.23,0,0,1-1.44,10h3a33.23,33.23,0,0,0,1.44-10C40.11,79.94,36.49,72.1,32,72.1Z"/><polygon class="cls-16" points="36.14 103.11 27.71 103.11 26.71 99.56 37.14 99.56 36.14 103.11"/><polygon class="cls-17" points="36.86 100.58 37.14 99.56 26.71 99.56 26.99 100.58 36.86 100.58"/><polygon class="cls-17" points="35.74 99.56 34.74 103.11 36.14 103.11 37.14 99.56 35.74 99.56"/><rect class="cls-8" x="23.84" y="89.82" width="16.27" height="1"/><path class="cls-18" d="M23.84,90.8v1H37c0-.33,0-.67,0-1Z"/><path class="cls-4" d="M24.25,84.13a36.13,36.13,0,0,0-.38,4.15H40.08a36.13,36.13,0,0,0-.38-4.15Z"/><path class="cls-8" d="M32,72.1a4,4,0,0,0-1.5.32c2.91,1.18,5.26,5.73,6.17,11.71h3C38.63,77.15,35.6,72.1,32,72.1Z"/><path class="cls-8" d="M39.7,84.17a33.77,33.77,0,0,1,.37,4A33.77,33.77,0,0,0,39.7,84.17Z"/><path class="cls-8" d="M40.08,88.28h-3c0,.44,0,.88,0,1.33a33.23,33.23,0,0,1-1.44,10h3a33.23,33.23,0,0,0,1.44-10C40.11,89.16,40.09,88.72,40.08,88.28Z"/><path class="cls-4" d="M39.7,84.13h0v0Z"/><path class="cls-4" d="M40.08,88.28a.49.49,0,0,0,0-.12s0,.08,0,.12Z"/><path class="cls-5" d="M40.07,88.16a33.77,33.77,0,0,0-.37-4v0h-3a34,34,0,0,1,.39,4.15h3S40.08,88.2,40.07,88.16Z"/><polygon class="cls-19" points="40.05 91.8 23.84 91.8 23.84 90.8 40.09 90.8 40.05 91.8"/><g class="cls-7"><path d="M120.9,92.43l0-.93h0v-.94h0c0-.07,0-.13,0-.2,0-.42,0-.84,0-1.26h0V89h0a34.24,34.24,0,0,0-.35-3.77h0v0h0q-.18-1.14-.42-2.19c0-.08,0-.16-.05-.23-.07-.29-.15-.57-.22-.85,0-.13-.07-.26-.11-.38-.08-.27-.16-.52-.24-.77s-.09-.26-.13-.39-.17-.49-.26-.72l-.14-.32c-.16-.4-.34-.78-.52-1.14-.07-.14-.14-.29-.22-.43l-.27-.46c-.08-.15-.17-.3-.26-.44l-.27-.39c-.11-.15-.21-.29-.32-.42s-.17-.21-.25-.31a5.36,5.36,0,0,0-.52-.54l-.17-.16a5.24,5.24,0,0,0-.54-.42l-.23-.15c-.14-.09-.29-.17-.44-.25l-.25-.11a4.42,4.42,0,0,0-.48-.15l-.22-.06a3.53,3.53,0,0,0-.72-.08h-.09c-4,0-7.31,6.73-7.6,15.27h0q0,.63,0,1.26v.2h0v1.87h.07c.06.95.16,1.88.29,2.78l14.31,1.9a31.92,31.92,0,0,0,.61-4.68Z"/></g><path class="cls-15" d="M116.42,99.56a32.91,32.91,0,0,0,1.44-10c0-9.67-3.62-17.51-8.09-17.51s-8.08,7.84-8.08,17.51a32.91,32.91,0,0,0,1.44,10Z"/><path class="cls-8" d="M109.87,72.1a4,4,0,0,0-1.5.32c3.75,1.52,6.59,8.63,6.59,17.19a33.23,33.23,0,0,1-1.44,10h3a33.23,33.23,0,0,0,1.44-10C118,79.94,114.34,72.1,109.87,72.1Z"/><polygon class="cls-16" points="113.99 103.11 105.56 103.11 104.56 99.56 114.99 99.56 113.99 103.11"/><polygon class="cls-17" points="114.7 100.58 114.99 99.56 104.56 99.56 104.84 100.58 114.7 100.58"/><polygon class="cls-17" points="113.59 99.56 112.59 103.11 113.99 103.11 114.99 99.56 113.59 99.56"/><rect class="cls-8" x="101.69" y="89.82" width="16.27" height="1"/><path class="cls-18" d="M101.69,90.8v1h13.19c0-.33,0-.67,0-1Z"/><path class="cls-4" d="M102.1,84.13a36.13,36.13,0,0,0-.38,4.15h16.21a36.13,36.13,0,0,0-.38-4.15Z"/><path class="cls-8" d="M109.87,72.1a4,4,0,0,0-1.5.32c2.91,1.18,5.26,5.73,6.17,11.71h3C116.48,77.15,113.45,72.1,109.87,72.1Z"/><path class="cls-8" d="M117.55,84.17a33.77,33.77,0,0,1,.37,4A33.77,33.77,0,0,0,117.55,84.17Z"/><path class="cls-8" d="M117.93,88.28h-3c0,.44,0,.88,0,1.33a33.23,33.23,0,0,1-1.44,10h3a33.23,33.23,0,0,0,1.44-10C118,89.16,117.94,88.72,117.93,88.28Z"/><path class="cls-4" d="M117.55,84.13h0v0Z"/><path class="cls-4" d="M117.93,88.28s0-.08,0-.12a.49.49,0,0,0,0,.12Z"/><path class="cls-5" d="M117.92,88.16a33.77,33.77,0,0,0-.37-4v0h-3a34,34,0,0,1,.39,4.15h3A.49.49,0,0,1,117.92,88.16Z"/><polygon class="cls-19" points="117.89 91.8 101.69 91.8 101.69 90.8 117.94 90.8 117.89 91.8"/><circle class="cls-20" cx="41.98" cy="110.36" r="1.25"/><circle class="cls-21" cx="22.07" cy="117.55" r="2.06"/><circle class="cls-21" cx="24.4" cy="107.34" r="0.66"/><circle class="cls-20" cx="99.46" cy="110.36" r="1.25"/><circle class="cls-21" cx="119.38" cy="117.55" r="2.06"/><circle class="cls-21" cx="117.04" cy="107.34" r="0.66"/><circle class="cls-22" cx="102.6" cy="116.56" r="0.47"/><circle class="cls-22" cx="39.7" cy="116.56" r="0.47"/><polygon class="cls-16" points="34.51 41.27 26.03 51.09 21.54 49.98 34.51 34.64 34.51 34.64 34.51 41.27"/><polyline class="cls-23" points="38.7 41.5 24.17 58.07 24.17 61.41"/><rect class="cls-24" x="23.06" y="62.42" width="2.33" height="4.1" transform="translate(48.44 128.94) rotate(180)"/><polyline class="cls-23" points="37.22 51.51 34.46 48.75 35.84 47.22"/><line class="cls-23" x1="33.45" y1="49.75" x2="36.22" y2="52.51"/><line class="cls-23" x1="32.45" y1="50.75" x2="35.21" y2="53.52"/><polyline class="cls-23" points="31.44 51.76 34.21 54.52 34.21 57.41"/><rect class="cls-23" x="33.14" y="58.53" width="2.13" height="3.66" transform="translate(68.42 120.72) rotate(180)"/><line class="cls-23" x1="24.17" y1="67.53" x2="24.17" y2="68.72"/><polygon class="cls-16" points="106.57 41.27 115.05 51.09 119.55 49.98 106.57 34.64 106.57 34.64 106.57 41.27"/><polyline class="cls-23" points="102.38 41.5 116.91 58.07 116.91 61.41"/><rect class="cls-24" x="115.69" y="62.42" width="2.33" height="4.1"/><polyline class="cls-23" points="103.86 51.51 106.63 48.75 105.24 47.22"/><line class="cls-23" x1="107.63" y1="49.75" x2="104.87" y2="52.51"/><line class="cls-23" x1="108.63" y1="50.75" x2="105.87" y2="53.52"/><polyline class="cls-23" points="109.64 51.76 106.87 54.52 106.87 57.41"/><rect class="cls-23" x="105.81" y="58.53" width="2.13" height="3.66"/><line class="cls-23" x1="116.91" y1="67.53" x2="116.91" y2="68.72"/></g></g></svg>
